<svg width="80" height="23" viewBox="0 0 80 23" fill="none" xmlns="http://www.w3.org/2000/svg">
<path fill-rule="evenodd" clip-rule="evenodd" d="M53.3162 16.2218C52.2578 17.3443 50.8986 17.9144 49.2771 17.9144C47.655 17.9144 46.2958 17.3443 45.2381 16.2218C44.2279 15.1527 43.6474 13.443 43.6474 11.533C43.6474 9.6686 44.2343 7.98242 45.2554 6.90564C46.324 5.78321 47.6768 5.21058 49.2758 5.20614C50.8775 5.21058 52.2302 5.78321 53.2982 6.90564C54.3206 7.98242 54.9063 9.6686 54.9063 11.533C54.9063 13.443 54.3264 15.1527 53.3162 16.2218ZM39.1151 11.533C39.1151 11.6192 39.1189 11.7042 39.1215 11.7892C37.4987 10.3287 35.1524 9.78529 33.7188 9.50183C31.0665 8.94885 29.0402 8.44281 29.0402 6.57589C29.0402 5.25877 30.2333 4.30058 32.5251 4.46482C34.6193 4.61512 35.5013 5.88087 35.7431 7.10223C35.7778 7.30262 35.8714 7.44847 36.1023 7.45037L39.8687 7.48208C39.8867 7.48208 39.9021 7.48018 39.9181 7.47891C39.387 8.70344 39.1151 10.0668 39.1151 11.533ZM32.7092 18.383C30.8875 18.383 28.8805 17.7432 28.4181 15.2675C28.3789 15.0309 28.266 14.9333 28.0826 14.9282L24.4412 14.88V8.51637C24.9197 10.3814 26.5047 11.6725 29.9325 12.4354C32.2268 12.9782 36.2069 13.3232 36.2069 15.6517C36.2069 17.2752 34.9978 18.4211 32.7092 18.383ZM14.5723 17.9169C11.6346 17.9169 8.94319 15.6308 8.94319 11.5355C8.94319 8.32232 10.9611 5.20867 14.5916 5.20867C16.1643 5.20867 20.152 5.74136 20.152 11.5355C20.152 17.3449 15.9886 17.9169 14.5717 17.9169H14.5723ZM59.3301 9.97236C60.1659 11.0745 61.6746 11.8906 64.1254 12.436C66.4192 12.9788 70.3998 13.3238 70.3998 15.6524C70.3998 17.2758 69.1901 18.4217 66.9021 18.3836C65.0811 18.3836 63.0729 17.7438 62.611 15.2681C62.5725 15.0316 62.4597 14.9339 62.2756 14.9288L58.9017 14.8844C59.2577 13.8463 59.4392 12.722 59.4392 11.5336C59.439 11.0113 59.4026 10.4897 59.3301 9.97236ZM66.6533 21.6241C70.6936 21.6241 75.4555 20.137 75.0829 15.3137C74.6711 11.032 70.1644 9.94763 67.9117 9.50246C65.2588 8.94949 63.2326 8.44344 63.2326 6.57652C63.2326 5.25941 64.4256 4.30122 66.7181 4.46546C68.8123 4.61575 69.6943 5.8815 69.9361 7.10286C69.9707 7.30325 70.065 7.4491 70.2953 7.45101L74.0617 7.48271C74.3484 7.48462 74.4376 7.33749 74.4017 7.13584C73.664 2.67274 69.8925 1.41016 66.4217 1.41016C62.9561 1.41016 58.7804 2.37279 58.4841 6.63486C58.4739 6.79974 58.47 6.96208 58.47 7.12125C57.9184 5.9874 57.123 4.94614 56.098 4.0241C54.2058 2.33727 51.8467 1.43362 49.2739 1.41142H49.1886C47.9596 1.41142 46.757 1.63528 45.6133 2.07918C44.4508 2.53376 43.3812 3.1927 42.4562 4.0241C41.4858 4.89668 40.7193 5.87579 40.1715 6.93925C39.3556 2.63786 35.6469 1.41016 32.2281 1.41016C29.0467 1.41016 25.2661 2.22376 24.4412 5.65892V2.24913C24.4411 2.16178 24.4059 2.07807 24.3433 2.01637C24.2808 1.95466 24.1961 1.92001 24.1077 1.92001H20.5606C20.4723 1.92018 20.3876 1.95499 20.3252 2.01681C20.2628 2.07864 20.2277 2.16242 20.2277 2.24976V3.16927C20.2277 3.324 20.1232 3.3779 19.9955 3.28785C18.7339 2.38293 16.8673 1.41206 14.6211 1.41206C13.3587 1.41206 12.1535 1.63147 11.0381 2.06396C9.922 2.49771 8.86108 3.15786 7.8874 4.02663C6.77903 5.0235 5.93491 6.15989 5.38137 7.40408C4.82782 8.64827 4.54688 10.0383 4.54688 11.5349C4.54688 12.9319 4.79575 14.242 5.28579 15.426C5.77584 16.6099 6.52182 17.7051 7.50383 18.6817C8.48521 19.6583 9.58333 20.4002 10.7655 20.8885C11.9476 21.3749 13.2503 21.6216 14.6397 21.6216C17.027 21.6216 18.8185 20.6165 19.9923 19.7027C20.1219 19.605 20.2277 19.6576 20.2277 19.8174V20.7832C20.2277 20.9646 20.3778 21.113 20.5613 21.113H24.1083C24.1966 21.1127 24.2812 21.0778 24.3436 21.016C24.406 20.9542 24.4411 20.8705 24.4412 20.7832V17.5301C26.1134 21.4174 30.3744 21.6235 32.4603 21.6235C35.9471 21.6235 39.9682 20.5137 40.7661 17.1096C41.1497 17.673 41.5872 18.1986 42.0727 18.6791C43.9739 20.5708 46.4651 21.588 49.2803 21.6184H49.3958C50.7325 21.6184 52.0224 21.3647 53.2296 20.8631C54.4483 20.3537 55.5534 19.6115 56.4816 18.6791C57.1759 17.9948 57.7689 17.2168 58.2429 16.3683C59.5072 21.38 64.3769 21.6235 66.6533 21.6235V21.6241Z" fill="#AAAAAA"/>
</svg>
