<svg width="445" height="545" viewBox="0 0 445 545" fill="none" xmlns="http://www.w3.org/2000/svg">
<path d="M388.938 60.8497L388.929 60.8405L388.921 60.8308L357.061 24.7153C355.257 22.6711 352.663 21.5 349.936 21.5H91.0149H29C23.7533 21.5 19.5 25.7533 19.5 31V98.5V439.407C19.5 441.642 20.2876 443.804 21.7242 445.516L53.7498 483.661L90.2444 519.99C90.5725 520.317 91.0165 520.5 91.4795 520.5H416C421.247 520.5 425.5 516.247 425.5 511V102.079C425.5 99.5952 424.527 97.2097 422.789 95.4344L388.938 60.8497Z" stroke="url(#paint0_linear_76_2)"/>
<path d="M404.512 43.4053L404.503 43.396L404.494 43.3863L369.38 3.70441C367.577 1.66671 364.986 0.5 362.265 0.5H78.7386H9.99997C4.7533 0.5 0.499969 4.75329 0.499969 10V84.475V456.383C0.499969 458.622 1.29102 460.79 2.73349 462.502L37.9594 504.331L77.8616 543.929C78.2299 544.295 78.7277 544.5 79.2466 544.5H435C440.247 544.5 444.5 540.247 444.5 535V88.0185C444.5 85.5291 443.523 83.1392 441.779 81.3629L404.512 43.4053Z" stroke="white" stroke-opacity="0.17"/>
<defs>
<linearGradient id="paint0_linear_76_2" x1="222.5" y1="21" x2="222.5" y2="521" gradientUnits="userSpaceOnUse">
<stop stop-color="#CCD0BB"/>
<stop offset="1" stop-color="#314232"/>
</linearGradient>
</defs>
</svg>
