<svg width="207" height="77" viewBox="0 0 207 77" fill="none" xmlns="http://www.w3.org/2000/svg">
<rect y="5" width="207" height="72" fill="#C4C4C4"/>
<path d="M29.402 13.6V57H56.744V51.296H35.416V13.6H29.402ZM75.1318 26.124C66.2658 26.124 59.4458 32.944 59.4458 41.934C59.4458 50.8 66.2658 57.62 75.1318 57.62C83.8738 57.62 90.7558 50.8 90.7558 41.934C90.7558 32.944 83.8738 26.124 75.1318 26.124ZM64.9638 41.934C64.9638 36.106 69.4278 31.58 75.1318 31.58C80.7118 31.58 85.2998 36.106 85.2998 41.934C85.2998 47.7 80.7118 52.164 75.1318 52.164C69.4278 52.164 64.9638 47.7 64.9638 41.934ZM111.485 69.71C120.227 69.71 126.675 64.44 126.675 55.946V26.744H120.971V32.758C118.739 28.604 114.771 26.124 109.439 26.124C101.255 26.124 94.7447 32.944 94.7447 41.5C94.7447 50.056 101.255 56.938 109.439 56.938C114.771 56.938 118.739 54.458 120.971 50.242V56.194C120.971 61.464 116.755 64.936 111.299 64.936C106.463 64.936 102.433 62.642 102.247 58.922H96.6047C96.9767 66.796 105.099 69.71 111.485 69.71ZM100.325 41.5C100.325 35.858 104.851 31.456 110.617 31.456C116.569 31.456 120.971 35.734 120.971 41.5C120.971 47.328 116.569 51.606 110.617 51.606C104.851 51.606 100.325 47.142 100.325 41.5ZM148.696 26.124C139.83 26.124 133.01 32.944 133.01 41.934C133.01 50.8 139.83 57.62 148.696 57.62C157.438 57.62 164.32 50.8 164.32 41.934C164.32 32.944 157.438 26.124 148.696 26.124ZM138.528 41.934C138.528 36.106 142.992 31.58 148.696 31.58C154.276 31.58 158.864 36.106 158.864 41.934C158.864 47.7 154.276 52.164 148.696 52.164C142.992 52.164 138.528 47.7 138.528 41.934Z" fill="black"/>
</svg>
