<svg width="139" height="144" viewBox="0 0 139 144" fill="none" xmlns="http://www.w3.org/2000/svg">
<path d="M44.2385 86.1029L55.7437 81.2781L57.2282 69.0307L65.7643 56.4121H76.5272L81.723 47.1338L75.4138 43.4224L76.8983 37.8554L82.8364 25.608H64.2797L57.9705 11.5049L59.8261 4.45337L79.8674 2.22656L86.5478 10.7626H98.7952L92.1148 28.5771L91.3725 34.8864L98.7952 51.5874L98.0529 52.7008L102.507 65.3193L94.3416 86.1029L82.8364 126.928L98.7952 141.773H61.6818L25.6818 140.288L44.2385 124.33V86.1029Z" fill="url(#paint0_linear_744_1040)"/>
<path d="M4.37457 49.6041C5.39076 50.1302 6.51725 50.4034 7.6608 50.4012C9.15029 50.4012 10.6022 49.9352 11.8155 49.0694C13.0276 48.2048 13.9399 46.9812 14.425 45.5723L33.2874 45.2798L29.9968 48.0012C29.0909 48.747 28.8563 50.038 29.4421 51.0538L33.9254 58.8012L34.0239 69.6012H22.0523C21.912 69.6151 21.7728 69.6441 21.6368 69.6848C20.9001 67.5141 19.1729 65.8234 16.9863 65.1344C14.8007 64.4444 12.4171 64.8387 10.569 66.1951C8.71969 67.5515 7.62842 69.7073 7.62842 72.0012C7.62842 74.295 8.71958 76.4509 10.569 77.8073C12.4172 79.1637 14.8009 79.558 16.9863 78.868C19.1729 78.179 20.9 76.4883 21.6368 74.3176C21.7728 74.3583 21.912 74.3872 22.0523 74.4012H36.4439C37.0843 74.4012 37.6968 74.1451 38.1476 73.6908C38.5984 73.2354 38.8479 72.6194 38.8425 71.9797L38.7322 59.8168L46.4078 56.9368C46.9282 57.2754 47.4582 57.5829 47.9937 57.8636L49.6127 67.5933V67.5923C49.8055 68.7494 50.8067 69.5969 51.9792 69.5969H53.2342V81.5969H46.0383C44.7138 81.5969 43.6397 82.6705 43.6397 83.9969V119.007L22.7546 139.904V139.903C22.0693 140.59 21.8637 141.621 22.2353 142.518C22.6068 143.415 23.4806 144 24.4508 144H101.206C102.176 144 103.05 143.415 103.422 142.518C103.793 141.621 103.588 140.59 102.902 139.903L86.8144 123.807V111.064L92.1845 102.115C101.245 107.584 106.723 110.4 108.402 110.4H122.793C123.43 110.4 124.04 110.147 124.49 109.697C124.939 109.247 125.192 108.636 125.192 108V94.5931L129.284 90.4991C129.733 90.0481 129.987 89.4373 129.989 88.7998V81.5999H133.494C135.117 81.5999 136.631 80.7781 137.516 79.4163C138.402 78.0534 138.538 76.3361 137.878 74.8508L130.421 58.0508C133.251 54.679 134.797 50.4136 134.787 46.0103C134.813 38.2241 132.659 30.5861 128.567 23.9624C124.476 17.3389 118.612 11.9956 111.64 8.53711L104.684 5.05286V5.05179C103.628 4.52571 102.348 4.845 101.662 5.80607L100.657 7.19999H84.4159V2.4C84.4159 1.76357 84.1632 1.15285 83.7135 0.702856C83.2637 0.252864 82.6534 0 82.0173 0H58.0312C56.7067 0 55.6326 1.07465 55.6326 2.4V12H51.9725C50.7989 11.9989 49.7977 12.8486 49.6049 14.0068L47.9859 23.7343C47.4505 24.015 46.9205 24.3225 46.4 24.6611L37.1633 21.1971C36.0658 20.7846 34.8311 21.2271 34.2444 22.2428L31.8266 26.4353C31.7645 26.4353 31.7141 26.3989 31.651 26.3989L17.2549 26.3999V18.7586C19.4062 17.9979 21.0691 16.2611 21.7374 14.0777C22.4046 11.8952 21.9987 9.52398 20.642 7.68874C19.2842 5.85339 17.1384 4.77007 14.8566 4.77007C12.5747 4.77007 10.4289 5.85328 9.07113 7.68874C7.71442 9.52409 7.30858 11.8952 7.97569 14.0777C8.64387 16.2612 10.3068 17.998 12.4582 18.7586V28.7999C12.4582 29.4364 12.7109 30.0471 13.1607 30.4971C13.6104 30.9471 14.2208 31.1999 14.8568 31.1999H29.212C28.9925 32.0839 29.2966 33.0171 29.9969 33.5999L37.605 39.8687C37.605 40.0444 37.605 40.2244 37.5911 40.4012L14.4156 40.7591C13.6114 38.5134 11.7472 36.8118 9.43857 36.2164C7.12991 35.6196 4.67672 36.2067 2.8864 37.7839C1.0971 39.3599 0.204021 41.7204 0.501722 44.088C0.800465 46.4548 2.25035 48.5205 4.37485 49.6025L4.37457 49.6041ZM14.8566 74.4012C13.8865 74.4012 13.0116 73.8162 12.6411 72.9194C12.2695 72.0226 12.4741 70.9908 13.1605 70.304C13.8468 69.6172 14.878 69.4126 15.7743 69.7844C16.6706 70.1551 17.2552 71.0305 17.2552 72.0012C17.2552 72.6376 17.0025 73.2483 16.5528 73.6983C16.103 74.1483 15.4927 74.4012 14.8566 74.4012ZM14.8566 9.60123C15.8268 9.60123 16.7016 10.1862 17.0721 11.083C17.4437 11.9798 17.2392 13.0116 16.5528 13.6984C15.8664 14.3852 14.8352 14.5898 13.9389 14.218C13.0427 13.8473 12.458 12.9719 12.458 12.0012C12.458 10.6759 13.532 9.60123 14.8566 9.60123ZM58.0315 69.6012H61.5672C62.7387 69.6012 63.7388 68.7537 63.9316 67.5976L65.5528 57.8679C66.085 57.5893 66.615 57.2797 67.1354 56.9411L76.3776 60.4039H76.3786C77.4762 60.8164 78.7109 60.3739 79.2975 59.3582L80.3116 57.6011H91.6119C91.7886 57.5872 91.9642 57.5518 92.1323 57.495L96.4092 63.2004V67.2012L92.3489 72.0012L85.925 74.5715C85.0137 74.9358 84.4162 75.8187 84.4162 76.8011V81.6011H58.0316L58.0315 69.6012ZM84.0949 30.5594L83.083 28.8023H89.2133V38.4022H77.7269L83.5435 33.6022C84.443 32.8576 84.6753 31.573 84.0949 30.5594ZM89.2134 43.2023V52.8023H83.0831L84.095 51.0452C84.6754 50.0316 84.443 48.7469 83.5436 48.0022L77.7269 43.2022L89.2134 43.2023ZM73.1255 102.5L82.0176 111.396V112.803H67.6259V86.403H72.4232V100.803C72.4232 101.439 72.6757 102.05 73.1255 102.5ZM57.9211 134.402H58.0313V134.278L67.0337 123.985V123.984C67.4159 123.545 67.6269 122.984 67.6258 122.402V117.602H72.423V139.202H53.7139L57.9211 134.402ZM30.2398 139.202L47.7323 121.699H47.7334C48.1831 121.249 48.4358 120.639 48.4358 120.002V86.4024H62.8275V121.5L58.0303 126.986V115.202H53.2331V132.482L47.3467 139.202L30.2398 139.202ZM95.4133 139.202H77.2182V117.602H82.0154V124.802C82.0154 125.439 82.2681 126.049 82.7178 126.499L95.4133 139.202ZM83.9343 106.532L77.2182 99.8121V86.4009H84.414V96.0009C84.414 96.828 84.8402 97.5973 85.5416 98.0366C86.4368 98.598 87.2441 99.093 88.089 99.6137L83.9343 106.532ZM60.4288 4.80124H79.6176V9.60123C79.6176 10.2377 79.8703 10.8484 80.3201 11.2984C80.7698 11.7484 81.3802 12.0012 82.0162 12.0012H97.2302L89.6608 22.6073C89.3685 23.0134 89.2121 23.5009 89.2121 24.0012H80.3104L79.2953 22.2441H79.2964C78.7096 21.2284 77.4749 20.7859 76.3775 21.1984L67.1449 24.6612C66.6245 24.3227 66.0944 24.013 65.5622 23.7344L63.9303 14.0047C63.7376 12.8487 62.7375 12.0011 61.566 12.0011H60.4288L60.4288 4.80124ZM34.6126 31.2012L37.3786 26.4012L45.8957 29.5953C46.6602 29.8824 47.518 29.7603 48.1722 29.2717C49.0738 28.5903 50.0536 28.0181 51.0911 27.5681C51.8418 27.2456 52.3772 26.5621 52.511 25.7553L54.0026 16.8012H59.5334L61.025 25.7583H61.0261C61.16 26.564 61.6954 27.2476 62.446 27.5701C63.4825 28.0222 64.4623 28.5933 65.3649 29.2736C66.0181 29.7611 66.8747 29.8833 67.6382 29.5983L76.1586 26.4012L78.9213 31.2012L71.9053 36.9782C71.2746 37.4978 70.9523 38.3036 71.0497 39.1168C71.1964 40.2364 71.1964 41.3711 71.0497 42.4908C70.9523 43.3029 71.2746 44.1086 71.9053 44.6293L78.9213 50.4011L76.1586 55.2011L67.6393 52.0071H67.6383C66.8748 51.721 66.0181 51.8431 65.3649 52.3307C64.4622 53.011 63.4824 53.5831 62.446 54.0342C61.6954 54.3567 61.16 55.0403 61.0261 55.8471L59.5334 64.8011H54.0005L52.5131 55.844C52.3793 55.0383 51.8439 54.3548 51.0932 54.0323C50.0567 53.5823 49.0769 53.0101 48.1743 52.3287C47.5201 51.8401 46.6624 51.718 45.8978 52.0041L37.3785 55.2011L34.6126 50.4011L41.6285 44.6241C41.6714 44.5823 41.7121 44.5384 41.7506 44.4923C41.7967 44.4484 41.8416 44.4023 41.8823 44.3531C42.0633 44.1581 42.2089 43.9341 42.3149 43.6909L42.3288 43.6641C42.4295 43.3995 42.482 43.1198 42.482 42.837C42.4905 42.8027 42.497 42.7684 42.5012 42.7331C42.5012 42.7041 42.4873 42.6806 42.4841 42.6516C42.482 42.6227 42.4841 42.5413 42.4841 42.4856H42.4852C42.3374 41.3659 42.3374 40.2313 42.4852 39.1116C42.5816 38.2994 42.2582 37.4927 41.6264 36.973L34.6126 31.2012ZM5.52782 42.1041C5.81373 41.5319 6.31807 41.099 6.92844 40.9041C8.15559 40.5912 9.41485 41.2876 9.80348 42.4941C10.1922 43.7005 9.5754 45.0012 8.39644 45.464C7.13502 45.8701 5.78369 45.1758 5.37886 43.9137C5.18718 43.3147 5.24084 42.6644 5.52782 42.1041Z" fill="white"/>
<path d="M113.266 59.8974H120.651C121.304 59.8974 121.93 59.6467 122.391 59.2006C122.853 58.7544 123.112 58.1489 123.112 57.5179V50.3795C123.112 49.0655 122.01 48 120.651 48C119.292 48 118.189 49.0655 118.189 50.3795V55.1385H113.266C111.907 55.1385 110.805 56.2039 110.805 57.5179C110.805 58.832 111.907 59.8974 113.266 59.8974Z" fill="#181715"/>
<path d="M56.8559 50.4578C59.4124 50.4578 61.8648 49.4421 63.6723 47.6344C65.4811 45.8256 66.4969 43.3733 66.4969 40.8168C66.4969 38.2603 65.4811 35.8079 63.6723 33.9992C61.8647 32.1915 59.4124 31.1758 56.8559 31.1758C54.2982 31.1758 51.8458 32.1915 50.0383 33.9992C48.2306 35.808 47.2148 38.2603 47.2148 40.8168C47.2148 43.3733 48.2306 45.8257 50.0383 47.6344C51.846 49.4421 54.2982 50.4578 56.8559 50.4578ZM56.8559 35.9963C58.1342 35.9963 59.3597 36.5042 60.2647 37.408C61.1685 38.3118 61.6764 39.5385 61.6764 40.8168C61.6764 42.0951 61.1685 43.3218 60.2647 44.2256C59.3597 45.1294 58.1342 45.6373 56.8559 45.6373C55.5776 45.6373 54.3509 45.1294 53.4471 44.2256C52.5432 43.3218 52.0354 42.0951 52.0354 40.8168C52.0354 39.5385 52.5432 38.3118 53.4471 37.408C54.3509 36.5042 55.5776 35.9963 56.8559 35.9963Z" fill="white"/>
<path d="M114.754 84.6172C117.104 87.2151 123.067 92.3368 128.115 92.0399" stroke="#181715" stroke-width="9" stroke-linecap="round"/>
<defs>
<linearGradient id="paint0_linear_744_1040" x1="61.4962" y1="86.1029" x2="61.4962" y2="143.258" gradientUnits="userSpaceOnUse">
<stop stop-color="#8CEC62"/>
<stop offset="1" stop-color="#1F201F"/>
</linearGradient>
</defs>
</svg>
