<svg xmlns="http://www.w3.org/2000/svg" width="148" height="208" viewBox="0 0 148 208" fill="none">
  <g filter="url(#filter0_f_1_3998)">
    <path d="M53.2405 118.102L64.7456 113.277L66.2301 101.029L74.7662 88.4109H85.5291L90.725 79.1326L84.4157 75.4212L85.9002 69.8542L91.8384 57.6068H73.2817L66.9724 43.5037L68.8281 36.4521L88.8693 34.2253L95.5497 42.7614H107.797L101.117 60.5759L100.374 66.8851L107.797 83.5862L107.055 84.6996L111.508 97.3181L103.344 118.102L91.8384 158.926L107.797 173.772H70.6838L34.6838 172.287L53.2405 156.328V118.102Z" fill="#FFAC4B"/>
  </g>
  <path d="M13.3755 81.6046C14.3917 82.1307 15.5182 82.4039 16.6618 82.4017C18.1513 82.4017 19.6032 81.9357 20.8164 81.0699C22.0286 80.2053 22.9409 78.9817 23.426 77.5728L42.2883 77.2803L38.9977 80.0017C38.0918 80.7475 37.8573 82.0385 38.4431 83.0543L42.9264 90.8017L43.0249 101.602H31.0533C30.913 101.616 30.7738 101.645 30.6378 101.685C29.9011 99.5146 28.1739 97.8239 25.9872 97.1349C23.8017 96.4449 21.4181 96.8392 19.5699 98.1956C17.7207 99.552 16.6294 101.708 16.6294 104.002C16.6294 106.296 17.7206 108.451 19.5699 109.808C21.4182 111.164 23.8019 111.558 25.9872 110.868C28.1738 110.18 29.9009 108.489 30.6378 106.318C30.7738 106.359 30.913 106.388 31.0533 106.402H45.4449C46.0852 106.402 46.6977 106.146 47.1485 105.691C47.5993 105.236 47.8489 104.62 47.8435 103.98L47.7332 91.8173L55.4088 88.9373C55.9292 89.2759 56.4592 89.5834 56.9946 89.8641L58.6137 99.5938V99.5928C58.8064 100.75 59.8076 101.597 60.9802 101.597H62.2351V113.597H55.0393C53.7147 113.597 52.6407 114.671 52.6407 115.997V151.007L31.7556 171.904V171.903C31.0703 172.59 30.8647 173.622 31.2362 174.519C31.6078 175.415 32.4816 176 33.4517 176H110.207C111.177 176 112.051 175.415 112.423 174.519C112.794 173.622 112.589 172.59 111.903 171.903L95.8154 155.807V143.065L101.185 134.115C110.246 139.585 115.724 142.4 117.403 142.4H131.794C132.431 142.4 133.041 142.148 133.491 141.698C133.94 141.248 134.193 140.637 134.193 140V126.594L138.285 122.5C138.734 122.049 138.988 121.438 138.99 120.8V113.6H142.495C144.118 113.6 145.632 112.779 146.517 111.417C147.403 110.054 147.539 108.337 146.879 106.851L139.422 90.0513C142.252 86.6795 143.798 82.4141 143.788 78.0107C143.814 70.2246 141.66 62.5866 137.568 55.9629C133.477 49.3394 127.613 43.9961 120.641 40.5376L113.685 37.0533V37.0523C112.629 36.5262 111.348 36.8455 110.663 37.8066L109.658 39.2005H93.4169V34.4005C93.4169 33.7641 93.1642 33.1533 92.7144 32.7033C92.2647 32.2534 91.6543 32.0005 91.0183 32.0005H67.0322C65.7076 32.0005 64.6336 33.0751 64.6336 34.4005V44.0005H60.9735C59.7999 43.9994 58.7987 44.8491 58.6059 46.0073L56.9869 55.7348C56.4515 56.0155 55.9214 56.323 55.401 56.6616L46.1643 53.1976C45.0667 52.7851 43.8321 53.2276 43.2454 54.2433L40.8275 58.4358C40.7654 58.4358 40.7151 58.3994 40.6519 58.3994L26.2559 58.4004V50.7591C28.4072 49.9984 30.0701 48.2616 30.7384 46.0782C31.4055 43.8957 30.9997 41.5245 29.643 39.6892C28.2852 37.8539 26.1394 36.7706 23.8575 36.7706C21.5757 36.7706 19.4299 37.8538 18.0721 39.6892C16.7154 41.5246 16.3096 43.8957 16.9767 46.0782C17.6449 48.2617 19.3078 49.9985 21.4592 50.7591V60.8004C21.4592 61.4368 21.7119 62.0476 22.1616 62.4976C22.6114 62.9476 23.2217 63.2004 23.8578 63.2004H38.213C37.9935 64.0844 38.2976 65.0176 38.9979 65.6004L46.606 71.8692C46.606 72.0449 46.606 72.2249 46.5921 72.4017L23.4166 72.7596C22.6124 70.5139 20.7481 68.8123 18.4395 68.2169C16.1309 67.6201 13.6777 68.2072 11.8874 69.7843C10.0981 71.3604 9.205 73.7209 9.5027 76.0885C9.80144 78.4553 11.2513 80.521 13.3758 81.603L13.3755 81.6046ZM23.8576 106.402C22.8874 106.402 22.0126 105.817 21.6421 104.92C21.2705 104.023 21.4751 102.991 22.1614 102.305C22.8478 101.618 23.879 101.413 24.7753 101.785C25.6715 102.156 26.2562 103.031 26.2562 104.002C26.2562 104.638 26.0035 105.249 25.5538 105.699C25.104 106.149 24.4936 106.402 23.8576 106.402ZM23.8576 41.6017C24.8278 41.6017 25.7026 42.1867 26.0731 43.0835C26.4447 43.9803 26.2401 45.012 25.5538 45.6989C24.8674 46.3857 23.8362 46.5903 22.9399 46.2185C22.0436 45.8478 21.459 44.9724 21.459 44.0017C21.459 42.6764 22.533 41.6017 23.8576 41.6017ZM67.0325 101.602H70.5682C71.7396 101.602 72.7398 100.754 72.9325 99.5981L74.5537 89.8684C75.0859 89.5898 75.616 89.2802 76.1364 88.9416L85.3786 92.4044H85.3796C86.4772 92.8169 87.7118 92.3744 88.2985 91.3587L89.3126 89.6016H100.613C100.79 89.5877 100.965 89.5523 101.133 89.4955L105.41 95.2009V99.2016L101.35 104.002L94.926 106.572C94.0147 106.936 93.4172 107.819 93.4172 108.802V113.602H67.0325L67.0325 101.602ZM93.0959 62.5599L92.084 60.8027H98.2143V70.4027H86.7278L92.5445 65.6027C93.444 64.8581 93.6763 63.5735 93.0959 62.5599ZM98.2144 75.2028V84.8028H92.0841L93.096 83.0456C93.6764 82.0321 93.444 80.7474 92.5445 80.0027L86.7279 75.2027L98.2144 75.2028ZM82.1265 134.501L91.0186 143.397V144.803H76.6269V118.404H81.4241V132.804C81.4241 133.44 81.6767 134.051 82.1265 134.501ZM66.922 166.403H67.0323V166.278L76.0346 155.985V155.984C76.4169 155.546 76.6279 154.985 76.6268 154.403V149.603H81.424V171.203H62.7149L66.922 166.403ZM39.2407 171.203L56.7333 153.7H56.7344C57.1841 153.25 57.4368 152.639 57.4368 152.003V118.403H71.8285V153.5L67.0312 158.986V147.203H62.234V164.483L56.3477 171.203L39.2407 171.203ZM104.414 171.203H86.2192V149.603H91.0164V156.803C91.0164 157.439 91.2691 158.05 91.7188 158.5L104.414 171.203ZM92.9353 138.533L86.2192 131.813V118.401H93.415V128.001C93.415 128.828 93.8412 129.598 94.5425 130.037C95.4377 130.599 96.2451 131.093 97.09 131.614L92.9353 138.533ZM69.4297 36.8017H88.6186V41.6017C88.6186 42.2381 88.8713 42.8489 89.321 43.2989C89.7708 43.7489 90.3811 44.0017 91.0172 44.0017H106.231L98.6618 54.6078C98.3694 55.0139 98.2131 55.5014 98.2131 56.0017H89.3114L88.2963 54.2446H88.2973C87.7105 53.2289 86.4759 52.7864 85.3784 53.1989L76.1459 56.6617C75.6255 56.3231 75.0954 56.0135 74.5632 55.7349L72.9313 46.0052C72.7386 44.8492 71.7384 44.0016 70.567 44.0016H69.4298L69.4297 36.8017ZM43.6136 63.2017L46.3795 58.4017L54.8967 61.5958C55.6612 61.8829 56.5189 61.7608 57.1732 61.2722C58.0748 60.5907 59.0546 60.0186 60.0921 59.5686C60.8427 59.2461 61.3781 58.5625 61.512 57.7558L63.0036 48.8017H68.5344L70.026 57.7588H70.0271C70.1609 58.5645 70.6963 59.2481 71.447 59.5706C72.4835 60.0227 73.4633 60.5938 74.3659 61.2741C75.0191 61.7616 75.8757 61.8838 76.6392 61.5988L85.1596 58.4017L87.9223 63.2017L80.9063 68.9787C80.2756 69.4983 79.9532 70.304 80.0507 71.1173C80.1974 72.2369 80.1974 73.3716 80.0507 74.4913C79.9532 75.3034 80.2756 76.1091 80.9063 76.6298L87.9223 82.4016L85.1596 87.2016L76.6403 84.0076H76.6392C75.8757 83.7215 75.0191 83.8436 74.3659 84.3311C73.4632 85.0115 72.4834 85.5836 71.447 86.0347C70.6964 86.3572 70.161 87.0408 70.0271 87.8476L68.5344 96.8016H63.0014L61.5141 87.8445C61.3802 87.0388 60.8448 86.3552 60.0942 86.0327C59.0577 85.5828 58.0779 85.0106 57.1753 84.3292C56.521 83.8406 55.6633 83.7185 54.8988 84.0045L46.3795 87.2016L43.6135 82.4016L50.6295 76.6246C50.6724 76.5828 50.713 76.5389 50.7516 76.4928C50.7976 76.4489 50.8426 76.4028 50.8833 76.3535C51.0643 76.1586 51.2099 75.9346 51.3159 75.6914L51.3298 75.6646C51.4305 75.4 51.4829 75.1203 51.4829 74.8375C51.4915 74.8032 51.4979 74.7689 51.5022 74.7336C51.5022 74.7046 51.4883 74.681 51.4851 74.6521C51.4829 74.6232 51.4851 74.5418 51.4851 74.486H51.4862C51.3384 73.3664 51.3384 72.2318 51.4862 71.1121C51.5825 70.2999 51.2591 69.4931 50.6274 68.9735L43.6136 63.2017ZM14.5288 74.1045C14.8147 73.5324 15.319 73.0995 15.9294 72.9045C17.1566 72.5917 18.4158 73.2881 18.8045 74.4945C19.1932 75.701 18.5764 77.0017 17.3974 77.4645C16.136 77.8706 14.7847 77.1763 14.3798 75.9142C14.1882 75.3152 14.2418 74.6649 14.5288 74.1045Z" fill="white"/>
  <path d="M122.267 91.8998H129.651C130.304 91.8998 130.93 91.6491 131.392 91.2029C131.854 90.7568 132.113 90.1513 132.113 89.5203V82.3818C132.113 81.0678 131.011 80.0023 129.651 80.0023C128.292 80.0023 127.19 81.0678 127.19 82.3818V87.1408H122.267C120.907 87.1408 119.805 88.2062 119.805 89.5203C119.805 90.8343 120.907 91.8998 122.267 91.8998Z" fill="#969696"/>
  <path d="M65.8566 82.4598C68.4132 82.4598 70.8655 81.444 72.6731 79.6363C74.4818 77.8276 75.4976 75.3753 75.4976 72.8188C75.4976 70.2622 74.4819 67.8098 72.6731 66.0012C70.8654 64.1935 68.4131 63.1777 65.8566 63.1777C63.2989 63.1777 60.8466 64.1935 59.039 66.0012C57.2313 67.8099 56.2156 70.2622 56.2156 72.8188C56.2156 75.3753 57.2313 77.8277 59.039 79.6363C60.8467 81.444 63.299 82.4598 65.8566 82.4598ZM65.8566 67.9982C67.1349 67.9982 68.3605 68.5061 69.2654 69.41C70.1692 70.3138 70.6771 71.5405 70.6771 72.8188C70.6771 74.097 70.1692 75.3237 69.2654 76.2276C68.3605 77.1314 67.1349 77.6393 65.8566 77.6393C64.5783 77.6393 63.3516 77.1314 62.4478 76.2276C61.544 75.3237 61.0361 74.097 61.0361 72.8188C61.0361 71.5405 61.544 70.3138 62.4478 69.41C63.3516 68.5061 64.5783 67.9982 65.8566 67.9982Z" fill="white"/>
  <path d="M123.755 116.618C126.106 119.216 132.069 124.338 137.116 124.041" stroke="#949494" stroke-width="9" stroke-linecap="round"/>
  <defs>
    <filter id="filter0_f_1_3998" x="0.683838" y="0.225342" width="144.825" height="207.546" filterUnits="userSpaceOnUse" color-interpolation-filters="sRGB">
      <feFlood flood-opacity="0" result="BackgroundImageFix"/>
      <feBlend mode="normal" in="SourceGraphic" in2="BackgroundImageFix" result="shape"/>
      <feGaussianBlur stdDeviation="17" result="effect1_foregroundBlur_1_3998"/>
    </filter>
  </defs>
</svg>