<svg width="433" height="451" viewBox="0 0 433 451" fill="none" xmlns="http://www.w3.org/2000/svg">
<path d="M303.5 243C303.5 324.186 335.294 390 216 390C96.7065 390 0 324.186 0 243C0 161.814 96.7065 96 216 96C335.294 96 303.5 161.814 303.5 243Z" fill="white"/>
<circle cx="197.5" cy="240.5" r="117.5" fill="url(#paint0_radial_742_1405)"/>
<circle cx="197.5" cy="240.5" r="59.5" fill="black"/>
<circle cx="181" cy="227" r="22" fill="white"/>
<rect x="253" y="91" width="29" height="29" fill="#B4C1B2"/>
<rect x="253" y="61" width="29" height="29" fill="#536151"/>
<rect x="223" y="91" width="29" height="29" fill="#EAEEE9"/>
<rect x="223" y="61" width="29" height="29" fill="#748571"/>
<rect x="193" y="91" width="29" height="29" fill="white"/>
<rect x="193" y="61" width="29" height="29" fill="#849C83"/>
<rect x="223" y="121" width="29" height="29" fill="#89A3EE"/>
<rect x="193" y="121" width="29" height="29" fill="#92F567"/>
<rect x="223" y="121" width="29" height="29" fill="#92F567"/>
<rect x="253" y="121" width="29" height="29" fill="#D3F0C6"/>
<rect x="193" y="151" width="29" height="29" fill="#30601B"/>
<rect x="223" y="151" width="29" height="29" fill="#30601B"/>
<rect x="253" y="151" width="29" height="29" fill="#5A943F"/>
<rect x="223" y="301" width="29" height="29" fill="#30601B"/>
<rect x="223" y="271" width="29" height="29" fill="#1F3A13"/>
<rect x="193" y="301" width="29" height="29" fill="#30601B"/>
<rect x="223" y="331" width="29" height="29" fill="#8CEC62"/>
<rect x="223" y="361" width="29" height="29" fill="#E3E7E2"/>
<rect x="223" y="391" width="29" height="29" fill="#778E78"/>
<rect x="193" y="331" width="29" height="29" fill="#8CEC62"/>
<rect x="193" y="361" width="29" height="29" fill="white"/>
<rect x="193" y="391" width="29" height="29" fill="#849C83"/>
<rect x="253" y="121" width="29" height="29" fill="#D3F0C6"/>
<rect x="253" y="301" width="29" height="29" fill="#5A943F"/>
<rect x="253" y="331" width="29" height="29" fill="#D3F0C6"/>
<rect x="253" y="361" width="29" height="29" fill="#C3CDC1"/>
<rect x="253" y="391" width="29" height="29" fill="#536151"/>
<rect x="283" y="121" width="29" height="29" fill="#F0F1F3"/>
<rect x="283" y="301" width="29" height="29" fill="#F0F1F3"/>
<rect x="283" y="331" width="29" height="29" fill="#F0F1F3"/>
<rect x="283" y="361" width="29" height="29" fill="#889C85"/>
<rect x="283" y="391" width="29" height="29" fill="#26252C"/>
<rect x="283" y="151" width="29" height="29" fill="#EAEFFC"/>
<rect x="283" y="181" width="29" height="29" fill="#ABC0F5"/>
<rect x="283" y="271" width="29" height="29" fill="#ABC0F5"/>
<rect x="283" y="211" width="29" height="29" fill="#30601B"/>
<rect x="253" y="211" width="29" height="29" fill="#1F3A13"/>
<rect x="223" y="211" width="29" height="29" fill="black"/>
<rect x="283" y="241" width="29" height="29" fill="#30601B"/>
<rect x="253" y="241" width="29" height="29" fill="#1F3A13"/>
<rect x="223" y="241" width="29" height="29" fill="black"/>
<rect x="193" y="241" width="29" height="29" fill="black"/>
<rect x="193" y="181" width="29" height="29" fill="black"/>
<rect x="193" y="211" width="29" height="29" fill="black"/>
<rect x="223" y="181" width="29" height="29" fill="#1F3A13"/>
<rect x="253" y="181" width="29" height="29" fill="#5DAA3B"/>
<rect x="253" y="271" width="29" height="29" fill="#5DAA3B"/>
<rect x="283" y="211" width="29" height="29" fill="#5DAA3B"/>
<rect x="283" y="241" width="29" height="29" fill="#5DAA3B"/>
<rect x="283" y="271" width="29" height="29" fill="#B0E399"/>
<rect x="283" y="181" width="29" height="29" fill="#B0E399"/>
<rect x="283" y="151" width="29" height="29" fill="#D3F0C6"/>
<rect x="283" y="301" width="29" height="29" fill="#D3F0C6"/>
<rect x="193" y="271" width="29" height="29" fill="black"/>
<rect x="313" y="151" width="29" height="29" fill="#F0F1F3"/>
<rect x="313" y="181" width="29" height="29" fill="white"/>
<rect x="313" y="271" width="29" height="29" fill="white"/>
<rect x="313" y="211" width="29" height="29" fill="white"/>
<rect x="313" y="241" width="29" height="29" fill="white"/>
<rect x="343" y="211" width="29" height="29" fill="white"/>
<rect x="373" y="211" width="29" height="29" fill="#C2C8BA"/>
<rect x="403" y="211" width="29" height="29" fill="#5B6858"/>
<rect x="373" y="241" width="29" height="29" fill="#C2C8BA"/>
<rect x="403" y="241" width="29" height="29" fill="#5B6858"/>
<rect x="343" y="241" width="29" height="29" fill="white"/>
<rect x="343" y="151" width="29" height="29" fill="#889C85"/>
<rect x="373" y="151" width="29" height="29" fill="#2C2D33"/>
<rect x="343" y="181" width="29" height="29" fill="#C9D4C9"/>
<rect x="343" y="271" width="29" height="29" fill="#C9D4C9"/>
<rect x="373" y="181" width="29" height="29" fill="#7F8E78"/>
<rect x="373" y="271" width="29" height="29" fill="#7F8E78"/>
<rect x="313" y="121" width="29" height="29" fill="#9AA894"/>
<rect x="313" y="301" width="29" height="29" fill="#F0F1F3"/>
<rect x="313" y="331" width="29" height="29" fill="#9AA894"/>
<rect x="313" y="361" width="29" height="29" fill="#445144"/>
<rect x="313" y="391" width="29" height="29" fill="#1F1E25"/>
<rect x="343" y="121" width="29" height="29" fill="#4C5347"/>
<rect x="343" y="301" width="29" height="29" fill="#889C85"/>
<rect x="343" y="331" width="29" height="29" fill="#4C5347"/>
<rect x="283" y="91" width="29" height="29" fill="#7D957E"/>
<rect x="283" y="61" width="29" height="29" fill="#2D332C"/>
<rect x="313" y="91" width="29" height="29" fill="#4C584B"/>
<rect x="313" y="61" width="29" height="29" fill="#1F1E25"/>
<path fill-rule="evenodd" clip-rule="evenodd" d="M433 2.10689e-05V1.00002V30V31V60V61V90V91V120V121V150V151V180V181V210V211V240V241V270V271V300V301V330V331V360V361V390V391V420V421V450V451H432H403H402H373H372H343H342H313H312H283H282H253H252H223H222H193H192V1V0L433 2.10689e-05ZM253 450H282V421H253V450ZM252 421V450H223V421H252ZM253 420H282V391H253L253 420ZM252 391L252 420H223V391H252ZM253 390H282L282 361H253V390ZM252 361V390H223L223 361H252ZM253 360H282V331H253V360ZM252 331V360H223V331H252ZM253 330H282V301H253L253 330ZM252 301L252 330H223V301H252ZM253 300H282V271H253V300ZM252 271V300H223L223 271H252ZM253 270H282V241H253V270ZM252 241V270H223V241H252ZM253 240H282V211H253L253 240ZM252 211L252 240H223V211H252ZM253 210H282V181H253V210ZM252 181V210H223L223 181H252ZM253 180H282V151H253V180ZM252 151V180H223V151H252ZM253 150H282V121H253L253 150ZM252 121L252 150H223V121H252ZM253 120H282V91H253V120ZM252 91V120H223L223 91H252ZM253 90H282V61H253V90ZM252 61V90H223V61H252ZM253 60H282V31H253L253 60ZM252 31L252 60H223V31H252ZM253 30H282V1H253V30ZM252 1H223L223 30H252V1ZM342 450H313V421H342V450ZM342 420H313V391H342V420ZM312 420V391H283V420H312ZM342 390H313L313 361H342V390ZM312 390L312 361H283L283 390H312ZM342 360H313V331H342V360ZM312 360V331H283V360H312ZM342 330H313V301H342V330ZM312 330V301H283V330H312ZM342 300H313V271H342V300ZM312 300V271H283V300H312ZM342 270H313V241H342V270ZM312 270V241H283V270H312ZM342 240H313L313 211H342V240ZM312 240L312 211H283V240H312ZM342 210H313V181H342V210ZM312 210V181H283V210H312ZM342 180H313V151H342V180ZM312 180V151H283V180H312ZM342 150H313V121H342V150ZM312 150V121H283V150H312ZM342 120H313V91H342V120ZM312 120V91H283V120H312ZM342 90H313L313 61H342V90ZM312 90L312 61H283V90H312ZM342 60H313V31H342V60ZM312 60V31H283V60H312ZM342 30H313V1H342V30ZM283 1H312V30H283V1ZM312 450V421H283V450H312ZM373 450H402V421H373V450ZM372 421V450H343V421H372ZM373 420H402V391H373V420ZM372 391V420H343V391H372ZM373 390H402V361H373V390ZM372 361V390H343V361H372ZM373 360H402V331H373V360ZM372 331V360H343V331H372ZM373 330H402V301H373V330ZM372 301V330H343V301H372ZM373 300H402V271H373V300ZM372 271V300H343V271H372ZM373 270H402V241H373V270ZM372 241V270H343V241H372ZM373 240H402V211H373L373 240ZM372 211L372 240H343V211H372ZM373 210H402V181H373V210ZM372 181V210H343V181H372ZM373 180H402V151H373V180ZM372 151V180H343V151H372ZM373 150H402V121H373V150ZM372 121V150H343V121H372ZM373 120H402V91H373V120ZM372 91V120H343V91H372ZM373 90H402V61H373V90ZM372 61V90H343V61H372ZM373 60H402V31H373V60ZM372 31V60H343V31H372ZM373 30H402V1H373V30ZM372 1H343V30H372V1ZM432 1V30H403V1H432ZM403 31H432V60H403V31ZM403 61H432V90H403V61ZM403 91H432V120H403V91ZM403 121H432V150H403V121ZM403 151H432V180H403V151ZM403 181H432V210H403V181ZM403 211H432L432 240H403V211ZM403 241H432V270H403V241ZM403 271H432V300H403V271ZM403 301H432V330H403V301ZM403 331H432V360H403V331ZM403 361H432V390H403V361ZM403 391H432V420H403V391ZM403 421H432V450H403V421ZM222 420V391H193V420H222ZM193 421V450H222V421H193ZM222 301V330H193V301H222ZM193 360V331H222V360H193ZM222 240V211H193V240H222ZM193 241V270H222V241H193ZM222 121V150H193V121H222ZM193 180V151H222V180H193ZM222 60V31H193V60H222ZM193 61V90H222V61H193ZM222 390H193V361H222L222 390ZM222 300H193V271H222L222 300ZM222 210H193V181H222L222 210ZM222 120H193V91H222L222 120ZM222 30H193L193 1H222L222 30Z" fill="url(#paint1_linear_742_1405)"/>
<defs>
<radialGradient id="paint0_radial_742_1405" cx="0" cy="0" r="1" gradientUnits="userSpaceOnUse" gradientTransform="translate(199 242.5) rotate(105.215) scale(123.841)">
<stop stop-color="#97FC6B"/>
<stop offset="0.388853" stop-color="#304B24"/>
<stop offset="0.647064" stop-color="#2E6A14"/>
<stop offset="0.963638" stop-color="#97FC6B"/>
</radialGradient>
<linearGradient id="paint1_linear_742_1405" x1="172" y1="206" x2="470" y2="215" gradientUnits="userSpaceOnUse">
<stop stop-color="#D2D2D2"/>
<stop offset="0.592147" stop-color="#898989" stop-opacity="0.472989"/>
<stop offset="1" stop-color="#565656" stop-opacity="0.11"/>
</linearGradient>
</defs>
</svg>
