<svg width="87" height="21" viewBox="0 0 87 21" fill="none" xmlns="http://www.w3.org/2000/svg">
<g clip-path="url(#clip0_928_19498)">
<path d="M33.7561 0.0078125H71.5889C71.6149 0.102033 71.5415 0.150455 71.4871 0.203837C71.2223 0.463744 70.954 0.720151 70.6868 0.977725C68.3689 3.2145 66.0516 5.45226 63.7347 7.69098C63.5724 7.84792 63.405 7.91384 63.1756 7.91355C53.3752 7.90946 43.5747 7.90995 33.7743 7.91501C33.2267 7.91501 32.6773 7.9223 32.1297 7.94418C31.4271 7.97189 30.7229 7.99377 30.0224 8.0594C29.0049 8.15508 27.9952 8.29539 27.0179 8.60197C26.1288 8.88054 25.315 9.29797 24.5598 9.82712C23.9394 10.2615 23.3655 10.7477 22.807 11.2527C22.1861 11.8133 21.5696 12.3786 20.9575 12.9483C20.4208 13.4466 19.8841 13.9449 19.3474 14.4433C18.7781 14.9719 18.2095 15.5012 17.6418 16.0314C16.9818 16.6439 16.3269 17.2626 15.6684 17.8767C14.977 18.5213 14.2897 19.1701 13.5977 19.8139C13.2351 20.1511 12.8758 20.4914 12.52 20.8348C12.4382 20.9136 12.3405 20.9559 12.2414 21.0017H0.00220103C-0.00958488 20.9366 0.0278883 20.8908 0.0686857 20.8474C0.109483 20.8039 0.153302 20.7639 0.195913 20.7228C2.15117 18.8364 4.09433 16.9377 6.0653 15.0676C7.52343 13.6843 8.94952 12.2704 10.417 10.8962C11.3753 9.99952 12.2985 9.06928 13.2626 8.17929C13.9102 7.58101 14.5273 6.95414 15.1773 6.35819C16.2918 5.33869 17.4239 4.33756 18.6526 3.44466C20.0174 2.45287 21.4843 1.64077 23.1068 1.10841C24.2401 0.736487 25.406 0.495832 26.5903 0.333937C27.4026 0.223381 28.2186 0.148413 29.0382 0.0932815C29.5854 0.0562352 30.1327 0.046609 30.6806 0.0375662C30.9774 0.032899 31.2738 0.01423 31.5709 0.0229811H32.9734C33.2333 0.01423 33.4953 0.0401915 33.7561 0.0078125Z" fill="#AAAAAA"/>
<path d="M25.8992 21.0008H14.5061C14.481 20.8874 14.575 20.8354 14.6391 20.7733C15.4496 19.9886 16.2612 19.205 17.0739 18.4225C19.0886 16.4778 21.1048 14.5339 23.1225 12.5907C23.8176 11.9236 24.5429 11.2857 25.3588 10.7486C26.3389 10.1022 27.4186 9.69996 28.5794 9.48439C29.3059 9.35317 30.0398 9.26384 30.7773 9.2169C31.4446 9.17081 32.1128 9.15477 32.7803 9.12618C33.6464 9.08914 34.512 9.10606 35.3772 9.10576C44.16 9.10226 52.9427 9.10158 61.7253 9.10372C61.8109 9.09978 61.8966 9.10124 61.9819 9.1081C62.1176 9.12531 62.1427 9.18802 62.0605 9.29595C62.0355 9.32643 62.0081 9.35501 61.9786 9.38142C59.561 11.715 57.1433 14.0487 54.7257 16.3823C54.5909 16.513 54.4416 16.5433 54.2624 16.543C48.9034 16.5409 43.5451 16.5403 38.1876 16.5413C36.6416 16.5413 35.0955 16.5296 33.5494 16.5465C32.8266 16.5544 32.1037 16.6069 31.3938 16.765C30.6311 16.9351 29.9659 17.2822 29.3775 17.7734C28.4818 18.5219 27.6867 19.3699 26.839 20.1654C26.6154 20.3754 26.3957 20.5898 26.1772 20.8048C26.0959 20.8868 26.0104 20.9591 25.8992 21.0008Z" fill="#AAAAAA"/>
<path d="M65.244 20.9997H52.1611C52.1342 20.9432 52.1753 20.9079 52.2064 20.8717C52.2484 20.823 52.2971 20.7804 52.3433 20.7358C59.4378 13.8904 66.5322 7.04515 73.6265 0.199847C73.7051 0.124004 73.7825 0.048453 73.8879 0.00732286C78.2139 0.00732286 82.54 0.00800351 86.8664 0.00936479C86.9108 0.00936479 86.9691 -0.0244728 87.0023 0.0364932C86.9684 0.112473 86.9138 0.178184 86.8443 0.226684C86.7894 0.269302 86.7382 0.316127 86.6911 0.366701C84.1624 2.80573 81.6351 5.24514 79.1091 7.68495C78.686 8.09334 78.2587 8.49793 77.8356 8.9069C75.3114 11.3473 72.7849 13.7858 70.2561 16.2225C68.6645 17.7579 67.0737 19.2931 65.4837 20.8282C65.4164 20.9002 65.3349 20.9585 65.244 20.9997Z" fill="#AAAAAA"/>
<path d="M73.2812 20.9991C73.2812 20.1692 73.2843 19.3393 73.2812 18.5094C73.2812 18.4044 73.3012 18.3636 73.4191 18.3723C73.5544 18.384 73.6905 18.384 73.8258 18.3723C73.9355 18.3627 73.9718 18.4105 74.0035 18.4995C74.2199 19.103 74.4411 19.7051 74.6617 20.3081C74.6729 20.3372 74.6711 20.3772 74.7222 20.4037C74.8569 20.0269 74.9912 19.6512 75.125 19.2769C75.2196 19.0114 75.3148 18.7463 75.4054 18.4797C75.4302 18.4067 75.4598 18.3679 75.5508 18.3732C75.7061 18.3825 75.8624 18.3779 76.0183 18.3749C76.0787 18.3749 76.109 18.3869 76.109 18.454C76.1047 19.2982 76.1019 20.1423 76.1005 20.9863C76.0995 20.9911 76.0977 20.9957 76.0951 21H75.6418C75.6204 20.9794 75.6039 20.9546 75.5934 20.9272C75.583 20.8999 75.5789 20.8706 75.5813 20.8416C75.5801 20.347 75.5801 19.8527 75.5813 19.3586C75.5813 19.3151 75.6007 19.274 75.5989 19.2568C75.5269 19.5132 75.4121 19.7818 75.3121 20.0554C75.2214 20.3066 75.1244 20.5563 75.0343 20.808C75.0056 20.888 74.9721 20.9621 74.8863 21H74.4934C74.4442 20.9659 74.4067 20.9183 74.3858 20.8635C74.1942 20.3533 74.002 19.8425 73.8149 19.3314C73.7985 19.2766 73.7851 19.221 73.7748 19.1649C73.7949 19.247 73.8036 19.3314 73.8004 19.4157C73.8004 19.8717 73.8004 20.3276 73.8004 20.7832C73.8004 20.8605 73.8077 20.9405 73.74 21L73.2812 20.9991Z" fill="#AAAAAA"/>
<path d="M71.6489 21.0015C71.6444 20.9487 71.6359 20.8962 71.6359 20.8434C71.6359 20.1979 71.6332 19.5523 71.6377 18.9068C71.6377 18.8064 71.6117 18.7717 71.5041 18.7758C71.2983 18.784 71.0916 18.7758 70.8855 18.7796C70.8042 18.7813 70.7728 18.7635 70.771 18.6766C70.7653 18.3773 70.7613 18.3773 71.0696 18.3773C71.6583 18.3773 72.2482 18.38 72.8354 18.375C72.9417 18.375 72.9837 18.3902 72.9801 18.5066C72.9713 18.7778 72.9801 18.7781 72.6933 18.7781C72.5422 18.7781 72.3911 18.7843 72.24 18.7761C72.1351 18.7705 72.1043 18.8018 72.1049 18.9047C72.1098 19.5503 72.1076 20.1961 72.107 20.8416C72.107 20.8947 72.1034 20.9481 72.1016 21.0015H71.6489Z" fill="#AAAAAA"/>
<path d="M33.7561 0.0078125C33.6122 0.0696536 33.4605 0.0264815 33.3131 0.0352326C33.1982 0.0422335 33.0828 0.0352326 32.9677 0.0352326C32.9577 0.0282317 32.9547 0.022106 32.9589 0.0165636C32.9601 0.0144427 32.9618 0.0126223 32.9638 0.0112529C32.9658 0.00988341 32.9682 0.00900412 32.9707 0.00868761L33.7561 0.0078125Z" fill="#AAAAAA"/>
<path d="M32.3051 0.0326073H31.9727C31.9618 0.0264815 31.9585 0.0206474 31.9627 0.0153968C31.9639 0.0133449 31.9656 0.0115938 31.9677 0.0102787C31.9697 0.00896356 31.9721 0.00811976 31.9745 0.0078125H32.3069C32.3272 0.0180221 32.3266 0.0258981 32.3051 0.0326073Z" fill="#F68686"/>
<path d="M32.3047 0.0323156C32.3047 0.0241479 32.3047 0.0159802 32.3068 0.0078125H32.6392C32.6588 0.0180221 32.6582 0.0261898 32.6368 0.032899L32.3047 0.0323156Z" fill="#F45D5D"/>
<path d="M32.6367 0.032899C32.6367 0.0244396 32.6385 0.0162719 32.6391 0.0078125H32.9716C32.9716 0.0168553 32.9716 0.0256064 32.9685 0.0346492L32.6367 0.032899Z" fill="#F13C3C"/>
<path d="M31.9726 0.0078125C31.9726 0.0162719 31.9726 0.0244396 31.9708 0.0326073H31.7291C31.7179 0.0267732 31.7143 0.0212308 31.7185 0.0159802C31.7197 0.0138827 31.7214 0.0120946 31.7234 0.0107724C31.7255 0.00945021 31.7278 0.00863425 31.7303 0.00839591L31.9726 0.0078125Z" fill="#FABCBC"/>
<path d="M31.7321 0.0081042C31.7321 0.0162719 31.7321 0.0241479 31.7321 0.0323156H31.5508C31.5508 0.0241479 31.5508 0.0159802 31.5508 0.0078125L31.7321 0.0081042Z" fill="#FDE7E7"/>
</g>
<defs>
<clipPath id="clip0_928_19498">
<rect width="87" height="21" fill="white"/>
</clipPath>
</defs>
</svg>
