<svg width="136" height="143" viewBox="0 0 136 143" fill="none" xmlns="http://www.w3.org/2000/svg">
<path d="M9.42236 48.3906L40.045 68.8057L19.1587 102.392L0 91.1838L9.42236 48.3906Z" fill="white"/>
<path d="M38.9674 75.757L58.1265 73.8086L70.1415 79.6537L77.2856 75.1075L100.017 78.0301L115.604 108.555L107.161 112.776L96.1199 127.714L80.2081 137.78L68.1931 134.858L56.5028 139.729L42.5394 133.559L31.1739 127.714L29.2255 112.776L23.7051 99.4623L38.9674 75.757Z" fill="url(#paint0_linear_744_1175)"/>
<path d="M128.771 56.6328L96.5781 72.3367L114.304 106.935L135.053 98.2482L128.771 56.6328Z" fill="white"/>
<path d="M0.919098 92.8568L17.4136 104.774C18.2915 105.389 19.3833 105.615 20.4325 105.398C21.4867 105.18 22.4072 104.544 22.9832 103.634L24.1473 101.795L25.3202 106.604V106.605C26.1348 105.485 27.1712 104.545 28.365 103.843L29.1034 103.405L27.5662 97.098C27.5246 96.9396 27.4662 96.7881 27.4108 96.6357L39.0186 78.2884C40.3737 79.104 42.0127 79.302 43.5232 78.8328L54.9358 75.1743C56.6433 74.6467 58.4973 74.9021 59.9987 75.8721L80.1405 88.5586C81.0611 89.1139 81.3926 90.2898 80.8967 91.2451L72.3604 105.609V105.608C71.7992 106.563 70.8885 107.261 69.8206 107.555C68.7526 107.849 67.6123 107.716 66.6413 107.183C65.497 106.568 64.6557 105.509 64.3142 104.255C63.9905 103.135 64.141 101.931 64.7289 100.924L68.8476 93.9956C69.4623 92.9622 69.1406 91.627 68.123 90.9866L61.7496 86.9718V86.9728C61.2438 86.654 60.6301 86.5531 60.0491 86.6936C59.4681 86.8332 58.9683 87.2024 58.6624 87.7161L55.5058 93.0296C55.1723 93.5918 54.6249 93.9936 53.9894 94.1431C53.2619 94.3114 52.4978 94.1758 51.8722 93.7679L46.916 90.6461C45.8797 89.9938 44.5117 90.3056 43.8586 91.341C43.2063 92.3763 43.5161 93.7453 44.5515 94.3984L49.5084 97.5203C51.1445 98.5685 53.138 98.906 55.0276 98.4537C56.8271 98.028 58.3762 96.8878 59.3175 95.2951L61.313 91.9366L63.9331 93.5866L60.9182 98.6586L60.9172 98.6596C59.7097 100.699 59.3919 103.144 60.0373 105.426C60.7064 107.835 62.3208 109.872 64.5143 111.074C66.4919 112.162 68.8161 112.437 70.9936 111.839C73.1702 111.241 75.0291 109.818 76.1732 107.872L84.7096 93.5084L84.7106 93.5094C85.539 92.0544 85.7717 90.3352 85.3599 88.7127C84.9481 87.0904 83.9246 85.6897 82.5024 84.8058L62.3615 72.1204C59.7533 70.4485 56.5375 70.02 53.5819 70.9514L42.1702 74.6099C41.9109 74.6841 41.6328 74.6574 41.3932 74.5347L42.8681 72.2027V72.2036C43.4293 71.3237 43.6273 70.2596 43.4194 69.2372C43.2115 68.2147 42.6147 67.3119 41.7555 66.721L12.9699 47.0492C11.9592 46.3603 10.5804 46.6206 9.8906 47.6302C9.19969 48.6409 9.45806 50.0197 10.4667 50.7115L38.9178 70.1538L19.5154 100.822L3.51478 89.262C3.03868 88.9175 2.44477 88.777 1.86376 88.87C1.28371 88.9641 0.764077 89.2848 0.419612 89.7609C-0.297014 90.7537 -0.0733161 92.1394 0.919485 92.8561L0.919098 92.8568Z" fill="white"/>
<path d="M18.9038 94.178C19.0285 95.1599 18.3544 96.0537 17.3992 96.1745C16.4441 96.2953 15.569 95.5974 15.4443 94.6165C15.3206 93.6346 15.9937 92.7408 16.9489 92.6191C17.9041 92.4983 18.7801 93.1961 18.9038 94.178Z" fill="white"/>
<path d="M113.312 98.3079C113.046 99.2482 113.587 100.228 114.524 100.503C114.977 100.623 115.459 100.558 115.862 100.321C116.266 100.084 116.558 99.6956 116.673 99.2423C116.94 98.302 116.398 97.3221 115.461 97.0469C115.008 96.9271 114.527 96.9924 114.124 97.229C113.72 97.4656 113.428 97.8546 113.312 98.3079Z" fill="white"/>
<path d="M105.697 118.267L106.475 117.191V117.19C107.543 115.708 107.995 113.869 107.735 112.059C107.476 110.251 106.527 108.612 105.086 107.488L95.1981 99.9199C93.7579 98.8073 91.9258 98.3293 90.1251 98.5955C88.3049 98.8618 86.6706 99.8575 85.5998 101.354L84.8218 102.43H84.8208C83.829 103.807 83.3687 105.497 83.5261 107.187C83.4558 107.195 83.3855 107.197 83.3153 107.207C81.4455 107.479 79.7667 108.502 78.667 110.039L77.9731 110.996C77.2684 111.972 76.82 113.11 76.6705 114.305C75.4332 114.139 74.1751 114.314 73.031 114.811C71.8868 115.309 70.8999 116.109 70.1762 117.125L69.5546 117.981C68.5767 119.338 68.1045 120.994 68.2194 122.663C68.1382 122.671 68.058 122.662 67.9769 122.674H67.9779C66.3674 122.909 64.9222 123.788 63.975 125.11L63.8235 125.319C62.8822 126.63 62.4843 128.254 62.7139 129.85C62.9436 131.448 63.782 132.894 65.0539 133.886L74.0443 140.767C75.0807 141.568 76.3526 142.003 77.6621 142.004C77.9541 142.004 78.2461 141.982 78.5351 141.94C80.1475 141.705 81.5946 140.823 82.5428 139.497L82.6893 139.294V139.295C83.1585 138.645 83.496 137.911 83.6831 137.132C84.3759 137.364 85.1015 137.483 85.833 137.484C86.1685 137.484 86.5051 137.459 86.8376 137.411C88.6945 137.14 90.3613 136.124 91.4542 134.598L92.0709 133.743C92.7737 132.771 93.2191 131.638 93.3666 130.448C93.6467 130.489 93.9288 130.513 94.2109 130.517C96.4558 130.519 98.5642 129.438 99.8707 127.612L100.562 126.657C101.756 124.996 102.193 122.908 101.764 120.907C103.35 120.529 104.747 119.592 105.697 118.267L105.697 118.267ZM79.0959 136.698L78.9504 136.899H78.9514C78.7019 137.251 78.3208 137.487 77.8942 137.552C77.4844 137.611 77.0677 137.5 76.7411 137.246L67.7514 130.365C67.013 129.767 66.8655 128.698 67.4148 127.923L67.5653 127.715C67.8137 127.363 68.1958 127.127 68.6215 127.062C69.0312 127.002 69.447 127.112 69.7736 127.367L78.7651 134.25C79.5045 134.85 79.6502 135.922 79.0959 136.698ZM88.4804 131.143L87.8617 131.998C87.4697 132.551 86.8679 132.921 86.1968 133.022C85.5455 133.117 84.8833 132.943 84.3627 132.539L73.6717 124.355C72.5126 123.442 72.281 121.777 73.1471 120.582L73.7687 119.726C74.1617 119.172 74.7625 118.802 75.4336 118.701C76.0849 118.605 76.7471 118.779 77.2668 119.184L78.51 120.135C78.7831 120.436 79.0821 120.712 79.4038 120.961L88.4586 127.892C89.1712 128.855 89.1802 130.17 88.4804 131.143ZM96.9721 124.056L96.2802 125.012C95.8804 125.576 95.2676 125.953 94.5827 126.056C93.9185 126.153 93.2425 125.976 92.7119 125.563L91.5429 124.668L91.5439 124.669C91.2717 124.37 90.9738 124.095 90.6541 123.848L81.5922 116.911C80.8647 115.929 80.8538 114.59 81.5655 113.597L82.2593 112.64C82.6602 112.075 83.2729 111.698 83.9579 111.595C84.622 111.498 85.2971 111.676 85.8266 112.087L96.4396 120.211C97.6214 121.141 97.856 122.839 96.9721 124.056ZM102.885 114.589L102.106 115.666C101.734 116.19 101.165 116.542 100.529 116.638C99.9129 116.727 99.2873 116.562 98.7954 116.18L88.9079 108.612C87.8083 107.745 87.5895 106.165 88.413 105.032L89.193 103.955V103.954C89.5642 103.43 90.1343 103.079 90.7698 102.983C91.3855 102.894 92.012 103.059 92.503 103.441L102.39 111.009H102.391C103.49 111.876 103.709 113.457 102.885 114.589Z" fill="white"/>
<path d="M18.5538 45.4914C20.0564 37.2571 23.6139 29.5344 28.8964 23.0411C32.8309 25.1891 36.9832 26.9105 41.2841 28.1764C39.0273 35.9901 37.8227 44.0711 37.7039 52.2033H28.3749L34.8641 56.6378H37.7267C37.7445 57.3 37.7455 57.9651 37.7742 58.6263L42.4065 61.7917C42.2739 60.0863 42.1997 58.3651 42.1561 56.6377H65.4071V68.4928L69.8415 71.2733V56.6377H93.1014C93.0193 60.209 92.7332 63.7723 92.2452 67.3119C93.0895 66.0232 94.2714 64.9908 95.662 64.3277L97.1368 63.6131C97.3496 61.3137 97.4645 58.9828 97.5209 56.6389L111.517 56.6379L120.414 52.3223L121.874 51.6146H121.873C121.194 38.4738 115.768 26.0268 106.602 16.5827C97.4375 7.14073 85.1557 1.34635 72.0417 0.277276C58.9255 -0.791746 45.8685 2.93691 35.2944 10.7704C24.721 18.6028 17.351 30.0086 14.5527 42.8654C14.8724 43.0138 15.1803 43.187 15.4733 43.384L18.5538 45.4914ZM42.1383 52.2033C42.2868 44.469 43.4795 36.7888 45.6858 29.374C52.1525 30.8983 58.7633 31.7327 65.4071 31.8624V52.2032L42.1383 52.2033ZM88.1295 25.161C82.1271 26.5428 75.9982 27.303 69.8405 27.4297V4.74402C77.2464 6.0595 83.8573 13.8703 88.1295 25.161ZM65.406 4.744V27.4297C59.2483 27.303 53.1194 26.5428 47.117 25.161C51.389 13.87 58.0001 6.05937 65.406 4.744ZM69.8405 31.8623C76.4842 31.7327 83.0953 30.8982 89.5617 29.3739C91.768 36.7887 92.9607 44.4686 93.1092 52.2033H69.8405V31.8623ZM97.5441 52.2031C97.4254 44.0706 96.2217 35.9899 93.9639 28.1762C98.2648 26.9102 102.418 25.1879 106.354 23.0399C113.084 31.3178 116.97 41.5435 117.434 52.2031H97.5441ZM103.329 19.6418H103.33C99.8921 21.4314 96.289 22.8825 92.5702 23.9744C89.9263 16.7765 86.3532 10.8445 82.1364 6.6921C90.1787 9.15479 97.4689 13.609 103.329 19.6418ZM53.1007 6.70299C48.889 10.8544 45.3187 16.7823 42.6778 23.9744C38.959 22.8826 35.3552 21.4316 31.9174 19.6418C37.7761 13.6138 45.0622 9.16346 53.1007 6.70299Z" fill="white"/>
<path d="M28.2578 127.601L29.1912 129.29C29.2219 129.345 29.2536 129.398 29.2882 129.45C31.4144 132.627 34.0761 133.354 37.4265 131.674C37.5671 132.243 37.7828 132.791 38.0669 133.303L39.0013 134.993C39.812 136.492 41.1898 137.601 42.8261 138.074C44.2287 138.472 45.7322 138.282 46.9904 137.547L49.2788 136.203C49.3808 136.509 49.5114 136.805 49.6678 137.087L50.4597 138.52H50.4587C51.1624 139.797 52.3562 140.731 53.7647 141.109C54.2468 141.241 54.7447 141.307 55.2445 141.306C56.2947 141.304 57.3251 141.023 58.2298 140.49L62.8484 137.778L62.3614 137.405H62.3604C61.3092 136.598 60.4223 135.598 59.7474 134.457L55.985 136.667C55.6722 136.862 55.2931 136.921 54.9358 136.833C54.6834 136.768 54.4676 136.602 54.3399 136.375L53.548 134.943H53.549C53.3075 134.284 53.6213 133.553 54.2647 133.275L58.4072 130.842C58.0825 129.044 58.2201 127.193 58.808 125.464L44.7446 133.723H44.7456C44.5179 133.851 44.2477 133.877 43.9993 133.798C43.5163 133.642 43.1144 133.3 42.8828 132.849L41.9474 131.158V131.157C41.4535 130.447 41.5663 129.48 42.2107 128.902L44.6209 127.485C49.6452 124.543 56.1722 120.71 60.3028 118.275L64.369 115.886V115.887C64.4779 115.821 64.5808 115.747 64.6768 115.664C64.0007 115.434 63.3455 115.15 62.716 114.814C61.8518 114.34 61.0422 113.775 60.3008 113.126C59.2833 113.727 57.853 114.57 56.1644 115.563L44.734 122.277C39.8719 125.128 35.7889 127.518 35.4544 127.702C34.1389 128.37 33.8687 128.309 33.0274 127.062L32.1395 125.457V125.456C31.6466 124.766 31.7396 123.818 32.3573 123.236L56.9632 108.782C56.595 108.037 56.296 107.26 56.0714 106.459C55.8873 105.783 55.7546 105.093 55.6754 104.396L35.394 116.309C35.0881 116.485 34.7248 116.53 34.3853 116.433C33.928 116.294 33.545 115.979 33.3213 115.557L32.3859 113.866C31.8949 113.069 32.1048 112.028 32.8659 111.483L48.9623 101.946L48.9613 101.947C48.4387 101.718 47.9329 101.453 47.4479 101.153L44.6081 99.3711L30.6131 107.663V107.664C29.2511 108.513 28.2712 109.857 27.8782 111.413C27.4852 112.969 27.7109 114.618 28.5058 116.012L29.4412 117.703C29.7371 118.238 30.1093 118.728 30.5448 119.158L30.1123 119.412H30.1113C28.8067 120.275 27.8852 121.609 27.5406 123.135C27.1951 124.66 27.4515 126.261 28.2582 127.601L28.2578 127.601Z" fill="white"/>
<path d="M95.5901 73.4594C94.6349 73.1268 93.657 72.8645 92.6631 72.6734C87.8428 71.7925 82.8699 72.3349 78.3522 74.2334L75.9023 75.0728L80.7168 78.0917C84.2535 76.7307 88.096 76.3625 91.8277 77.0276C93.8074 77.3701 95.692 78.1273 97.3588 79.2488C97.7518 79.5358 98.1239 79.8506 98.4733 80.1901L105.479 96.4806C105.474 96.7142 105.507 96.9478 105.575 97.1715C106.163 98.9473 106.347 100.832 106.115 102.688L107.784 103.965H107.783C108.522 104.539 109.186 105.203 109.758 105.943C110.58 106.979 111.214 108.149 111.634 109.401C112.297 109.924 113.119 110.205 113.962 110.199C114.56 110.197 115.149 110.06 115.687 109.801L134.015 100.767V100.766C135.113 100.224 135.564 98.8951 135.022 97.7964C134.481 96.6977 133.152 96.2473 132.053 96.7887L114.219 105.58L99.8449 72.1575L127.452 58.7681C127.982 58.5127 128.389 58.0564 128.583 57.5001C128.776 56.9438 128.74 56.3341 128.483 55.8036C128.226 55.274 127.769 54.8682 127.212 54.6762C126.655 54.4841 126.046 54.5208 125.516 54.7791L97.5743 68.3307C96.6528 68.7721 95.9342 69.5481 95.565 70.5013C95.1968 71.4545 95.2057 72.5127 95.5897 73.46L95.5901 73.4594Z" fill="white"/>
<defs>
<linearGradient id="paint0_linear_744_1175" x1="67.4767" y1="113.014" x2="67.4767" y2="139.729" gradientUnits="userSpaceOnUse">
<stop stop-color="#8CEC62"/>
<stop offset="1" stop-color="#1F201F"/>
</linearGradient>
</defs>
</svg>
