<svg width="1440" height="2047" viewBox="0 0 1440 2047" fill="none" xmlns="http://www.w3.org/2000/svg">
<g opacity="0.7" filter="url(#filter0_f_742_738)">
<mask id="mask0_742_738" style="mask-type:alpha" maskUnits="userSpaceOnUse" x="-10" y="-937" width="3356" height="1679">
<path d="M1305.13 95.924C1899.51 -121.145 2049.05 369.181 1987.51 741.591L3345.54 -26.3263L744.322 -936.905C262.596 -459.574 -65.215 248.413 -1.4581 220.576C78.2377 185.78 710.763 312.993 1305.13 95.924Z" fill="#C4C4C4"/>
</mask>
<g mask="url(#mask0_742_738)">
<mask id="mask1_742_738" style="mask-type:alpha" maskUnits="userSpaceOnUse" x="-1138" y="-630" width="5049" height="2620">
<path d="M3910.59 -108.972L2051.89 1989.77L-1137.81 800.753C-851.756 324.653 -273.361 -628.026 -248.217 -629.941C-223.073 -631.856 2534.8 -283.426 3910.59 -108.972Z" fill="url(#paint0_linear_742_738)"/>
</mask>
<g mask="url(#mask1_742_738)">
<path d="M1756.36 -74.2997C1487.36 -152.677 1091.47 1.18734 939.303 198.208C787.136 395.229 696.333 685.511 984.939 769.604C1127.96 811.275 1199.89 993.576 1445.58 944.974C1695.69 895.498 1863.9 615.326 1940.66 515.938C2092.83 318.917 2025.35 4.07768 1756.36 -74.2997Z" fill="#97FC6B"/>
<g filter="url(#filter1_f_742_738)">
<path d="M1754.54 -70.7209C1445.45 -160.781 1035.84 18.7033 866.931 237.399C698.023 456.096 592.979 777.074 902.07 867.135C1055.24 911.764 1123.91 1117.83 1390 1061.95C1660.87 1005.06 1849.12 694.516 1934.33 584.195C2103.23 365.498 2063.63 19.3397 1754.54 -70.7209Z" fill="#97FC6B"/>
</g>
<g filter="url(#filter2_f_742_738)">
<path d="M1719.08 -40.581C1648.61 -166.966 912.145 7.92576 751.834 215.492C591.522 423.058 519.271 735.699 885.378 842.372C1066.8 895.234 1160.82 1122.91 1456.19 1082.35C1756.88 1041.06 1939.19 725.871 2020.06 621.164C2180.37 413.597 2005.45 -85.0917 1719.08 -40.581Z" fill="#97FC6B"/>
</g>
<g filter="url(#filter3_f_742_738)">
<path d="M1620.56 31.5272C1183.8 -36.1769 654.596 124.526 475.448 356.481C296.299 588.437 305.249 898.231 693.03 1011.22C885.195 1067.21 936.973 1392 1254.49 1343.01C1577.72 1293.14 1769.21 961.387 1859.58 844.377C2038.73 612.422 2126.51 109.959 1620.56 31.5272Z" fill="#97FC6B"/>
</g>
<g filter="url(#filter4_f_742_738)">
<path d="M1403.21 -25.7422C1055.53 -4.83725 220.251 115.533 35.7266 354.448C-148.798 593.363 778.471 1052.75 1196.01 1174.41C1402.92 1234.7 1583.73 1399.08 1921.45 1351.74C2265.23 1303.54 2214.66 923.304 2196.55 599.899C2172.49 170.44 1821.56 -133.809 1403.21 -25.7422Z" fill="#97FC6B"/>
</g>
<g filter="url(#filter5_f_742_738)">
<path d="M1624.24 116.838C1192.75 -8.88617 -24.495 251.181 -213.227 495.544C-401.958 739.908 330.91 1081.31 762.399 1207.03C976.222 1269.33 1398.31 1631.58 1746.34 1583.91C2100.62 1535.39 2100.9 1306.59 2196.11 1183.32C2384.84 938.956 2055.73 242.562 1624.24 116.838Z" fill="#97FC6B"/>
</g>
<g filter="url(#filter6_f_742_738)">
<path d="M1624.24 116.838C1192.75 -8.88617 -24.495 251.181 -213.227 495.544C-401.958 739.908 330.91 1081.31 762.399 1207.03C976.222 1269.33 1398.31 1631.58 1746.34 1583.91C2100.62 1535.39 2100.9 1306.59 2196.11 1183.32C2384.84 938.956 2055.73 242.562 1624.24 116.838Z" fill="#97FC6B"/>
</g>
<g filter="url(#filter7_f_742_738)">
<path d="M1624.24 116.838C1192.75 -8.88617 -24.495 251.181 -213.227 495.544C-401.958 739.908 330.91 1081.31 762.399 1207.03C976.222 1269.33 1398.31 1631.58 1746.34 1583.91C2100.62 1535.39 2100.9 1306.59 2196.11 1183.32C2384.84 938.956 2055.73 242.562 1624.24 116.838Z" fill="#97FC6B"/>
</g>
<g filter="url(#filter8_f_742_738)">
<path d="M1624.24 116.838C1192.75 -8.88617 -24.495 251.181 -213.227 495.544C-401.958 739.908 330.91 1081.31 762.399 1207.03C976.222 1269.33 1398.31 1631.58 1746.34 1583.91C2100.62 1535.39 2100.9 1306.59 2196.11 1183.32C2384.84 938.956 2055.73 242.562 1624.24 116.838Z" fill="#97FC6B"/>
</g>
<g filter="url(#filter9_f_742_738)">
<path d="M1746.85 -72.9599C1369.3 -182.969 795.558 44.3426 606.827 288.706C418.095 533.069 411.341 854.719 788.893 964.728C975.989 1019.24 1222.55 1165.34 1538.82 1108.42C1860.77 1050.48 1982.29 757.745 2077.49 634.476C2266.22 390.113 2124.4 37.0488 1746.85 -72.9599Z" fill="#97FC6B"/>
</g>
</g>
</g>
<mask id="mask2_742_738" style="mask-type:alpha" maskUnits="userSpaceOnUse" x="-1485" y="20" width="4088" height="1892">
<path d="M259.423 774.66C399.959 1057.37 2106.61 902.118 2602.06 681.602L1117.12 1911.42L-1484.1 1000.84C-1052.52 505.95 -217.097 -24.3416 -224.253 23.3088C-233.198 82.872 118.887 491.945 259.423 774.66Z" fill="#C4C4C4"/>
</mask>
<g mask="url(#mask2_742_738)">
<mask id="mask3_742_738" style="mask-type:alpha" maskUnits="userSpaceOnUse" x="-946" y="-584" width="3767" height="2023">
<path d="M-304.979 -583.983L2332 218.38L2820.83 1136.47L-24.8253 1438.09L-945.381 674.32L-304.979 -583.983Z" fill="black"/>
</mask>
<g mask="url(#mask3_742_738)">
<mask id="mask4_742_738" style="mask-type:alpha" maskUnits="userSpaceOnUse" x="-1717" y="-831" width="4867" height="3120">
<path d="M1121.09 2288.7L3149.65 249.409L-142.465 -830.584C-671.127 -439.41 -1725.95 346.491 -1715.96 360.705C-1705.97 374.92 179.573 1651.96 1121.09 2288.7Z" fill="url(#paint1_linear_742_738)"/>
</mask>
<g mask="url(#mask4_742_738)">
<mask id="mask5_742_738" style="mask-type:alpha" maskUnits="userSpaceOnUse" x="-1916" y="-676" width="4603" height="2603">
<path d="M2686.82 624.992C2057.23 1184.03 1253.92 1897.11 1225.94 1926.35L-1915.6 625.584L-454.722 -675.773L2686.82 624.992Z" fill="url(#paint2_linear_742_738)"/>
</mask>
<g mask="url(#mask5_742_738)">
<path d="M81.9679 1136.19C-164.706 1034.05 -147.116 747.761 54.5888 568.081C256.294 388.401 620.85 193.948 885.51 303.532C1016.66 357.836 1310.74 303.659 1366.11 457.654C1422.48 614.415 1111.32 844.542 1009.57 935.182C807.86 1114.86 328.642 1238.33 81.9679 1136.19Z" fill="url(#paint3_linear_742_738)"/>
<g filter="url(#filter10_f_742_738)">
<path d="M86.1735 1133.45C-197.271 1016.09 -150.386 709.63 73.5093 510.182C297.405 310.735 698.169 93.2756 981.613 210.637C1122.07 268.795 1448.11 200.897 1503.49 369.315C1559.87 540.757 1215.88 796.785 1102.93 897.397C879.039 1096.84 369.618 1250.81 86.1735 1133.45Z" fill="url(#paint4_linear_742_738)"/>
</g>
<g filter="url(#filter11_f_742_738)">
<path d="M110.889 1099.53C-103.394 1126.24 -228.086 649.891 -15.5852 460.594C196.916 271.297 602.454 75.3265 938.184 214.337C1104.55 283.223 1473.93 217.766 1565.77 393.875C1659.27 573.147 1305.71 828.392 1198.52 923.883C986.016 1113.18 192.594 1272.89 110.889 1099.53Z" fill="url(#paint5_linear_742_738)"/>
</g>
<g filter="url(#filter12_f_742_738)">
<path d="M163.007 1011.2C-153.308 815.288 -193.382 455.304 44.088 243.764C281.558 32.2247 724.084 -119.527 1079.69 27.7135C1255.91 100.678 1741.26 -36.0798 1832.37 155.951C1925.12 351.431 1552.78 619.879 1432.98 726.59C1195.51 938.13 529.439 1238.16 163.007 1011.2Z" fill="url(#paint6_linear_742_738)"/>
</g>
<g filter="url(#filter13_f_742_738)">
<path d="M-27.6936 925.63C-173.739 731.892 -425.426 231.019 -180.831 13.1323C63.7645 -204.755 1181.61 51.7643 1564.51 210.303C1754.25 288.867 2077.98 301.105 2181.61 502.948C2287.1 708.418 1723.96 873.82 1257.56 1027.62C638.219 1231.85 30.8083 1200.62 -27.6936 925.63Z" fill="url(#paint7_linear_742_738)"/>
</g>
<g filter="url(#filter14_f_742_738)">
<path d="M285.52 970.059C-110.167 806.223 -357.259 33.5525 -107.086 -189.303C143.086 -412.158 995.922 -198.466 1391.61 -34.6307C1587.69 46.5578 2313.04 85.9822 2421.42 293.418C2531.75 504.58 2208.4 620.291 2082.2 732.711C1832.03 955.566 681.207 1133.89 285.52 970.059Z" fill="url(#paint8_linear_742_738)"/>
</g>
<g filter="url(#filter15_f_742_738)">
<path d="M285.52 970.059C-110.167 806.223 -357.259 33.5525 -107.086 -189.303C143.086 -412.158 995.922 -198.466 1391.61 -34.6307C1587.69 46.5578 2313.04 85.9822 2421.42 293.418C2531.75 504.58 2208.4 620.291 2082.2 732.711C1832.03 955.566 681.207 1133.89 285.52 970.059Z" fill="url(#paint9_linear_742_738)"/>
</g>
<g filter="url(#filter16_f_742_738)">
<path d="M285.52 970.059C-110.167 806.223 -357.259 33.5525 -107.086 -189.303C143.086 -412.158 995.922 -198.466 1391.61 -34.6307C1587.69 46.5578 2313.04 85.9822 2421.42 293.418C2531.75 504.58 2208.4 620.291 2082.2 732.711C1832.03 955.566 681.207 1133.89 285.52 970.059Z" fill="url(#paint10_linear_742_738)"/>
</g>
<g filter="url(#filter17_f_742_738)">
<path d="M285.52 970.059C-110.167 806.223 -357.259 33.5525 -107.086 -189.303C143.086 -412.158 995.922 -198.466 1391.61 -34.6307C1587.69 46.5578 2313.04 85.9822 2421.42 293.418C2531.75 504.58 2208.4 620.291 2082.2 732.711C1832.03 955.566 681.207 1133.89 285.52 970.059Z" fill="url(#paint11_linear_742_738)"/>
</g>
<g filter="url(#filter18_f_742_738)">
<path d="M79.1184 1130.53C-267.108 987.172 -235.498 570.084 14.6743 347.229C264.847 124.374 716.203 -41.6398 1062.43 101.716C1234 172.756 1565.09 228.874 1644.35 424.253C1725.04 623.141 1372.53 835.009 1246.33 947.429C996.156 1170.28 425.344 1273.88 79.1184 1130.53Z" fill="url(#paint12_linear_742_738)"/>
</g>
</g>
</g>
</g>
</g>
</g>
<defs>
<filter id="filter0_f_742_738" x="-383.225" y="-201.449" width="2927.22" height="1497.93" filterUnits="userSpaceOnUse" color-interpolation-filters="sRGB">
<feFlood flood-opacity="0" result="BackgroundImageFix"/>
<feBlend mode="normal" in="SourceGraphic" in2="BackgroundImageFix" result="shape"/>
<feGaussianBlur stdDeviation="50" result="effect1_foregroundBlur_742_738"/>
</filter>
<filter id="filter1_f_742_738" x="699.934" y="-98.8705" width="1337.66" height="1174.73" filterUnits="userSpaceOnUse" color-interpolation-filters="sRGB">
<feFlood flood-opacity="0" result="BackgroundImageFix"/>
<feBlend mode="normal" in="SourceGraphic" in2="BackgroundImageFix" result="shape"/>
<feGaussianBlur stdDeviation="2.18718" result="effect1_foregroundBlur_742_738"/>
</filter>
<filter id="filter2_f_742_738" x="605.211" y="-98.5642" width="1491.16" height="1201.03" filterUnits="userSpaceOnUse" color-interpolation-filters="sRGB">
<feFlood flood-opacity="0" result="BackgroundImageFix"/>
<feBlend mode="normal" in="SourceGraphic" in2="BackgroundImageFix" result="shape"/>
<feGaussianBlur stdDeviation="7.65514" result="effect1_foregroundBlur_742_738"/>
</filter>
<filter id="filter3_f_742_738" x="341.081" y="-5.94996" width="1680.99" height="1375.85" filterUnits="userSpaceOnUse" color-interpolation-filters="sRGB">
<feFlood flood-opacity="0" result="BackgroundImageFix"/>
<feBlend mode="normal" in="SourceGraphic" in2="BackgroundImageFix" result="shape"/>
<feGaussianBlur stdDeviation="10.9359" result="effect1_foregroundBlur_742_738"/>
</filter>
<filter id="filter4_f_742_738" x="-47.3196" y="-106.734" width="2316.47" height="1525.97" filterUnits="userSpaceOnUse" color-interpolation-filters="sRGB">
<feFlood flood-opacity="0" result="BackgroundImageFix"/>
<feBlend mode="normal" in="SourceGraphic" in2="BackgroundImageFix" result="shape"/>
<feGaussianBlur stdDeviation="29.527" result="effect1_foregroundBlur_742_738"/>
</filter>
<filter id="filter5_f_742_738" x="-409.428" y="-81.6404" width="2825.71" height="1835.61" filterUnits="userSpaceOnUse" color-interpolation-filters="sRGB">
<feFlood flood-opacity="0" result="BackgroundImageFix"/>
<feBlend mode="normal" in="SourceGraphic" in2="BackgroundImageFix" result="shape"/>
<feGaussianBlur stdDeviation="82.873" result="effect1_foregroundBlur_742_738"/>
</filter>
<filter id="filter6_f_742_738" x="-409.428" y="-81.6404" width="2825.71" height="1835.61" filterUnits="userSpaceOnUse" color-interpolation-filters="sRGB">
<feFlood flood-opacity="0" result="BackgroundImageFix"/>
<feBlend mode="normal" in="SourceGraphic" in2="BackgroundImageFix" result="shape"/>
<feGaussianBlur stdDeviation="82.873" result="effect1_foregroundBlur_742_738"/>
</filter>
<filter id="filter7_f_742_738" x="-409.428" y="-81.6404" width="2825.71" height="1835.61" filterUnits="userSpaceOnUse" color-interpolation-filters="sRGB">
<feFlood flood-opacity="0" result="BackgroundImageFix"/>
<feBlend mode="normal" in="SourceGraphic" in2="BackgroundImageFix" result="shape"/>
<feGaussianBlur stdDeviation="82.873" result="effect1_foregroundBlur_742_738"/>
</filter>
<filter id="filter8_f_742_738" x="-409.428" y="-81.6404" width="2825.71" height="1835.61" filterUnits="userSpaceOnUse" color-interpolation-filters="sRGB">
<feFlood flood-opacity="0" result="BackgroundImageFix"/>
<feBlend mode="normal" in="SourceGraphic" in2="BackgroundImageFix" result="shape"/>
<feGaussianBlur stdDeviation="82.873" result="effect1_foregroundBlur_742_738"/>
</filter>
<filter id="filter9_f_742_738" x="412.514" y="-169.252" width="1815.95" height="1358.41" filterUnits="userSpaceOnUse" color-interpolation-filters="sRGB">
<feFlood flood-opacity="0" result="BackgroundImageFix"/>
<feBlend mode="normal" in="SourceGraphic" in2="BackgroundImageFix" result="shape"/>
<feGaussianBlur stdDeviation="33.9013" result="effect1_foregroundBlur_742_738"/>
</filter>
<filter id="filter10_f_742_738" x="-115.001" y="173.184" width="1629.07" height="1005.38" filterUnits="userSpaceOnUse" color-interpolation-filters="sRGB">
<feFlood flood-opacity="0" result="BackgroundImageFix"/>
<feBlend mode="normal" in="SourceGraphic" in2="BackgroundImageFix" result="shape"/>
<feGaussianBlur stdDeviation="2.18718" result="effect1_foregroundBlur_742_738"/>
</filter>
<filter id="filter11_f_742_738" x="-140.857" y="152.088" width="1737.52" height="1037.05" filterUnits="userSpaceOnUse" color-interpolation-filters="sRGB">
<feFlood flood-opacity="0" result="BackgroundImageFix"/>
<feBlend mode="normal" in="SourceGraphic" in2="BackgroundImageFix" result="shape"/>
<feGaussianBlur stdDeviation="7.65514" result="effect1_foregroundBlur_742_738"/>
</filter>
<filter id="filter12_f_742_738" x="-130.272" y="-52.7742" width="1999.19" height="1166.88" filterUnits="userSpaceOnUse" color-interpolation-filters="sRGB">
<feFlood flood-opacity="0" result="BackgroundImageFix"/>
<feBlend mode="normal" in="SourceGraphic" in2="BackgroundImageFix" result="shape"/>
<feGaussianBlur stdDeviation="10.9359" result="effect1_foregroundBlur_742_738"/>
</filter>
<filter id="filter13_f_742_738" x="-342.279" y="-129.952" width="2595.83" height="1348.81" filterUnits="userSpaceOnUse" color-interpolation-filters="sRGB">
<feFlood flood-opacity="0" result="BackgroundImageFix"/>
<feBlend mode="normal" in="SourceGraphic" in2="BackgroundImageFix" result="shape"/>
<feGaussianBlur stdDeviation="29.527" result="effect1_foregroundBlur_742_738"/>
</filter>
<filter id="filter14_f_742_738" x="-373.676" y="-450.941" width="2983.42" height="1650.48" filterUnits="userSpaceOnUse" color-interpolation-filters="sRGB">
<feFlood flood-opacity="0" result="BackgroundImageFix"/>
<feBlend mode="normal" in="SourceGraphic" in2="BackgroundImageFix" result="shape"/>
<feGaussianBlur stdDeviation="82.873" result="effect1_foregroundBlur_742_738"/>
</filter>
<filter id="filter15_f_742_738" x="-373.676" y="-450.941" width="2983.42" height="1650.48" filterUnits="userSpaceOnUse" color-interpolation-filters="sRGB">
<feFlood flood-opacity="0" result="BackgroundImageFix"/>
<feBlend mode="normal" in="SourceGraphic" in2="BackgroundImageFix" result="shape"/>
<feGaussianBlur stdDeviation="82.873" result="effect1_foregroundBlur_742_738"/>
</filter>
<filter id="filter16_f_742_738" x="-373.676" y="-450.941" width="2983.42" height="1650.48" filterUnits="userSpaceOnUse" color-interpolation-filters="sRGB">
<feFlood flood-opacity="0" result="BackgroundImageFix"/>
<feBlend mode="normal" in="SourceGraphic" in2="BackgroundImageFix" result="shape"/>
<feGaussianBlur stdDeviation="82.873" result="effect1_foregroundBlur_742_738"/>
</filter>
<filter id="filter17_f_742_738" x="-373.676" y="-450.941" width="2983.42" height="1650.48" filterUnits="userSpaceOnUse" color-interpolation-filters="sRGB">
<feFlood flood-opacity="0" result="BackgroundImageFix"/>
<feBlend mode="normal" in="SourceGraphic" in2="BackgroundImageFix" result="shape"/>
<feGaussianBlur stdDeviation="82.873" result="effect1_foregroundBlur_742_738"/>
</filter>
<filter id="filter18_f_742_738" x="-244.727" y="-19.6035" width="1968.75" height="1283.89" filterUnits="userSpaceOnUse" color-interpolation-filters="sRGB">
<feFlood flood-opacity="0" result="BackgroundImageFix"/>
<feBlend mode="normal" in="SourceGraphic" in2="BackgroundImageFix" result="shape"/>
<feGaussianBlur stdDeviation="33.9013" result="effect1_foregroundBlur_742_738"/>
</filter>
<linearGradient id="paint0_linear_742_738" x1="2049.61" y1="978.833" x2="306.503" y2="-207.957" gradientUnits="userSpaceOnUse">
<stop offset="0.0778004" stop-color="#C4C4C4" stop-opacity="0"/>
<stop offset="0.411857" stop-color="#C4C4C4"/>
<stop offset="0.504297" stop-color="#C4C4C4"/>
<stop offset="1" stop-color="#C4C4C4" stop-opacity="0"/>
</linearGradient>
<linearGradient id="paint1_linear_742_738" x1="2275.79" y1="972.963" x2="630.323" y2="-1098.63" gradientUnits="userSpaceOnUse">
<stop stop-color="#C4C4C4" stop-opacity="0"/>
<stop offset="0.430547" stop-color="#C4C4C4"/>
<stop offset="0.498519" stop-color="#C4C4C4"/>
<stop offset="1" stop-color="#C4C4C4" stop-opacity="0"/>
</linearGradient>
<linearGradient id="paint2_linear_742_738" x1="118.691" y1="1106.68" x2="568.691" y2="-226.764" gradientUnits="userSpaceOnUse">
<stop stop-color="#C4C4C4"/>
<stop offset="1" stop-color="#C4C4C4" stop-opacity="0"/>
</linearGradient>
<linearGradient id="paint3_linear_742_738" x1="-97.0495" y1="877.625" x2="941.737" y2="136.439" gradientUnits="userSpaceOnUse">
<stop stop-color="#97FC6B"/>
<stop offset="1" stop-color="#FCEE6B"/>
</linearGradient>
<linearGradient id="paint4_linear_742_738" x1="-99.3286" y1="850.994" x2="1074.99" y2="54.8993" gradientUnits="userSpaceOnUse">
<stop stop-color="#97FC6B"/>
<stop offset="1" stop-color="#FCEE6B"/>
</linearGradient>
<linearGradient id="paint5_linear_742_738" x1="-159.549" y1="810.151" x2="914.794" y2="-95.3191" gradientUnits="userSpaceOnUse">
<stop stop-color="#97FC6B"/>
<stop offset="1" stop-color="#FCEE6B"/>
</linearGradient>
<linearGradient id="paint6_linear_742_738" x1="-143.702" y1="657.423" x2="1117.74" y2="-364.031" gradientUnits="userSpaceOnUse">
<stop stop-color="#97FC6B"/>
<stop offset="1" stop-color="#FCEE6B"/>
</linearGradient>
<linearGradient id="paint7_linear_742_738" x1="-444.215" y1="634.807" x2="525.345" y2="-554.64" gradientUnits="userSpaceOnUse">
<stop stop-color="#97FC6B"/>
<stop offset="1" stop-color="#FCEE6B"/>
</linearGradient>
<linearGradient id="paint8_linear_742_738" x1="-370.328" y1="461.959" x2="649.258" y2="-802.079" gradientUnits="userSpaceOnUse">
<stop stop-color="#97FC6B"/>
<stop offset="1" stop-color="#FCEE6B"/>
</linearGradient>
<linearGradient id="paint9_linear_742_738" x1="-370.328" y1="461.959" x2="649.258" y2="-802.079" gradientUnits="userSpaceOnUse">
<stop stop-color="#97FC6B"/>
<stop offset="1" stop-color="#FCEE6B"/>
</linearGradient>
<linearGradient id="paint10_linear_742_738" x1="-370.328" y1="461.959" x2="649.258" y2="-802.079" gradientUnits="userSpaceOnUse">
<stop stop-color="#97FC6B"/>
<stop offset="1" stop-color="#FCEE6B"/>
</linearGradient>
<linearGradient id="paint11_linear_742_738" x1="-370.328" y1="461.959" x2="649.258" y2="-802.079" gradientUnits="userSpaceOnUse">
<stop stop-color="#97FC6B"/>
<stop offset="1" stop-color="#FCEE6B"/>
</linearGradient>
<linearGradient id="paint12_linear_742_738" x1="-213.939" y1="795.828" x2="898.838" y2="-187.213" gradientUnits="userSpaceOnUse">
<stop stop-color="#97FC6B"/>
<stop offset="1" stop-color="#FCEE6B"/>
</linearGradient>
</defs>
</svg>
