<svg width="90" height="17" viewBox="0 0 90 17" fill="none" xmlns="http://www.w3.org/2000/svg">
<path d="M25.504 0.843232C25.2664 1.31074 25.2664 1.76255 25.2664 2.22992V8.07259C25.2664 8.07259 28.4485 4.00604 29.1766 3.04004C29.7307 2.32342 30.4116 1.31074 30.4116 0.843232H40.7967C40.0844 1.31074 39.2928 2.15198 38.6437 2.93097C38.0738 3.6166 34.8442 7.49603 34.8442 7.49603C34.8442 7.49603 39.6411 14.6786 40.2584 15.5978C40.6067 16.0964 40.9867 16.5637 41.43 16.9844H29.4775C29.4775 16.5171 29.0184 15.5666 28.5117 14.8188C28.0052 14.0709 25.2664 9.97334 25.2664 9.97334V15.5978C25.2664 16.0653 25.2664 16.5171 25.5038 16.9844H15.5461C15.7836 16.5171 15.7836 16.0653 15.7836 15.5978V2.22992C15.7836 1.76255 15.7836 1.31074 15.5461 0.843232H25.504ZM62.3745 0.843232H43.1557C43.393 1.31074 43.393 1.76255 43.393 2.22992V15.5978C43.393 16.0653 43.393 16.5171 43.1555 16.9844H62.3745V12.5129C61.8996 12.7466 61.4405 12.7466 60.9656 12.7466H52.8759V10.6277H60.649V7.21566H52.8759V5.08096H60.9656C61.4405 5.08096 61.8996 5.08096 62.3745 5.29909V0.843232ZM89.0024 15.5978C89.1608 16.1119 89.4299 16.5793 89.7782 16.9844H79.3613C79.4088 16.5171 79.2346 16.0653 79.0448 15.5978C79.0448 15.5978 78.8864 15.2239 78.6647 14.6786L78.5697 14.4449H72.5697L72.4747 14.6941C72.4747 14.6941 72.3007 15.1459 72.1423 15.6134C71.984 16.0808 71.8098 16.5325 71.8732 17H63.6569C63.9935 16.5894 64.2462 16.1186 64.401 15.6134L69.3244 2.24535C69.4986 1.77797 69.6727 1.32616 69.6094 0.85866H83.4933C83.3667 1.32616 83.6199 1.77797 83.794 2.24535C84.2056 3.25803 88.6542 14.694 89.0024 15.5976V15.5978ZM77.2557 11.0327L75.7993 7.29333C75.6726 6.95058 75.5618 6.59227 75.4828 6.23396C75.4195 6.59462 75.3241 6.94911 75.1977 7.29333C75.1502 7.44921 74.5328 9.08514 73.8205 11.0327H77.2557ZM10.591 2.22978C10.591 1.76241 10.591 1.3106 10.8284 0.843099H0C0.237448 1.3106 0.237447 1.76241 0.237447 2.22978V15.5976C0.237447 16.0651 0.237448 16.5169 0 16.9843H10.8284C10.591 16.5169 10.591 16.0651 10.591 15.5976V2.22978ZM85.6779 2.12072C85.6463 3.28928 86.5802 4.27084 87.7834 4.30197C88.9708 4.33309 89.9682 3.41391 89.9998 2.22978V2.12072C90.0157 0.967722 89.0974 0.0174179 87.926 0.00185656H87.8468C87.5729 -0.00967422 87.2993 0.0325952 87.0421 0.126199C86.7849 0.219802 86.5493 0.362866 86.3488 0.547047C86.1484 0.731227 85.9873 0.952838 85.8748 1.19895C85.7623 1.44507 85.7008 1.71076 85.6937 1.98054C85.6621 2.02722 85.6621 2.07404 85.6779 2.12072ZM89.5565 2.12072C89.5881 3.0556 88.8284 3.85016 87.8784 3.86572C86.9285 3.89684 86.1212 3.14897 86.1053 2.21422V2.10516C86.0737 1.20154 86.7861 0.438105 87.7042 0.406849H87.831C88.765 0.391288 89.5407 1.1236 89.5565 2.04278V2.12072ZM88.8916 3.39835H88.4642L87.9576 2.49459H87.4035V3.39835H87.0235V0.843099H87.9893C88.4483 0.858793 88.7966 1.2171 88.7966 1.66891C88.7966 1.98054 88.6225 2.26091 88.3375 2.41679L88.8916 3.39835ZM87.9259 2.12072C88.1793 2.13628 88.4009 1.94928 88.4009 1.70003C88.4009 1.45079 88.2267 1.23266 87.9734 1.23266H87.4035V2.13628H87.9259" fill="#AAAAAA"/>
</svg>
