<svg width="646" height="585" viewBox="0 0 646 585" fill="none" xmlns="http://www.w3.org/2000/svg">
<path d="M586.554 62.8379L586.545 62.8286L586.536 62.8189L534.321 3.71053C532.518 1.66915 529.925 0.5 527.201 0.5H114.399H10.3188C5.07208 0.5 0.818787 4.7533 0.818787 10V122.603V458.038C0.818787 460.274 1.60791 462.439 3.04712 464.151L55.1512 526.128L112.971 583.608C113.546 584.179 114.324 584.5 115.135 584.5H635.055C640.301 584.5 644.555 580.247 644.555 575V125.895C644.555 123.409 643.58 121.021 641.839 119.246L586.554 62.8379Z" stroke="url(#paint0_linear_162_47)"/>
<mask id="mask0_162_47" style="mask-type:alpha" maskUnits="userSpaceOnUse" x="119" y="269" width="95" height="94">
<path fill-rule="evenodd" clip-rule="evenodd" d="M119 269H213.076V362.801H119V269Z" fill="white"/>
</mask>
<g mask="url(#mask0_162_47)">
<path fill-rule="evenodd" clip-rule="evenodd" d="M170.005 357.889C169.747 358.053 168.088 358.073 167.786 358.123H164.915C164.612 358.073 162.691 358.055 162.433 357.89C141.565 356.167 124.602 338.353 124.025 317.554C123.421 295.822 139.051 276.939 160.02 274.092C161.037 273.954 162.13 273.846 163.162 273.813H164.989H168.643C183.426 273.806 199.408 285.149 205.521 300.432C215.914 326.415 197.826 355.678 170.005 357.889ZM212.924 311.731C212.66 309.245 212.21 307.904 211.829 306.037C206.816 281.463 182.569 265.274 157.505 269.741C132.784 274.147 115.571 298.305 119.58 322.968C125.06 356.673 162.563 373.669 191.31 355.245C204.056 347.076 211.822 335.052 213.018 319.753C213.188 316.532 212.933 315.12 212.943 312.114C212.944 311.988 212.937 311.857 212.924 311.731Z" fill="white"/>
</g>
<path fill-rule="evenodd" clip-rule="evenodd" d="M184.33 341.709C183.59 342.266 182.771 342.727 181.956 343.171C180.145 344.156 178.512 343.945 177.397 342.128C176.248 340.253 177.04 338.778 178.659 337.612C179.582 336.949 180.547 336.342 181.451 335.655C193.736 326.331 194.475 307.584 182.962 297.32C181.721 296.214 180.402 295.21 178.641 295.087L177.705 294.956C177.039 294.911 176.922 294.956 176.139 294.956C175.617 294.956 175.426 294.966 175.304 295.007C175.182 295.04 175.058 295.073 174.933 295.107C168.615 297.012 166.799 303.635 171.341 308.433C172.835 310.01 174.573 311.4 174.958 313.681C175.095 314.532 175.356 316.098 174.978 318.104C173.743 322.21 170.956 324.507 166.72 324.83C163.055 325.11 159.641 322.814 158.163 319.371C156.574 315.668 157.419 312.156 160.982 308.855C163.519 306.504 164.443 303.711 163.531 300.494C162.7 297.562 160.872 295.4 157.54 295.066C156.563 294.956 155.78 294.956 154.41 295.066C150.265 295.637 148.04 298.815 145.947 301.799C137.893 313.283 141.023 328.957 152.733 336.724C153.164 337.01 153.62 337.257 154.046 337.55C155.751 338.725 156.286 340.349 155.258 342.118C154.188 343.957 152.414 344.076 150.658 343.127C146.866 341.076 143.795 338.151 141.208 334.753C133.521 324.655 132.897 310.32 139.594 299.451C146.203 288.723 159.198 282.739 171.23 284.884C184.514 287.251 194.792 296.871 197.128 309.651C199.55 322.904 195.078 333.615 184.33 341.709ZM201.373 307.963C198.039 292.915 185.88 281.865 170.474 279.868C170.396 279.858 170.32 279.843 170.244 279.825C167.31 279.125 162.162 279.817 162.162 279.817C151.401 281.11 142.822 286.156 136.538 294.962C124.355 312.037 129.779 336.545 147.981 346.958C151.878 349.186 156.288 348.319 158.726 344.846C161.311 341.163 160.615 336.808 156.934 333.842C156.131 333.195 155.23 332.674 154.387 332.076C143.934 324.666 142.988 309.315 152.455 300.728C154.137 299.202 156.014 298.258 157.899 300.183C159.786 302.112 158.939 303.817 157.129 305.454C154.788 307.572 153.026 310.142 152.909 313.488C152.661 315.364 152.648 315.837 152.957 318.398C154.22 325.288 160.017 329.588 167.385 329.103C173.818 328.68 179.194 323.25 179.631 316.787C179.947 312.109 178.23 308.304 174.788 305.217C173.501 304.063 172.947 302.701 173.684 301.062C174.237 299.83 175.268 299.17 176.65 299.197C178.003 299.223 178.92 300.095 179.838 300.937C189.762 310.034 188.095 325.16 176.297 333.09C171.991 335.983 170.709 340.786 173.236 344.562C175.884 348.519 180.504 349.275 184.955 346.482C198.224 338.155 204.697 322.969 201.373 307.963Z" fill="white"/>
<path fill-rule="evenodd" clip-rule="evenodd" d="M170.497 315.926C170.465 318.204 168.643 319.952 166.314 319.939C164.039 319.927 162.222 318.077 162.254 315.807C162.287 313.529 164.141 311.749 166.431 311.796C168.759 311.844 170.53 313.643 170.497 315.926Z" fill="#59E37C"/>
<mask id="mask1_162_47" style="mask-type:alpha" maskUnits="userSpaceOnUse" x="234" y="293" width="39" height="46">
<path fill-rule="evenodd" clip-rule="evenodd" d="M234.668 293.442H272.307V338.65H234.668V293.442Z" fill="white"/>
</mask>
<g mask="url(#mask1_162_47)">
<path fill-rule="evenodd" clip-rule="evenodd" d="M256.8 312.936L272.054 336.268C272.723 337.291 271.988 338.65 270.765 338.65H261.333C260.813 338.65 260.329 338.388 260.045 337.953L249.87 322.411C249.308 321.552 248.08 321.473 247.413 322.252L246.018 323.88C245.778 324.159 245.647 324.514 245.647 324.882V337.11C245.647 337.96 244.958 338.65 244.108 338.65H236.207C235.358 338.65 234.668 337.96 234.668 337.11V295.176C234.668 294.325 235.358 293.636 236.207 293.636H244.108C244.958 293.636 245.647 294.325 245.647 295.176V303.126C245.647 304.56 247.434 305.215 248.361 304.121L256.94 293.987C257.232 293.642 257.662 293.442 258.114 293.442H268.491C269.8 293.442 270.512 294.973 269.668 295.974L256.912 311.101C256.474 311.621 256.429 312.367 256.8 312.936Z" fill="white"/>
</g>
<path fill-rule="evenodd" clip-rule="evenodd" d="M295.811 293.507H328.058C328.909 293.507 329.598 294.196 329.598 295.046V303.011C329.598 303.861 328.909 304.55 328.058 304.55H306.789C305.94 304.55 305.25 305.24 305.25 306.089V309.017C305.25 309.867 305.94 310.557 306.789 310.557H322.763C323.613 310.557 324.302 311.245 324.302 312.096V319.996C324.302 320.846 323.613 321.535 322.763 321.535H306.789C305.94 321.535 305.25 322.225 305.25 323.074V326.002C305.25 326.852 305.94 327.541 306.789 327.541H328.058C328.909 327.541 329.598 328.231 329.598 329.08V336.981C329.598 337.831 328.909 338.52 328.058 338.52H295.811C294.96 338.52 294.271 337.831 294.271 336.981V295.046C294.271 294.196 294.96 293.507 295.811 293.507Z" fill="white"/>
<path fill-rule="evenodd" clip-rule="evenodd" d="M382.518 293.637H390.419C391.268 293.637 391.958 294.326 391.958 295.177V337.111C391.958 337.962 391.268 338.651 390.419 338.651H380.774C380.257 338.651 379.774 338.391 379.49 337.958L365.076 316.074C364.235 314.798 362.25 315.393 362.25 316.92V336.982C362.25 337.832 361.561 338.521 360.711 338.521H352.811C351.96 338.521 351.271 337.832 351.271 336.982V294.983C351.271 294.132 351.96 293.443 352.811 293.443H362.52C363.037 293.443 363.52 293.704 363.805 294.136L378.155 315.897C378.995 317.172 380.979 316.577 380.979 315.049V295.177C380.979 294.326 381.668 293.637 382.518 293.637Z" fill="white"/>
<path fill-rule="evenodd" clip-rule="evenodd" d="M437.05 293.443H448.029V321.224C448.029 330.598 440.358 338.499 430.986 338.325C421.897 338.156 414.576 330.731 414.576 321.601V320.876C414.576 319.779 415.466 318.889 416.564 318.889H423.567C424.665 318.889 425.555 319.779 425.555 320.876V321.392C425.555 324.448 427.85 327.124 430.899 327.335C434.244 327.566 437.05 324.899 437.05 321.601V293.443Z" fill="white"/>
<mask id="mask2_162_47" style="mask-type:alpha" maskUnits="userSpaceOnUse" x="469" y="292" width="47" height="48">
<path fill-rule="evenodd" clip-rule="evenodd" d="M469.668 292.861H515.908V339.101H469.668V292.861Z" fill="white"/>
</mask>
<g mask="url(#mask2_162_47)">
<path fill-rule="evenodd" clip-rule="evenodd" d="M504.929 315.981C504.929 309.265 499.504 303.84 492.788 303.84C486.135 303.84 480.646 309.265 480.646 315.981C480.646 322.698 486.135 328.123 492.788 328.123C499.504 328.123 504.929 322.698 504.929 315.981ZM515.908 315.981C515.908 328.768 505.575 339.102 492.788 339.102C480.066 339.102 469.668 328.768 469.668 315.981C469.668 303.259 480.066 292.861 492.788 292.861C505.575 292.861 515.908 303.259 515.908 315.981Z" fill="white"/>
</g>
<defs>
<linearGradient id="paint0_linear_162_47" x1="322.687" y1="0" x2="322.687" y2="585" gradientUnits="userSpaceOnUse">
<stop stop-color="#CCD0BB"/>
<stop offset="1" stop-color="#314232"/>
</linearGradient>
</defs>
</svg>
