<svg width="201" height="30" viewBox="0 0 201 30" fill="none" xmlns="http://www.w3.org/2000/svg">
<path fill-rule="evenodd" clip-rule="evenodd" d="M73.9466 21.742C72.6718 24.7906 71.674 26.3149 70.9535 26.3149C70.7595 26.3149 70.6209 26.2872 70.5377 26.2318C70.4823 26.1486 70.4684 25.9962 70.4962 25.7745C70.5239 25.525 70.5793 25.234 70.6624 24.9015C70.7733 24.5412 70.9396 24.0423 71.1613 23.4049L76.2746 8.31434H71.5354L71.1197 9.64464C70.4823 9.31206 69.734 9.14578 68.8749 9.14578C67.3783 9.14578 65.563 10.0881 63.429 11.9727C61.2949 13.8572 59.4381 16.116 57.8584 18.7488C56.3063 21.3817 55.5303 23.6543 55.5303 25.5666C55.5303 28.1441 56.6943 29.4328 59.0224 29.4328C59.5766 29.4328 60.1171 29.2942 60.6437 29.0171C61.198 28.7676 61.78 28.3242 62.3897 27.6868C63.0271 27.0493 63.5953 26.4258 64.0941 25.816C64.6207 25.1786 65.272 24.2502 66.048 23.0307C66.824 21.7836 67.4753 20.7304 68.0019 19.8713C68.5284 18.9844 69.2767 17.7096 70.2467 16.0467H70.7456C68.8056 19.6773 67.5446 22.1577 66.9626 23.488C66.4083 24.7906 66.1311 25.816 66.1311 26.5643C66.1311 27.4235 66.3528 28.0886 66.7963 28.5598C67.2674 29.0032 67.9187 29.2249 68.7501 29.2249C70.8842 29.2249 72.8658 26.7999 74.6949 21.9499L73.9466 21.742ZM65.1334 22.2824C63.914 23.7236 62.8885 24.4442 62.0571 24.4442C61.1425 24.4442 60.6852 23.9453 60.6852 22.9476C60.6852 21.0907 61.4197 18.6657 62.8885 15.6725C64.3851 12.6794 65.6877 11.0165 66.7963 10.6839C68.2651 10.8779 69.4846 12.0835 70.4546 14.3007C68.1266 18.1807 66.3528 20.8413 65.1334 22.2824ZM93.8422 5.82004C94.7014 5.82004 95.3943 5.55675 95.9208 5.03018C96.4474 4.47589 96.7107 3.76917 96.7107 2.91002C96.7107 2.05087 96.4474 1.35801 95.9208 0.831433C95.3943 0.277144 94.7014 0 93.8422 0C92.9831 0 92.2764 0.277144 91.7221 0.831433C91.1955 1.35801 90.9322 2.05087 90.9322 2.91002C90.9322 3.76917 91.1955 4.47589 91.7221 5.03018C92.2764 5.55675 92.9831 5.82004 93.8422 5.82004ZM85.4448 28.4766C85.9991 28.9755 86.7612 29.2249 87.7312 29.2249C89.9484 29.2249 91.9715 26.7999 93.8007 21.9499L93.0524 21.742C91.7775 24.7906 90.7521 26.3149 89.9761 26.3149C89.2555 26.3149 89.1724 25.622 89.7266 24.2363L93.3434 15.4231C94.0085 13.7325 94.3411 12.4577 94.3411 11.5985C94.3411 9.63078 93.3018 8.64692 91.2232 8.64692C89.0061 8.64692 86.9829 11.0719 85.1538 15.922L85.9021 16.1298C87.1769 13.0812 88.2024 11.5569 88.9784 11.5569C89.6989 11.5569 89.7821 12.2498 89.2278 13.6355L85.6526 22.4487C84.9598 24.1947 84.6133 25.4696 84.6133 26.2733C84.6133 27.2433 84.8905 27.9778 85.4448 28.4766ZM17.8332 14.5842H14.2665V7.45099H17.8332V14.5842ZM10.6999 21.7175H7.13326V18.1509H3.56663V28.8508H0V3.88436H14.2665V7.45099H3.56663V14.5842H14.2665V18.1509H10.6999V21.7175ZM10.6999 25.2841V21.7175H14.2665V25.2841H10.6999ZM14.2665 25.2841H17.8332V28.8508H14.2665V25.2841ZM31.3968 25.2841H45.6633V28.8508H27.8302V3.88436H45.6633V7.45099H31.3968V14.5842H42.0967V18.1509H31.3968V25.2841ZM106.824 28.8508V3.88436H110.39V25.2841H124.657V28.8508H106.824ZM145.354 3.88436V7.45099H141.787V25.2841H145.354V28.8508H134.654V25.2841H138.22V7.45099H134.654V3.88436H145.354ZM158.903 25.2841H155.337V21.7175H158.903V25.2841ZM169.603 25.2841V28.8508H158.903V25.2841H169.603ZM169.603 18.1509H173.17V25.2841H169.603V18.1509ZM158.903 14.5842H169.603V18.1509H158.903V14.5842ZM158.903 7.45099V14.5842H155.337V7.45099H158.903ZM169.603 7.45099H158.903V3.88436H169.603V7.45099ZM169.603 7.45099H173.17V11.0176H169.603V7.45099ZM186.733 25.2841H201V28.8508H183.167V3.88436H201V7.45099H186.733V14.5842H197.433V18.1509H186.733V25.2841Z" fill="white"/>
</svg>
