<svg width="1365" height="192" viewBox="0 0 1365 192" fill="none" xmlns="http://www.w3.org/2000/svg">
<path fill-rule="evenodd" clip-rule="evenodd" d="M502.175 141.831C493.517 161.717 486.742 171.661 481.848 171.661C480.531 171.661 479.59 171.48 479.025 171.119C478.648 170.576 478.554 169.582 478.743 168.136C478.931 166.508 479.307 164.61 479.872 162.441C480.625 160.09 481.754 156.836 483.26 152.678L517.984 54.2373H485.8L482.977 62.9153C478.648 60.7458 473.567 59.661 467.732 59.661C457.569 59.661 445.241 65.8079 430.749 78.1017C416.257 90.3955 403.647 105.13 392.919 122.305C382.379 139.48 377.109 154.305 377.109 166.78C377.109 183.593 385.014 192 400.823 192C404.588 192 408.258 191.096 411.834 189.288C415.598 187.661 419.55 184.768 423.691 180.61C428.02 176.452 431.878 172.384 435.266 168.407C438.842 164.249 443.265 158.192 448.535 150.237C453.805 142.102 458.228 135.232 461.804 129.627C465.38 123.842 470.461 115.525 477.049 104.678H480.436C467.262 128.362 458.698 144.542 454.746 153.22C450.982 161.717 449.099 168.407 449.099 173.288C449.099 178.893 450.605 183.232 453.616 186.305C456.816 189.198 461.239 190.644 466.885 190.644C481.378 190.644 494.835 174.825 507.256 143.186L502.175 141.831ZM442.324 145.356C434.043 154.757 427.079 159.458 421.433 159.458C415.222 159.458 412.116 156.203 412.116 149.695C412.116 137.582 417.104 121.763 427.079 102.237C437.242 82.7119 446.088 71.8644 453.616 69.6949C463.592 70.9604 471.873 78.8249 478.46 93.2881C462.651 118.599 450.605 135.955 442.324 145.356ZM637.287 37.9661C643.121 37.9661 647.827 36.2486 651.403 32.8136C654.979 29.1977 656.767 24.5876 656.767 18.983C656.767 13.3785 654.979 8.85875 651.403 5.42372C647.827 1.80791 643.121 0 637.287 0C631.452 0 626.653 1.80791 622.889 5.42372C619.313 8.85875 617.525 13.3785 617.525 18.983C617.525 24.5876 619.313 29.1977 622.889 32.8136C626.653 36.2486 631.452 37.9661 637.287 37.9661ZM580.259 185.763C584.023 189.017 589.199 190.644 595.787 190.644C610.843 190.644 624.583 174.825 637.005 143.186L631.923 141.831C623.265 161.717 616.301 171.661 611.032 171.661C606.138 171.661 605.573 167.141 609.338 158.102L633.899 100.61C638.416 89.5819 640.675 81.2655 640.675 75.661C640.675 62.8248 633.617 56.4068 619.501 56.4068C604.444 56.4068 590.705 72.226 578.283 103.864L583.365 105.22C592.022 85.3333 598.986 75.3898 604.256 75.3898C609.15 75.3898 609.714 79.9096 605.95 88.9491L581.671 146.441C576.966 157.831 574.613 166.147 574.613 171.39C574.613 177.717 576.495 182.508 580.259 185.763ZM121.106 95.138H96.8846V48.6053H121.106V95.138ZM72.6635 141.671H48.4423V118.404H24.2212V188.203H0V25.339H96.8846V48.6053H24.2212V95.138H96.8846V118.404H72.6635V141.671ZM72.6635 164.937V141.671H96.8846V164.937H72.6635ZM96.8846 164.937H121.106V188.203H96.8846V164.937ZM213.217 164.937H310.102V188.203H188.996V25.339H310.102V48.6053H213.217V95.138H285.881V118.404H213.217V164.937ZM725.443 188.203V25.339H749.664V164.937H846.549V188.203H725.443ZM987.103 25.339V48.6053H962.882V164.937H987.103V188.203H914.439V164.937H938.66V48.6053H914.439V25.339H987.103ZM1079.12 164.937H1054.9V141.671H1079.12V164.937ZM1151.78 164.937V188.203H1079.12V164.937H1151.78ZM1151.78 118.404H1176V164.937H1151.78V118.404ZM1079.12 95.138H1151.78V118.404H1079.12V95.138ZM1079.12 48.6053V95.138H1054.9V48.6053H1079.12ZM1151.78 48.6053H1079.12V25.339H1151.78V48.6053ZM1151.78 48.6053H1176V71.8717H1151.78V48.6053ZM1268.12 164.937H1365V188.203H1243.89V25.339H1365V48.6053H1268.12V95.138H1340.78V118.404H1268.12V164.937Z" fill="black"/>
</svg>
