<svg width="104" height="50" viewBox="0 0 104 50" fill="none" xmlns="http://www.w3.org/2000/svg">
<path d="M23.484 10.4186C24.9637 10.4186 26.1632 9.19509 26.1632 7.68585C26.1632 6.17661 24.9637 4.95312 23.484 4.95312C22.0042 4.95312 20.8047 6.17661 20.8047 7.68585C20.8047 9.19509 22.0042 10.4186 23.484 10.4186Z" fill="#AAAAAA"/>
<path d="M82.7829 42.4208C83.6943 42.4208 84.4331 41.6673 84.4331 40.7377C84.4331 39.8082 83.6943 39.0547 82.7829 39.0547C81.8716 39.0547 81.1328 39.8082 81.1328 40.7377C81.1328 41.6673 81.8716 42.4208 82.7829 42.4208Z" fill="#AAAAAA"/>
<path d="M23.484 10.4186C24.9637 10.4186 26.1632 9.19509 26.1632 7.68585C26.1632 6.17661 24.9637 4.95312 23.484 4.95312C22.0042 4.95312 20.8047 6.17661 20.8047 7.68585C20.8047 9.19509 22.0042 10.4186 23.484 10.4186Z" fill="#AAAAAA"/>
<path d="M0 32.0154H2.93447V22.5118C2.93447 20.8764 4.20507 19.5805 5.77819 19.5805C7.38156 19.5805 8.6824 20.8764 8.6824 22.5118V32.0154H11.6169V22.5118C11.6169 20.8764 12.8875 19.5805 14.4606 19.5805C16.0942 19.5805 17.3648 20.8764 17.3648 22.5118V32.0154H20.2993V22.5118C20.2993 19.2411 17.6976 16.5875 14.4606 16.5875C12.7362 16.5875 11.1933 17.3589 10.1345 18.5623C9.10594 17.3589 7.53282 16.5875 5.77819 16.5875C2.57144 16.5875 0 19.2411 0 22.5118V32.0154Z" fill="#AAAAAA"/>
<path d="M25.0635 16.5566H22.1291V32.0154H25.0635V16.5566Z" fill="#AAAAAA"/>
<path d="M38.8666 32.0154H41.8011V24.2089C41.8011 20.0125 38.4733 16.5875 34.359 16.5875C30.2145 16.5875 26.8867 20.0125 26.8867 24.2089V32.0154H29.8212V24.2089C29.8212 21.6478 31.8178 19.5805 34.359 19.5805C36.87 19.5805 38.8666 21.6478 38.8666 24.2089V32.0154Z" fill="#AAAAAA"/>
<path d="M46.0295 22.9746C47.6329 18.2846 53.9254 18.2537 55.2565 22.9746H46.0295ZM58.1305 25.906C58.2515 25.3814 58.312 24.8569 58.312 24.3014C58.312 19.9816 54.8632 16.4641 50.6581 16.4641C46.3926 16.4641 43.0043 19.9816 43.0043 24.3014C43.0043 28.6213 46.3926 32.108 50.6581 32.108C53.8649 32.108 56.6481 30.0406 57.7372 27.171H54.5002C52.201 30.3492 47.3909 29.4544 46.1506 25.906H58.1305Z" fill="#AAAAAA"/>
<path d="M63.0597 16.5566H60.1252V32.0154H63.0597V16.5566Z" fill="#AAAAAA"/>
<path d="M64.8829 32.0154H67.8173V23.2215C67.8173 21.2159 69.4207 19.5805 71.3871 19.5805H74.3821V16.5875H71.3871C67.7871 16.5875 64.8829 19.5805 64.8829 23.2215V32.0154Z" fill="#AAAAAA"/>
<path d="M87.5284 24.3014C87.5284 27.1402 85.3502 29.4544 82.5972 29.4544C79.814 29.4544 77.6661 27.1402 77.6661 24.3014C77.6661 21.4936 79.814 19.1794 82.5972 19.1794C85.3502 19.1794 87.5284 21.4936 87.5284 24.3014ZM90.1905 24.3014C90.1905 20.0125 86.8023 16.4641 82.5972 16.4641C78.3619 16.4641 74.9736 20.0125 74.9736 24.3014C74.9736 28.6213 78.3619 32.1697 82.5972 32.1697C86.8023 32.1697 90.1905 28.6213 90.1905 24.3014Z" fill="#AAAAAA"/>
<path d="M94.41 26.8316H91.4151V27.1093C91.4151 30.0098 94.531 32.2005 97.7075 32.2005C100.945 32.2005 104 30.2258 104 27.1093C104 21.0616 94.41 24.1472 94.41 21.4318C94.41 20.5062 95.4991 19.3028 97.7075 19.3028C99.6739 19.3028 101.005 20.753 101.005 21.4318V21.7713H104V21.4318C104 18.2537 100.581 16.4023 97.7075 16.4023C94.6218 16.4023 91.4151 18.2228 91.4151 21.4318C91.4151 27.4487 101.005 24.7334 101.005 27.1093C101.005 28.035 100.007 29.2692 97.7075 29.2692C95.5596 29.2692 94.41 27.8499 94.41 27.1093V26.8316Z" fill="#AAAAAA"/>
<path d="M35.4683 33.9634C39.5804 35.8329 44.1064 37.5524 48.9042 39.0202C70.0467 45.4881 86.213 43.1978 87.7848 35.6567C87.9582 34.8246 87.9194 33.9461 87.6846 33.0328M66.0806 15.9055C62.5031 14.3688 58.6466 12.9503 54.5964 11.7113C33.4538 5.24332 15.0402 6.1133 13.4684 13.6544C13.3916 14.0227 13.2223 14.8397 13.1593 15.1612" stroke="#AAAAAA" stroke-linecap="round"/>
</svg>
