<svg width="750" height="759" viewBox="0 0 750 759" fill="none" xmlns="http://www.w3.org/2000/svg">
<path d="M249.5 48.6016C256.459 48.6016 262.1 42.895 262.1 35.8555C262.1 28.816 256.459 23.1094 249.5 23.1094C242.541 23.1094 236.899 28.816 236.899 35.8555C236.899 42.895 242.541 48.6016 249.5 48.6016Z" fill="#5B50DA"/>
<path d="M528.376 197.864C532.661 197.864 536.136 194.35 536.136 190.014C536.136 185.679 532.661 182.164 528.376 182.164C524.09 182.164 520.615 185.679 520.615 190.014C520.615 194.35 524.09 197.864 528.376 197.864Z" fill="#DD5D72"/>
<path d="M249.5 48.6016C256.459 48.6016 262.1 42.895 262.1 35.8555C262.1 28.816 256.459 23.1094 249.5 23.1094C242.541 23.1094 236.899 28.816 236.899 35.8555C236.899 42.895 242.541 48.6016 249.5 48.6016Z" fill="#A050D9"/>
<path d="M139.06 149.323H152.861V104.996C152.861 97.3684 158.836 91.3237 166.234 91.3237C173.775 91.3237 179.892 97.3684 179.892 104.996V149.323H193.693V104.996C193.693 97.3684 199.668 91.3237 207.066 91.3237C214.749 91.3237 220.725 97.3684 220.725 104.996V149.323H234.525V104.996C234.525 89.7406 222.29 77.3635 207.066 77.3635C198.957 77.3635 191.701 80.9615 186.721 86.5744C181.884 80.9615 174.486 77.3635 166.234 77.3635C151.153 77.3635 139.06 89.7406 139.06 104.996V149.323Z" fill="white"/>
<path d="M256.931 77.2196H243.13V149.323H256.931V77.2196Z" fill="white"/>
<path d="M321.845 149.323H335.645V112.912C335.645 93.3386 319.995 77.3635 300.646 77.3635C281.155 77.3635 265.505 93.3386 265.505 112.912V149.323H279.305V112.912C279.305 100.966 288.695 91.3237 300.646 91.3237C312.455 91.3237 321.845 100.966 321.845 112.912V149.323Z" fill="white"/>
<path d="M355.531 107.155C363.072 85.2791 392.665 85.1352 398.925 107.155H355.531ZM412.441 120.827C413.01 118.381 413.294 115.934 413.294 113.343C413.294 93.1947 397.075 76.7878 377.299 76.7878C357.239 76.7878 341.304 93.1947 341.304 113.343C341.304 133.492 357.239 149.755 377.299 149.755C392.38 149.755 405.469 140.113 410.591 126.728H395.368C384.555 141.552 361.934 137.378 356.1 120.827H412.441Z" fill="white"/>
<path d="M435.622 77.2196H421.822V149.323H435.622V77.2196Z" fill="white"/>
<path d="M444.196 149.323H457.997V108.306C457.997 98.9515 465.537 91.3237 474.785 91.3237H488.87V77.3635H474.785C457.854 77.3635 444.196 91.3237 444.196 108.306V149.323Z" fill="white"/>
<path d="M550.695 113.343C550.695 126.584 540.452 137.378 527.505 137.378C514.416 137.378 504.314 126.584 504.314 113.343C504.314 100.247 514.416 89.4528 527.505 89.4528C540.452 89.4528 550.695 100.247 550.695 113.343ZM563.215 113.343C563.215 93.3386 547.281 76.7878 527.505 76.7878C507.587 76.7878 491.652 93.3386 491.652 113.343C491.652 133.492 507.587 150.043 527.505 150.043C547.281 150.043 563.215 133.492 563.215 113.343Z" fill="white"/>
<path d="M583.059 125.145H568.974V126.44C568.974 139.969 583.628 150.187 598.567 150.187C613.79 150.187 628.159 140.976 628.159 126.44C628.159 98.2319 583.059 112.624 583.059 99.9589C583.059 95.6413 588.181 90.0285 598.567 90.0285C607.814 90.0285 614.074 96.7927 614.074 99.9589V101.542H628.159V99.9589C628.159 85.1352 612.083 76.5 598.567 76.5C584.055 76.5 568.974 84.9913 568.974 99.9589C568.974 128.023 614.074 115.358 614.074 126.44C614.074 130.758 609.379 136.515 598.567 136.515C588.465 136.515 583.059 129.894 583.059 126.44V125.145Z" fill="white"/>
<path d="M305.864 158.414C325.203 167.134 346.488 175.154 369.051 182C468.482 212.168 544.51 201.486 551.902 166.312C552.718 162.431 552.535 158.333 551.431 154.074M449.83 74.1872C433.005 67.0198 414.869 60.4037 395.821 54.6244C296.39 24.4562 209.793 28.514 202.401 63.6878C202.04 65.4057 201.244 69.2163 200.947 70.7159" stroke="url(#paint0_linear_1009_20305)" stroke-width="1.05095" stroke-linecap="round"/>
<defs>
<linearGradient id="paint0_linear_1009_20305" x1="490.551" y1="199.526" x2="384.3" y2="-21.2728" gradientUnits="userSpaceOnUse">
<stop stop-color="#DC5C72"/>
<stop offset="1" stop-color="#9F4FDA"/>
</linearGradient>
</defs>
</svg>
