<svg width="1356" height="127" viewBox="0 0 1356 127" fill="none" xmlns="http://www.w3.org/2000/svg">
<path d="M810.492 71.8572V119H795V24.7143H810.492V56.1429H856.969V24.7143H872.461V119H856.969V71.8572H810.492ZM856.969 24.7143H810.492V9H856.969V24.7143Z" fill="white"/>
<path d="M946.869 24.7143H915.885V9H993.346V24.7143H962.361V119H946.869V24.7143Z" fill="white"/>
<path d="M1083.25 103.286H1114.23V119H1036.77V103.286H1067.75V24.7143H1036.77V9H1114.23V24.7143H1083.25V103.286Z" fill="white"/>
<path d="M1173.15 103.286H1157.65V24.7143H1173.15V103.286ZM1235.12 103.286H1219.62V24.7143H1235.12V103.286ZM1219.62 24.7143H1173.15V9H1219.62V24.7143ZM1219.62 119H1173.15V103.286H1219.62V119Z" fill="white"/>
<path d="M1294.03 40.4286V119H1278.54V9H1309.52V40.4286H1294.03ZM1325.02 87.5714H1309.52V40.4286H1325.02V87.5714ZM1340.51 87.5714V9H1356V119H1325.02V87.5714H1340.51Z" fill="white"/>
<path fill-rule="evenodd" clip-rule="evenodd" d="M318.671 93.815C313.177 106.969 308.878 113.547 305.772 113.547C304.936 113.547 304.339 113.427 303.981 113.188C303.742 112.829 303.682 112.171 303.802 111.215C303.921 110.138 304.16 108.883 304.518 107.448C304.996 105.893 305.713 103.741 306.668 100.99L328.704 35.8757H308.28L306.489 41.6158C303.742 40.1808 300.517 39.4633 296.815 39.4633C290.365 39.4633 282.542 43.5292 273.346 51.661C264.149 59.7928 256.147 69.5391 249.339 80.8997C242.651 92.2604 239.307 102.066 239.307 110.318C239.307 121.439 244.323 127 254.356 127C256.744 127 259.073 126.402 261.343 125.206C263.731 124.13 266.239 122.217 268.867 119.466C271.614 116.716 274.062 114.025 276.212 111.394C278.481 108.644 281.288 104.637 284.632 99.3757C287.977 93.9943 290.783 89.4501 293.053 85.7429C295.322 81.9162 298.547 76.4153 302.727 69.2401H304.877C296.516 84.9058 291.082 95.6087 288.574 101.349C286.185 106.969 284.991 111.394 284.991 114.623C284.991 118.33 285.946 121.2 287.857 123.233C289.887 125.146 292.694 126.103 296.277 126.103C305.474 126.103 314.013 115.639 321.896 94.7119L318.671 93.815ZM280.691 96.1469C275.436 102.365 271.017 105.475 267.434 105.475C263.492 105.475 261.522 103.322 261.522 99.017C261.522 91.0047 264.687 80.541 271.017 67.6257C277.466 54.7105 283.08 47.5353 287.857 46.1003C294.187 46.9374 299.442 52.1394 303.623 61.7062C293.59 78.4482 285.946 89.9284 280.691 96.1469ZM404.411 25.113C408.114 25.113 411.099 23.9769 413.369 21.7048C415.638 19.3131 416.773 16.2636 416.773 12.5565C416.773 8.84934 415.638 5.85969 413.369 3.58757C411.099 1.19586 408.114 0 404.411 0C400.709 0 397.663 1.19586 395.274 3.58757C393.005 5.85969 391.87 8.84934 391.87 12.5565C391.87 16.2636 393.005 19.3131 395.274 21.7048C397.663 23.9769 400.709 25.113 404.411 25.113ZM368.222 122.874C370.611 125.027 373.896 126.103 378.076 126.103C387.631 126.103 396.349 115.639 404.232 94.7119L401.007 93.815C395.513 106.969 391.094 113.547 387.75 113.547C384.645 113.547 384.286 110.557 386.675 104.578L402.261 66.5494C405.128 59.2547 406.561 53.7538 406.561 50.0466C406.561 41.556 402.082 37.3107 393.125 37.3107C383.57 37.3107 374.851 47.7745 366.968 68.702L370.193 69.5989C375.687 56.4444 380.106 49.8672 383.45 49.8672C386.556 49.8672 386.914 52.8569 384.525 58.8362L369.118 96.8644C366.132 104.398 364.639 109.899 364.639 113.367C364.639 117.553 365.834 120.722 368.222 122.874ZM76.8516 62.9298H61.4813V32.1504H76.8516V62.9298ZM46.111 93.7093H30.7406V78.3195H15.3703V124.489H0V16.7607H61.4813V32.1504H15.3703V62.9298H61.4813V78.3195H46.111V93.7093ZM46.111 109.099V93.7093H61.4813V109.099H46.111ZM61.4813 109.099H76.8516V124.489H61.4813V109.099ZM135.304 109.099H196.785V124.489H119.934V16.7607H196.785V32.1504H135.304V62.9298H181.415V78.3195H135.304V109.099ZM460.354 124.489V16.7607H475.724V109.099H537.205V124.489H460.354ZM626.398 16.7607V32.1504H611.028V109.099H626.398V124.489H580.287V109.099H595.657V32.1504H580.287V16.7607H626.398ZM684.79 109.099H669.42V93.7093H684.79V109.099ZM730.901 109.099V124.489H684.79V109.099H730.901ZM730.901 78.3195H746.272V109.099H730.901V78.3195ZM684.79 62.9298H730.901V78.3195H684.79V62.9298ZM684.79 32.1504V62.9298H669.42V32.1504H684.79ZM730.901 32.1504H684.79V16.7607H730.901V32.1504ZM730.901 32.1504H746.272V47.5401H730.901V32.1504Z" fill="white"/>
</svg>
