<svg width="1356" height="127" viewBox="0 0 1356 127" fill="none" xmlns="http://www.w3.org/2000/svg">
<path fill-rule="evenodd" clip-rule="evenodd" d="M305.772 113.547C308.878 113.547 313.177 106.969 318.671 93.815L321.896 94.7119C314.013 115.639 305.474 126.103 296.277 126.103C292.694 126.103 289.887 125.146 287.857 123.233C285.946 121.2 284.991 118.33 284.991 114.623C284.991 111.394 286.185 106.969 288.574 101.349C291.082 95.6087 296.516 84.9058 304.877 69.2401H302.727C298.547 76.4153 295.322 81.9162 293.053 85.7429C290.783 89.4501 287.977 93.9943 284.632 99.3757C281.288 104.637 278.481 108.644 276.212 111.394C274.062 114.025 271.614 116.716 268.867 119.466C266.239 122.217 263.731 124.13 261.343 125.206C259.073 126.402 256.744 127 254.356 127C244.323 127 239.307 121.439 239.307 110.318C239.307 102.066 242.651 92.2604 249.339 80.8997C256.147 69.5391 264.149 59.7928 273.346 51.661C282.542 43.5292 290.365 39.4633 296.815 39.4633C300.517 39.4633 303.742 40.1808 306.489 41.6158L308.28 35.8757H328.704L306.668 100.99C305.713 103.741 304.996 105.893 304.518 107.448C304.16 108.883 303.921 110.138 303.802 111.215C303.682 112.171 303.742 112.829 303.981 113.188C304.339 113.427 304.936 113.547 305.772 113.547ZM267.434 105.475C271.017 105.475 275.436 102.365 280.691 96.1469C285.946 89.9284 293.59 78.4482 303.623 61.7062C299.442 52.1394 294.187 46.9374 287.857 46.1003C283.08 47.5353 277.466 54.7105 271.017 67.6257C264.687 80.541 261.522 91.0047 261.522 99.017C261.522 103.322 263.492 105.475 267.434 105.475ZM413.369 21.7048C411.099 23.9769 408.114 25.113 404.411 25.113C400.709 25.113 397.663 23.9769 395.274 21.7048C393.005 19.3131 391.87 16.2636 391.87 12.5565C391.87 8.84934 393.005 5.85969 395.274 3.58757C397.663 1.19586 400.709 0 404.411 0C408.114 0 411.099 1.19586 413.369 3.58757C415.638 5.85969 416.773 8.84934 416.773 12.5565C416.773 16.2636 415.638 19.3131 413.369 21.7048ZM378.076 126.103C373.896 126.103 370.611 125.027 368.222 122.874C365.834 120.722 364.639 117.553 364.639 113.367C364.639 109.899 366.132 104.398 369.118 96.8644L384.525 58.8362C386.914 52.8569 386.556 49.8672 383.45 49.8672C380.106 49.8672 375.687 56.4444 370.193 69.5989L366.968 68.702C374.851 47.7745 383.57 37.3107 393.125 37.3107C402.082 37.3107 406.561 41.556 406.561 50.0466C406.561 53.7538 405.128 59.2547 402.261 66.5494L386.675 104.578C384.286 110.557 384.645 113.547 387.75 113.547C391.094 113.547 395.513 106.969 401.007 93.815L404.232 94.7119C396.349 115.639 387.631 126.103 378.076 126.103ZM61.4813 62.9298H76.8516V32.1504H61.4813V16.7607H0V124.489H15.3703V78.3195H30.7406V93.7093H46.111V109.099H61.4813V124.489H76.8516V109.099H61.4813V93.7093H46.111V78.3195H61.4813V62.9298ZM61.4813 62.9298H15.3703V32.1504H61.4813V62.9298ZM196.785 109.099H135.304V78.3195H181.415V62.9298H135.304V32.1504H196.785V16.7607H119.934V124.489H196.785V109.099ZM460.354 16.7607V124.489H537.205V109.099H475.724V16.7607H460.354ZM626.398 32.1504V16.7607H580.287V32.1504H595.657V109.099H580.287V124.489H626.398V109.099H611.028V32.1504H626.398ZM669.42 109.099H684.79V124.489H730.901V109.099H746.272V78.3195H730.901V62.9298H684.79V32.1504H730.901V47.5401H746.272V32.1504H730.901V16.7607H684.79V32.1504H669.42V62.9298H684.79V78.3195H730.901V109.099H684.79V93.7093H669.42V109.099ZM810.492 76.8571V124H795V29.7143H810.492V61.1429H856.969V29.7143H872.461V124H856.969V76.8571H810.492ZM856.969 29.7143H810.492V14H856.969V29.7143ZM946.869 29.7143H915.885V14H993.346V29.7143H962.361V124H946.869V29.7143ZM1114.23 108.286H1083.25V29.7143H1114.23V14H1036.77V29.7143H1067.75V108.286H1036.77V124H1114.23V108.286ZM1173.15 108.286H1157.65V29.7143H1173.15V108.286ZM1219.62 108.286V124H1173.15V108.286H1219.62ZM1219.62 29.7143H1235.12V108.286H1219.62V29.7143ZM1219.62 29.7143V14H1173.15V29.7143H1219.62ZM1294.03 124V45.4286H1309.52V92.5714H1325.02V124H1356V14H1340.51V92.5714H1325.02V45.4286H1309.52V14H1278.54V124H1294.03Z" fill="white"/>
</svg>
