<svg width="645" height="585" viewBox="0 0 645 585" fill="none" xmlns="http://www.w3.org/2000/svg">
<path d="M586.235 62.8379L586.226 62.8286L586.218 62.8189L534.003 3.71053C532.2 1.66915 529.607 0.5 526.883 0.5H114.08H10.0004C4.75372 0.5 0.500427 4.7533 0.500427 10V122.603V458.038C0.500427 460.274 1.28955 462.439 2.72876 464.151L54.8328 526.128L112.653 583.608C113.228 584.179 114.006 584.5 114.816 584.5H634.736C639.983 584.5 644.236 580.247 644.236 575V125.895C644.236 123.409 643.261 121.021 641.521 119.246L586.235 62.8379Z" stroke="url(#paint0_linear_162_45)"/>
<g clip-path="url(#clip0_162_45)">
<path fill-rule="evenodd" clip-rule="evenodd" d="M299.408 283H301.556C324.466 283 327.374 295.438 327.374 302.635V304.134C327.374 311.247 324.466 323.954 301.556 323.954H299.408C276.447 323.954 273.539 311.247 273.539 304.134V302.601C273.539 295.438 276.447 283 299.408 283ZM300.473 314.449C310.956 314.449 313.391 307.775 313.391 303.68V302.955C313.391 298.91 311.142 292.438 300.473 292.438C289.805 292.438 287.573 298.91 287.573 302.955V303.578C287.573 307.573 289.991 314.449 300.473 314.449ZM119 297.123V290.786V284.432H171.06V290.786H138.258V297.123H119ZM372.078 303.982C376.474 305.061 379.366 307.404 379.366 312.325L379.383 322.505H365.856V316.049C365.856 311.701 364.013 306.847 358.67 306.847H345.719V322.505H332.192V284.432H364.318C374.665 284.432 379.23 288.022 379.23 294.207V294.78C379.194 296.878 378.477 298.907 377.188 300.565C375.899 302.224 374.107 303.423 372.078 303.982ZM360.767 300.51C364.482 300.51 365.836 298.745 365.839 296.491C365.836 294.287 364.516 292.522 360.767 292.522H345.668V300.51H360.767ZM459.121 305.837L470.179 284.449H488V322.522H474.609V298.775L462.182 322.522H455.266L442.89 298.775V322.522H429.685V284.449H448.266L459.121 305.837ZM210.962 300.511H188.796V284.449H175.27V322.522H188.796V306.848H210.962V322.522H224.438V284.449H210.962V300.511ZM256.58 306.848H243.916V313H270.157V322.522H230.575V284.449H269.768V293.753H243.916V300.511H256.58V306.848ZM398.117 306.848H410.781V300.511H398.117L398.1 293.753H398.117H423.969V284.449H384.776V322.522H424.358V313H398.1L398.117 306.848ZM151.784 297.124H138.258V322.506H151.784V297.124Z" fill="#FDF4EF"/>
</g>
<defs>
<linearGradient id="paint0_linear_162_45" x1="322.368" y1="0" x2="322.368" y2="585" gradientUnits="userSpaceOnUse">
<stop stop-color="#CCD0BB"/>
<stop offset="1" stop-color="#314232"/>
</linearGradient>
<clipPath id="clip0_162_45">
<rect width="369" height="42" fill="white" transform="translate(119 283)"/>
</clipPath>
</defs>
</svg>
