<svg width="157" height="28" viewBox="0 0 157 28" fill="none" xmlns="http://www.w3.org/2000/svg">
<g clip-path="url(#clip0_928_19549)">
<path d="M18.5808 25.7543C16.5018 24.435 14.9708 19.8814 14.9708 14.4717C14.9708 14.2732 14.9716 14.0772 14.9766 13.882L14.9791 13.8845C9.19741 12.9639 5.01948 10.4409 4.91284 7.45793L4.89548 7.49227C3.48024 9.27399 2.67259 11.3338 2.67259 13.5285C2.67259 19.9869 9.66861 25.2785 18.5428 25.7467L18.5808 25.7543ZM0 14.0001C0 6.77355 8.87502 0.914062 19.8233 0.914062C30.7716 0.914062 39.6466 6.77355 39.6466 14.0001C39.6466 21.2267 30.7716 27.0862 19.8233 27.0862C8.87502 27.0862 0 21.2267 0 14.0001ZM19.8233 2.80217C21.9371 2.80217 23.7342 6.05065 24.4005 10.5841L24.403 10.5774C28.5148 9.92905 31.394 8.43214 31.394 6.69146C31.394 4.35437 26.2134 2.46291 19.8233 2.46291C13.4332 2.46291 8.25254 4.3552 8.25254 6.69146C8.25254 8.43214 11.131 9.92821 15.2436 10.5774L15.2461 10.5841C15.9124 6.05148 17.7104 2.80217 19.8233 2.80217ZM21.103 25.7467C29.9772 25.2785 36.974 19.9869 36.974 13.5285C36.974 11.3338 36.1655 9.27399 34.7511 7.49227L34.7337 7.45793C34.6271 10.4409 30.45 12.9639 24.6675 13.8845L24.67 13.882C24.6741 14.0772 24.6758 14.2732 24.6758 14.4717C24.6758 19.8814 23.1432 24.435 21.0658 25.7543L21.103 25.7467ZM19.8233 10.9209C20.7706 10.9209 21.6907 10.8798 22.5711 10.8011L22.5703 10.8019C22.1322 7.89603 21.0674 5.84542 19.8233 5.84542C18.5792 5.84542 17.5153 7.89603 17.0763 10.8019L17.0755 10.8011C17.9559 10.8798 18.8759 10.9209 19.8233 10.9209ZM19.8233 21.6815C21.4146 21.6815 22.7125 18.3258 22.7819 14.1174L22.7902 14.1199C20.8164 14.3042 18.8302 14.3042 16.8564 14.1199L16.8655 14.1174C16.9341 18.3267 18.232 21.6815 19.8233 21.6815ZM101.152 14.0001C101.152 8.47653 105.571 3.9992 111.021 3.9992C116.474 3.9992 120.892 8.47737 120.892 14.0001C120.892 19.5245 116.473 24.001 111.021 24.001C105.571 24.001 101.152 19.5237 101.152 14.0001ZM111.021 20.3337C114.066 20.3337 116.533 17.4974 116.533 13.9993C116.533 10.502 114.066 7.66483 111.021 7.66483C107.978 7.66483 105.512 10.5012 105.512 13.9993C105.512 17.4974 107.979 20.3337 111.021 20.3337ZM132.092 8.16576V23.547H127.934V8.16576H127.948H122.132V4.68776H137.893V8.16492H132.092V8.16576ZM142.924 19.3042L142.92 19.3084L141.324 23.5479H136.467L144.145 4.6886H149.321L157 23.5479H152.143L150.547 19.3084L150.543 19.3042H146.735H142.924ZM146.735 16.1211H149.351L149.349 16.1219L146.752 9.21955H146.716L144.117 16.1219L144.116 16.1211H146.735ZM55.4333 8.16576V23.547H51.2744V8.16576H51.2884H45.4721V4.68776H61.234V8.16492H55.4333V8.16576ZM62.2987 14.0001C62.2987 8.47653 66.718 3.9992 72.1699 3.9992C77.6208 3.9992 82.0402 8.47737 82.0402 14.0001C82.0402 19.5245 77.6208 24.001 72.1699 24.001C66.718 24.001 62.2987 19.5237 62.2987 14.0001ZM72.1699 20.3337C75.2128 20.3337 77.6812 17.4974 77.6812 13.9993C77.6812 10.502 75.2136 7.66483 72.1699 7.66483C69.1261 7.66483 66.6585 10.5012 66.6585 13.9993C66.6585 17.4974 69.1261 20.3337 72.1699 20.3337ZM91.5955 23.547H93.7043V16.3858L100.959 4.68776H96.1033L91.5955 12.6146L87.0886 4.68776H82.2311L89.4867 16.3858V23.5462H91.5955V23.547Z" fill="#AAAAAA"/>
</g>
<defs>
<clipPath id="clip0_928_19549">
<rect width="157" height="28" fill="white"/>
</clipPath>
</defs>
</svg>
