<svg width="98" height="47" viewBox="0 0 98 47" fill="none" xmlns="http://www.w3.org/2000/svg">
<path fill-rule="evenodd" clip-rule="evenodd" d="M27.0195 16.4483C30.0638 7.17687 37.2274 0.113281 49.2258 0.113281C60.3287 0.113281 68.5665 7.35371 71.5217 16.6252C68.3872 7.9716 59.6124 1.70273 49.2258 1.70273C38.9283 1.70273 30.2426 7.8837 27.0195 16.4483ZM71.4321 30.5766C68.4764 39.848 59.9711 46.9995 49.2253 46.9995C37.8534 46.9995 30.153 39.9364 27.1087 30.7534C30.3323 39.318 39.018 45.4111 49.2253 45.4111C59.5228 45.4106 68.2986 39.2296 71.4321 30.5766Z" fill="#AAAAAA"/>
<path fill-rule="evenodd" clip-rule="evenodd" d="M55.3478 16.2609C54.9037 16.4351 54.3723 16.2609 53.9283 16.6089C53.9283 16.5218 53.8394 16.348 53.6618 16.4351H53.4842C53.9283 16.0866 53.2188 15.739 53.9283 15.739C54.4612 15.7385 54.9042 16.0866 55.3478 16.2609ZM97.7459 27.3131V25.0505L97.1241 25.5728H92.956V19.5677L93.4873 18.8716H89.9403L90.4722 19.5677V26.7031L89.9403 27.3131H97.7459ZM83.465 24.2672H80.627L82.0465 21.308L83.465 24.2672ZM87.5454 27.3131L83.3762 18.8716H80.4493L80.8046 19.5677L76.9013 27.3131H80.0941L79.5622 26.7036L80.0052 25.8338H84.0862L84.5292 26.7036L83.9085 27.3131H87.5454ZM74.7728 24.8762C74.7728 23.484 73.6197 22.7873 72.0226 22.2655C71.0471 21.9175 69.5388 21.7432 69.5388 21.0476C69.5388 20.6995 69.9829 20.5252 70.6919 20.5252C71.5795 20.5252 73.0868 20.8733 74.3287 21.3956V18.6106L73.6197 19.2196C72.9108 18.9587 71.6689 18.6978 70.7807 18.6978C67.8539 18.6978 66.9673 19.9157 66.9673 21.047C66.9673 22.6136 67.9427 23.3097 69.6276 23.9192C70.8695 24.3549 72.0226 24.3549 72.0226 25.0505C72.0226 25.6595 71.3136 25.7461 70.9583 25.7461C70.0717 25.7461 68.3857 25.3986 66.9673 24.4415V27.574L67.6762 26.8774C68.2974 27.1388 69.8047 27.574 71.0466 27.574C73.6197 27.5746 74.7728 26.4432 74.7728 24.8762ZM60.936 21.6565C60.936 22.2655 60.3153 22.7007 59.5165 22.7007H57.8315V20.6118H59.7824C60.4031 20.6118 60.936 20.9599 60.936 21.6565ZM63.8623 27.3131L61.5562 24.0063C62.7092 23.5706 63.5081 22.7007 63.5081 21.4828C63.5081 20.0029 62.6204 18.8716 60.1377 18.8716H54.8149L55.3478 19.5677V26.7031L54.8149 27.3126H58.3629L57.831 26.7031V24.2672H58.8953L60.5802 26.7031L60.0483 27.3126H63.8623V27.3131ZM51.5338 27.3131V25.0505L50.9131 25.5728H46.478V23.9192H49.3165L49.9377 24.4415V21.7432L49.3165 22.2655H46.478V20.6118H50.9131L51.5338 21.2213V18.8716H43.4623L43.9947 19.5677V26.7031L43.4623 27.3131H51.5338ZM41.3338 18.8716H38.2289L38.7613 19.5677L36.6328 24.1801L34.5037 19.5677L35.1249 18.8716H31.4881L35.4797 27.3131H37.2534L41.3338 18.8716ZM29.2708 27.3131L28.7384 26.7031V19.5677L29.2708 18.8716H25.6339L26.1663 19.5677V26.7031L25.6339 27.3131H29.2708ZM22.2636 18.8716H19.2479L19.7798 19.5677V23.7449L15.3452 18.8716H12.6843L13.2161 19.5677V26.7031L12.6843 27.3131H15.6999L15.168 26.7031V22.3527L19.7798 27.3131H21.7312V19.5677L22.2636 18.8716ZM9.75693 18.8716H6.12061L6.653 19.5677V24.1806C6.653 25.2248 5.9435 25.6595 4.87873 25.6595C3.81448 25.6595 3.10498 25.2248 3.10498 24.1806V19.5677L3.63736 18.8716H0L0.532386 19.5677V24.2672C0.532386 26.617 1.86309 27.4869 4.87873 27.4869C7.80606 27.4869 9.13625 26.617 9.13625 24.2672V19.5677L9.75693 18.8716ZM56.4125 16.5218C56.3237 16.6089 56.2349 16.6955 56.0573 16.6955V16.3475C56.1461 16.348 56.2349 16.4351 56.4125 16.5218ZM65.4594 30.0971C65.2818 29.8367 65.4594 29.4881 65.4594 29.4881H52.5093L53.9288 30.7066C54.284 30.8809 54.6388 31.1423 54.8154 31.6636C55.2595 32.7949 54.6388 31.8379 54.6388 33.5777C54.6388 35.1447 54.1947 34.8833 54.1947 34.8833C54.1947 34.8833 54.1059 36.7102 53.1305 37.8415C52.5093 38.451 52.9528 38.9728 52.9528 38.9728C52.9528 38.9728 52.7752 39.1471 52.4199 40.4527C52.3321 40.8885 52.9528 41.5841 53.3964 41.4098C53.7506 41.2365 52.5087 41.1494 53.9283 40.5399C54.4612 40.3656 54.0171 39.9309 54.0171 39.9309C54.0171 39.9309 54.9037 39.8438 55.3478 38.5382C56.2344 38.7124 55.9685 38.1896 57.7427 37.7554C58.2746 37.6683 58.3634 37.494 58.2746 37.0588C58.1858 36.6241 58.8958 37.1459 60.6695 35.3185C62.0891 33.9257 61.5562 33.5777 62.5326 33.0558C63.5969 32.533 63.6857 33.143 64.0399 32.7073C64.8388 31.6631 64.5728 31.7502 64.9276 31.0541L65.1042 30.7056C65.1042 30.7071 65.6371 30.2714 65.4594 30.0971ZM43.9059 15.3905C43.3741 14.6943 43.7288 13.7368 44.2612 12.7798C44.7048 12.1708 45.769 11.8227 46.6556 12.1708C47.7199 11.3875 47.9858 12.2579 48.8729 11.8227C50.0265 11.3875 49.4053 13.215 50.5584 13.6502C51.0025 12.4317 49.4941 11.4741 50.4696 10.8652C51.1796 10.43 51.7115 10.1691 51.9779 9.64671C52.421 8.86345 52.5098 8.25396 52.8645 8.16682C53.5735 7.9059 53.3974 7.20979 53.3974 7.20979C53.3974 7.20979 54.1952 7.4707 54.8159 6.86173C54.3729 6.6003 53.6628 6.42653 53.8405 5.90418C54.1069 5.38184 55.6148 6.51316 56.1466 5.55612C55.1712 5.20807 54.1958 4.33766 53.6628 4.07675C53.2198 4.51195 53.0422 4.33766 52.5098 3.99012C51.6232 3.294 51.6232 3.90297 51.0913 3.46777C50.6472 4.33766 51.2689 4.25052 51.4455 4.4248C51.9784 5.03378 50.9137 3.90246 51.0025 5.46898C51.0025 5.81704 50.4696 5.90418 50.027 5.03378C49.7606 4.59858 47.9863 4.68572 47.7204 4.25052C47.9863 3.81532 50.1159 2.07502 53.3974 2.51022C48.6075 0.595645 42.1322 2.59737 42.1322 3.29349C41.4227 3.72869 41.6886 4.16389 41.3338 4.25052C40.8015 4.51195 40.1808 6.1651 40.1808 6.1651C40.1808 6.1651 40.5355 6.33887 39.4713 7.55734C38.5841 8.51488 38.3182 9.99375 38.3182 9.99375C38.3182 9.99375 38.9389 11.0379 38.7618 12.2564C38.6735 13.2134 38.6735 12.5173 39.1171 13.1268C39.2942 13.562 39.5606 14.9542 39.7377 14.4319C40.0037 13.3877 39.2053 12.4307 39.2942 11.386C39.383 11.5603 39.6489 11.0379 39.6489 11.4731C39.6489 12.7782 41.2456 15.128 41.2456 15.128C41.2456 15.128 40.6249 15.737 41.2456 15.737L41.0684 16.085C41.0684 16.085 41.512 16.085 41.8668 16.3465C42.1327 16.6074 42.3991 16.8688 42.6651 16.8688H47.2773C47.2773 16.8688 47.6321 15.4766 47.898 15.3023C48.1645 15.0414 47.3662 15.3023 47.1002 15.0414C46.8338 14.7805 46.745 15.2157 46.5678 15.4766C46.4795 15.7375 46.3019 16.0855 45.9472 16.2598C45.5919 16.347 44.7941 16.4341 44.6165 16.4341C44.4388 16.4341 43.9059 15.3905 43.9059 15.3905ZM49.9377 14.6072C50.0265 14.3463 50.4696 14.52 50.8243 14.52C51.1791 14.52 51.0908 15.129 51.6221 15.0424C52.2433 14.8681 52.2433 15.5647 53.0416 15.4776C53.8394 15.4776 52.864 15.8257 52.864 15.8257C52.864 15.8257 52.3321 15.5642 52.0662 15.7385C51.8886 15.8257 52.0662 15.6514 51.7998 15.4776C51.3557 15.0424 51.4445 15.4776 50.7355 14.8681C50.2031 14.4329 49.6713 14.9552 49.9377 14.6072Z" fill="#AAAAAA"/>
</svg>
