<svg width="144" height="29" viewBox="0 0 144 29" fill="none" xmlns="http://www.w3.org/2000/svg">
<g clip-path="url(#clip0_928_19478)">
<path d="M48.0627 24.089H35.6716C35.2546 24.089 34.9448 23.7686 34.9448 23.3414V21.7979C34.9331 21.4174 35.052 21.2522 35.2898 20.9552L45.1554 9.26111H35.4924C35.0754 9.26111 34.7656 8.94072 34.7656 8.51354V7.42055C34.7656 7.00505 35.0754 6.67298 35.4924 6.67298H48.0024C48.4194 6.67298 48.7292 6.99337 48.7292 7.42055V8.99912C48.7292 9.28447 48.6337 9.52142 48.4194 9.7834L38.5421 21.5126H48.0744C48.4914 21.5126 48.8012 21.8329 48.8012 22.2601V23.3531C48.7895 23.7686 48.4797 24.089 48.0627 24.089ZM72.4763 24.4094C73.3706 24.3977 74.0254 24.2075 74.2749 23.9221C74.3587 23.8153 74.4056 23.6969 74.3938 23.5784C74.3821 23.4833 74.3821 23.4833 74.1443 22.3202L74.1326 22.2968C74.0857 21.9881 73.8697 21.858 73.6922 21.858H73.6687C73.6687 21.858 73.4426 21.8463 73.2283 21.8463C72.5969 21.8229 72.0727 21.7278 72.061 20.79V0.997797C72.061 0.665729 71.8701 0.333662 71.4899 0.320312H71.3828L69.6545 0.770856C69.3564 0.805899 69.0583 1.01949 69.07 1.41163V20.8334C69.0801 23.1395 70.2842 24.4094 72.4763 24.4094ZM107.457 24.089H105.908C105.491 24.089 105.181 23.7686 105.181 23.3414V11.4454C105.158 9.42797 104.562 8.86896 102.442 8.8456C100.047 8.8456 97.6168 9.46302 96.8062 9.68829V23.3531C96.8062 23.7803 96.5199 24.1007 96.1146 24.1007H94.5421C94.1251 24.1007 93.8152 23.7803 93.8152 23.3531V9.99699C93.7918 8.76217 93.9107 7.9078 95.6256 7.33712C97.2701 6.75475 100.427 6.26916 102.512 6.26916C106.479 6.26916 108.184 7.74094 108.184 11.1601V23.3531C108.172 23.7686 107.863 24.089 107.457 24.089ZM122.958 9.33286C122.387 9.17934 120.778 8.81056 118.967 8.81056C115.643 8.8456 114.25 9.76004 114.213 15.4119C114.248 21.6093 116.06 21.9414 119.003 21.9765V22.1066V21.9648C120.838 21.9648 122.411 21.5726 122.97 21.4191V9.33286H122.958ZM123.78 23.8637L123.601 23.9105C122.625 24.1591 121.279 24.5162 118.919 24.5162H118.907C112.414 24.5045 111.127 21.1571 111.127 15.3752C111.138 8.75049 113.188 6.28084 118.716 6.26916C120.671 6.26916 122.005 6.53114 122.97 6.7681L122.958 1.42498C122.947 1.18803 123.054 0.879321 123.601 0.784206L125.33 0.333662H125.425C125.819 0.345343 125.961 0.70244 125.961 1.01115V21.0754C125.984 22.3319 125.842 23.4115 123.78 23.8637ZM136.374 21.9281C132.12 21.9047 131.906 19.672 131.871 15.3985C131.906 11.1017 132.109 8.85728 136.374 8.83392C140.628 8.85728 140.854 11.1017 140.877 15.3985C140.842 19.672 140.628 21.9164 136.374 21.9281ZM136.374 6.25748C129.357 6.26916 128.761 10.9832 128.749 15.3985C128.749 19.8022 129.345 24.4928 136.374 24.5045C143.391 24.4928 143.987 19.8155 143.999 15.3985C143.987 10.7813 143.393 6.26916 136.374 6.25748ZM87.7026 15.4936C86.9992 15.5053 83.5913 15.5537 82.2331 15.8491L82.1259 15.8724C80.6003 16.2162 79.3978 16.5015 79.3744 18.8043C79.3744 21.7128 81.5548 21.9748 83.7822 21.9865V22.1166V21.9865C85.1755 21.9865 86.4985 21.7846 87.7026 21.3807V15.4936ZM90.7171 11.2552V20.4913C90.7522 22.7824 90.1694 23.5183 87.9053 24.0523C86.9155 24.2659 85.3915 24.5028 83.747 24.5145C81.3287 24.5028 76.2879 24.5028 76.2762 18.9461C76.2645 14.5775 78.8268 13.8049 81.935 13.331C83.9731 12.999 86.0464 12.9506 87.0947 12.9506H87.6674V11.372C87.6557 10.3274 87.6557 9.6983 86.7028 9.32952C86.1184 9.08089 85.2375 8.96074 83.9379 8.96074C81.7926 8.96074 79.8634 9.448 78.5889 9.78006L78.0999 9.89854C78.0531 9.91022 77.9928 9.9219 77.9207 9.93358C77.6947 9.93358 77.4435 9.79175 77.3614 9.49472L77.3497 9.47136L77.0633 7.9879V7.90447C77.0633 7.56072 77.3128 7.34713 77.5523 7.27537C78.5772 6.88323 81.2936 6.26582 84.2243 6.26582C86.3578 6.26582 87.9053 6.55117 88.9419 7.13187C90.7288 8.08635 90.7171 9.84347 90.7171 11.2552ZM62.5035 21.3941C61.2994 21.7979 59.9781 21.9998 58.5831 21.9998V22.13V21.9998C56.3557 21.9765 54.1753 21.7262 54.1753 18.8176C54.187 16.5032 55.3911 16.2295 56.9268 15.8858L57.034 15.8624C58.3922 15.5654 61.8002 15.507 62.5035 15.507V21.3941ZM63.7428 7.1352C62.7062 6.55284 61.1571 6.26916 59.0252 6.26916C56.0945 6.26916 53.3899 6.88657 52.3532 7.27871C52.1271 7.35046 51.8759 7.56406 51.8642 7.9078V7.97956L52.1489 9.46302L52.1606 9.49806C52.2561 9.79508 52.4939 9.93692 52.72 9.93692C52.792 9.93692 52.8506 9.92524 52.8992 9.90188L53.3882 9.7834C54.6626 9.46302 56.5936 8.96408 58.7372 8.96408C60.035 8.96408 60.9176 9.08256 61.5138 9.33286C62.4667 9.70164 62.4667 10.3307 62.4784 11.3753V12.9305H61.8939C60.8456 12.9305 58.7723 12.9773 56.7342 13.311C53.6243 13.7982 51.0503 14.5575 51.0754 18.9378C51.0754 24.4945 56.1146 24.5062 58.5462 24.5062C60.1908 24.5062 61.703 24.2575 62.7045 24.0439C64.9687 23.51 65.5398 22.7741 65.5163 20.483V11.2552C65.5063 9.84347 65.5063 8.08635 63.7428 7.1352Z" fill="#AAAAAA"/>
<path d="M26.2123 11.3718C24.1742 8.81874 21.3389 6.35076 17.6094 4.11806L17.5977 4.10638C13.8564 1.92208 10.3295 0.652211 7.14926 0.129914C5.17145 -0.202154 4.21855 0.176637 3.78983 0.43862C3.36111 0.687253 2.56228 1.34138 1.84718 3.25202C0.70337 6.3274 0.0351685 10.0786 0 14.4822V14.4939C0.0234457 18.8976 0.70337 22.6621 1.84718 25.7358C2.56228 27.6598 3.36111 28.3006 3.78983 28.5609C4.21855 28.8095 5.17145 29.2017 7.14926 28.8696C10.3312 28.3473 13.8447 27.0658 17.5977 24.8815L17.6094 24.8698C21.3389 22.6371 24.1742 20.1691 26.2123 17.616C27.475 16.0258 27.6307 14.9929 27.6307 14.4939C27.6307 13.995 27.4867 12.9637 26.2123 11.3718Z" fill="#AAAAAA"/>
</g>
<defs>
<clipPath id="clip0_928_19478">
<rect width="144" height="29" fill="white"/>
</clipPath>
</defs>
</svg>
