<svg width="202" height="135" viewBox="0 0 202 135" fill="none" xmlns="http://www.w3.org/2000/svg">
<path d="M178.173 61.945C177.342 60.4344 175.55 59.2888 173.603 59.2888C171.891 59.2888 170.385 59.9917 170.385 61.8145C170.385 63.3493 172.28 64.3904 174.254 65.6667C176.408 67.0199 178.642 68.6845 178.642 71.5751C178.642 75.3495 174.981 77.6651 170.749 77.6651C169.009 77.6651 167.192 77.327 165.141 76.5462L165.477 71.5224C166.465 73.5276 168.309 75.1143 171.033 75.1143C173.137 75.1143 174.694 74.1 174.694 72.3291C174.694 70.8194 173.421 69.8829 171.865 68.9465C168.592 66.9689 166.517 65.3796 166.517 62.5175C166.517 58.2217 170.099 56.7906 173.811 56.7906C175.965 56.7906 177.317 57.1815 178.692 57.1815L178.173 61.945ZM160.026 66.4467C159.557 67.2283 158.963 68.2937 158.597 69.0762C158.286 70.5591 158.13 72.5384 158.13 74.7235C158.13 75.6349 158.286 76.8575 158.701 77.2743H153.276C154.235 76.3638 154.626 70.7692 154.575 68.9983C153.848 66.4743 152.859 64.0532 151.354 61.1115C150.396 59.2645 149.278 57.5187 148.577 57.1815C149.796 57.0785 151.354 56.9999 152.108 56.9999C153.457 56.9999 153.822 57.1815 154.653 59.0042C155.949 61.9459 156.91 64.1561 157.482 65.7972C158.858 63.6364 159.818 62.1534 161.065 60.1231C161.376 59.6285 161.636 59.0042 161.636 58.405C161.636 57.9355 161.557 57.4158 161.35 57.1815H166.725C165.686 57.4158 161.012 64.7821 160.026 66.4467ZM141.151 61.894L137.933 68.8937H143.176L141.151 61.894ZM147.46 77.4559C145.746 77.4559 145.617 77.4049 144.24 72.6681L143.748 70.924C142.918 71.314 141.436 71.4964 139.075 71.4964H136.686L136.27 72.381C135.674 73.71 134.869 75.2691 134.869 76.3646C134.869 76.6249 134.895 76.9103 134.999 77.2751H120.823C121.628 76.3646 121.888 73.4238 122.277 68.0869L122.355 66.8124C122.563 63.7669 122.72 61.4245 122.693 59.7858C122.667 58.4326 122.537 57.5731 122.174 57.1832H127.653C126.873 57.7823 126.586 61.0086 126.224 66.3454L126.12 67.62C125.99 69.5984 125.731 71.6278 125.731 73.6062C125.731 74.5159 126.094 74.7243 127.03 74.7243C130.352 74.7243 131.184 74.6465 132.688 73.6314C133.622 71.9132 134.688 69.7524 135.725 67.5146L137.129 64.5218C138.453 61.7107 139.75 58.8469 139.75 58.3012C139.75 57.9096 139.646 57.5464 139.492 57.1815H143.853C143.853 57.1815 145.618 63.741 146.008 65.1453L146.863 68.3213C148.343 73.6573 149.279 76.2592 150.525 77.2743C149.485 77.4049 148.006 77.4559 147.46 77.4559V77.4559ZM112.127 77.6651C106.96 77.6651 103.974 73.397 103.974 68.6083C103.974 61.9459 107.582 56.7906 114.462 56.7906C116.617 56.7906 117.631 57.1815 119.369 57.1815L118.85 62.3091C117.863 60.5131 116.253 59.2896 114.099 59.2896C109.816 59.2896 108.076 63.9234 108.076 67.9053C108.076 72.2254 110.491 74.5929 113.709 74.5929C115.449 74.5929 116.98 74.1243 119.551 72.3291C118.513 75.6616 116.098 77.6652 112.127 77.6652V77.6651ZM94.213 59.6285C93.7196 59.6285 93.121 59.6285 92.6552 59.6804C92.4991 60.5391 92.3688 62.0229 92.1868 64.4164L92.0825 65.8232C92.3438 65.8759 92.6802 65.9027 92.9924 65.9027C95.4835 65.9027 97.1983 64.3913 97.1983 62.1024C97.1983 60.5391 96.108 59.6285 94.213 59.6285ZM101.455 78.1338C99.9757 78.1338 99.6117 77.8986 99.1192 77.2216L93.5109 69.4134C93.0692 68.8151 92.732 68.3205 92.0316 68.3205H91.9013L91.7986 69.8302C91.6676 71.8864 91.59 73.5275 91.59 74.7503C91.6158 76.1035 91.772 76.9354 92.1359 77.2743H86.7096C87.4876 76.5714 87.7723 74.2289 88.2148 68.0861L88.2932 66.8115C88.5011 63.7929 88.6572 61.4496 88.6305 59.811C88.6038 58.379 88.4494 57.4936 88.0587 57.1815H95.4577C97.872 57.1815 101.195 57.5991 101.195 61.5282C101.195 64.7545 99.0399 66.5253 96.3668 67.3572C96.6264 67.5923 97.0931 68.1907 97.3794 68.5556L101.455 73.9694C104 77.327 104.207 77.4827 105.117 77.9514C103.974 78.0811 102.443 78.1338 101.455 78.1338ZM76.1699 61.894L72.9225 68.8937H78.1927L76.17 61.894H76.1699ZM82.4771 77.4559C80.7648 77.4559 80.6346 77.4049 79.2588 72.6681L78.7654 70.924C77.9331 71.314 76.4538 71.4964 74.0913 71.4964H71.7028L71.2879 72.381C70.8722 73.3192 69.8595 75.2457 69.8854 76.3646C69.8854 76.6249 69.9113 76.8852 70.0157 77.2751H65.2129C66.5887 75.8959 68.3285 72.6949 70.7428 67.5154L72.1453 64.5227C73.4167 61.8161 74.7675 58.7448 74.7675 58.3021C74.7675 57.9104 74.6648 57.5472 74.5078 57.1823H78.8706C78.8706 57.1823 80.011 61.5291 81.0245 65.1461L81.881 68.3221C83.3611 73.6581 84.2953 76.26 85.5417 77.2751C84.4255 77.4049 83.023 77.4559 82.4771 77.4559ZM57.7605 59.6026C57.3706 59.6026 56.8522 59.6026 56.3588 59.6553C56.151 61.0604 56.0207 62.4137 55.918 63.8967C55.918 63.8967 55.8395 65.1712 55.8395 65.1193H56.3588C58.9033 65.1193 61.2408 64.2348 61.2408 61.894C61.2408 60.5391 60.1239 59.6026 57.7605 59.6026ZM57.1127 67.5664H55.6851L55.4773 70.5332C55.3737 71.8354 55.3211 72.9275 55.2953 74.2289C55.2953 74.4122 55.8663 74.8021 57.2153 74.8021C60.0195 74.8021 61.8636 73.397 61.8636 71.0797C61.8636 68.5029 59.7599 67.5664 57.1127 67.5664ZM57.4241 77.2743H50.4141C51.2973 76.4927 51.531 73.4481 51.9201 68.0861L51.9977 66.8375C52.2064 63.7921 52.3617 61.4496 52.3358 59.811C52.31 58.405 52.1538 57.4936 51.764 57.1815H59.6046C61.4738 57.1815 65.2129 57.2861 65.2129 61.1893C65.2129 63.792 62.7978 65.4056 60.5914 65.9797C63.7069 66.2918 66.0436 67.8007 66.0436 71.0278C66.0428 74.5151 62.7719 77.2743 57.4241 77.2743Z" fill="#00AEEF"/>
<path d="M34.6367 54.3684C33.9421 54.3684 33.7985 54.4897 33.5731 54.7416C33.4806 54.7361 33.3879 54.7336 33.2951 54.7341C32.7609 54.7341 32.0746 54.8128 31.4894 55.2053C30.9243 55.5794 30.6554 56.2413 30.9568 56.7259C30.9568 56.7259 31.1588 56.4288 31.8234 56.4288C31.9169 56.4288 32.0204 56.4388 32.1306 56.448C33.0489 56.5568 33.7284 57.0414 33.6458 58.321C33.5723 59.5998 33.094 61.0258 31.1371 61.0426C31.1371 61.0426 30.885 61.0426 30.6162 61.0175C29.7054 60.9179 29.4191 60.3446 29.4191 60.3446C29.4191 60.3446 30.2063 60.1303 30.213 59.1286C30.2063 58.4474 29.6144 57.8239 28.7604 57.572C28.4655 57.4885 28.1602 57.4474 27.8538 57.4498C26.847 57.4498 25.7166 57.8724 24.9544 58.87C23.2264 61.1572 23.0861 64.4914 23.5077 67.592C23.9318 70.6994 25.8978 73.5775 25.9554 73.6561C25.9971 73.7114 26.0347 73.7415 26.0773 73.7415C26.1025 73.7399 26.1265 73.7296 26.1449 73.7122C26.9939 72.8862 27.8037 71.7572 28.1501 71.0024C28.5208 71.2986 28.3271 71.9288 28.1234 72.6016C27.9297 73.2896 27.4589 74.2026 27.2886 74.4972C27.1241 74.7851 26.9038 75.1198 27.2001 75.2947C27.2349 75.3146 27.2745 75.3245 27.3145 75.3232C27.6952 75.3232 28.5909 74.6579 29.5902 73.3222C30.7089 71.8192 31.2765 70.4852 31.2765 70.4852C31.3584 70.5036 31.4953 70.6425 31.4727 71.0208C31.4577 71.4049 31.0637 72.8343 30.2965 74.165C29.5209 75.4948 28.8046 76.3267 28.6602 76.5158C28.5709 76.6254 28.6469 76.694 28.7045 76.7384C28.7612 76.7769 30.1328 78.0607 32.1256 79.1453C34.4864 80.4064 35.5333 80.6333 35.5333 80.6333C35.5333 80.6333 36.5777 80.4123 38.9385 79.152C40.9304 78.0657 42.3079 76.776 42.3588 76.7325C42.4164 76.6932 42.4899 76.6312 42.403 76.5107C42.267 76.33 41.5482 75.4939 40.7743 74.1641C40.0096 72.8427 39.6005 71.404 39.5947 71.0249C39.5788 70.6425 39.7074 70.5161 39.7859 70.4843C39.7859 70.4843 40.3594 71.8267 41.4781 73.3214C42.4823 74.6587 43.3698 75.3224 43.7521 75.3224C43.7935 75.3237 43.8344 75.3139 43.8707 75.2939C44.1578 75.119 43.9441 74.7792 43.7755 74.4947C43.6185 74.2018 43.141 73.2946 42.9382 72.6008C42.7436 71.9204 42.5416 71.2911 42.919 71.0015C43.2662 71.7564 44.0702 72.8912 44.9217 73.7055C44.9309 73.716 44.9422 73.7246 44.9548 73.7306C44.9675 73.7367 44.9812 73.7401 44.9952 73.7406C45.0327 73.7406 45.0728 73.7113 45.1079 73.6603C45.1705 73.5766 47.1398 70.7036 47.5606 67.5912C47.983 64.4838 47.8436 61.1572 46.1138 58.8692C45.3566 57.8691 44.2179 57.4439 43.2045 57.4439C42.8881 57.4439 42.5859 57.485 42.3095 57.5645C41.4488 57.8239 40.8595 58.4532 40.8645 59.1278C40.8645 60.1295 41.6559 60.3437 41.6559 60.3437C41.6559 60.3437 41.3912 60.9028 40.4479 61.0166C40.2784 61.0377 40.1078 61.0483 39.937 61.0484C39.2274 61.0484 38.6297 60.8225 38.0787 60.0425C37.5444 59.2918 37.5619 57.7461 37.531 57.2306C37.5068 56.7075 37.3949 55.5342 36.8465 55.0555C36.2997 54.5642 35.6335 54.3993 34.8028 54.3667C34.7419 54.3684 34.6876 54.3684 34.6367 54.3684Z" fill="#00AFE9"/>
</svg>
