<svg width="1291" height="737" viewBox="0 0 1291 737" fill="none" xmlns="http://www.w3.org/2000/svg">
<path opacity="0.3" fill-rule="evenodd" clip-rule="evenodd" d="M1289.98 0.500671C1289.7 0.500671 1289.48 0.724548 1289.48 1.00067L1289.48 735.125C1289.48 735.401 1289.7 735.625 1289.98 735.625C1290.25 735.625 1290.48 735.401 1290.48 735.125L1290.48 1.00067C1290.48 0.724548 1290.25 0.500671 1289.98 0.500671ZM1288.87 735.625C1288.87 735.901 1288.64 736.125 1288.37 736.125L0.732422 736.125C0.59436 736.125 0.482422 736.013 0.482422 735.875L0.482422 735.866C0.482422 735.733 0.37439 735.625 0.241211 735.625C0.108032 735.625 3.7682e-08 735.517 4.3505e-08 735.384L3.21557e-05 0.741887C3.21615e-05 0.608647 0.108064 0.500676 0.241243 0.500676C0.374422 0.500676 0.482454 0.392705 0.482454 0.259465L0.482454 0.25031C0.482454 0.112065 0.594515 -5.63825e-05 0.73282 -5.63765e-05L1288.37 -9.22051e-08C1288.64 -8.01346e-08 1288.87 0.223877 1288.87 0.5C1288.87 0.776123 1288.64 1 1288.37 1L1201.45 0.999996C1199.8 0.999996 1198.45 2.34314 1198.45 4L1198.45 87.9336C1198.45 89.5905 1199.8 90.9336 1201.45 90.9336L1288.37 90.9336C1288.64 90.9336 1288.87 91.1575 1288.87 91.4336C1288.87 91.7097 1288.64 91.9336 1288.37 91.9336L1201.45 91.9336C1199.8 91.9336 1198.45 93.2767 1198.45 94.9336L1198.45 181.055C1198.45 182.712 1199.8 184.055 1201.45 184.055L1288.37 184.055C1288.64 184.055 1288.87 184.279 1288.87 184.555C1288.87 184.831 1288.64 185.055 1288.37 185.055L1201.45 185.055C1199.8 185.055 1198.45 186.398 1198.45 188.055L1198.45 271.988C1198.45 273.645 1199.8 274.988 1201.45 274.988L1288.37 274.988C1288.64 274.988 1288.87 275.212 1288.87 275.488C1288.87 275.764 1288.64 275.988 1288.37 275.988L1201.45 275.988C1199.8 275.988 1198.45 277.331 1198.45 278.988L1198.45 364.012C1198.45 365.669 1199.8 367.012 1201.45 367.012L1288.37 367.012C1288.64 367.012 1288.87 367.236 1288.87 367.512C1288.87 367.788 1288.64 368.012 1288.37 368.012L1201.45 368.012C1199.8 368.012 1198.45 369.355 1198.45 371.012L1198.45 456.043C1198.45 457.7 1199.8 459.043 1201.45 459.043L1288.37 459.043C1288.64 459.043 1288.87 459.267 1288.87 459.543C1288.87 459.819 1288.64 460.043 1288.37 460.043L1201.45 460.043C1199.8 460.043 1198.45 461.386 1198.45 463.043L1198.45 548.07C1198.45 549.727 1199.8 551.07 1201.45 551.07L1288.37 551.07C1288.64 551.07 1288.87 551.294 1288.87 551.57C1288.87 551.846 1288.64 552.07 1288.37 552.07L1201.45 552.07C1199.8 552.07 1198.45 553.413 1198.45 555.07L1198.45 640.094C1198.45 641.751 1199.8 643.094 1201.45 643.094L1288.37 643.094C1288.64 643.094 1288.87 643.318 1288.87 643.594C1288.87 643.87 1288.64 644.094 1288.37 644.094L1201.45 644.094C1199.8 644.094 1198.45 645.437 1198.45 647.094L1198.45 732.125C1198.45 733.782 1199.8 735.125 1201.45 735.125L1288.37 735.125C1288.64 735.125 1288.87 735.349 1288.87 735.625ZM1.00003 3.99994C1.00003 2.34308 2.34317 0.999944 4.00003 0.999944L89.0235 0.999947C90.6803 0.999948 92.0235 2.34309 92.0235 3.99995L92.0235 87.9335C92.0235 89.5904 90.6803 90.9335 89.0235 90.9335L4.00003 90.9335C2.34317 90.9335 1.00003 89.5904 1.00003 87.9335L1.00003 3.99994ZM1.00003 94.9335C1.00003 93.2767 2.34317 91.9335 4.00003 91.9335L89.0235 91.9335C90.6803 91.9335 92.0235 93.2767 92.0235 94.9335L92.0235 181.055C92.0235 182.711 90.6803 184.055 89.0235 184.055L4.00002 184.055C2.34316 184.055 1.00002 182.711 1.00002 181.055L1.00003 94.9335ZM1.00002 188.055C1.00002 186.398 2.34316 185.055 4.00002 185.055L89.0235 185.055C90.6803 185.055 92.0235 186.398 92.0235 188.055L92.0235 271.988C92.0235 273.645 90.6803 274.988 89.0235 274.988L4.00002 274.988C2.34316 274.988 1.00002 273.645 1.00002 271.988L1.00002 188.055ZM1.00002 278.988C1.00002 277.331 2.34316 275.988 4.00002 275.988L89.0235 275.988C90.6803 275.988 92.0235 277.331 92.0235 278.988L92.0235 364.012C92.0235 365.669 90.6803 367.012 89.0235 367.012L4.00002 367.012C2.34316 367.012 1.00002 365.669 1.00002 364.012L1.00002 278.988ZM1.00002 371.012C1.00002 369.355 2.34316 368.012 4.00002 368.012L89.0235 368.012C90.6803 368.012 92.0235 369.355 92.0235 371.012L92.0234 456.043C92.0234 457.7 90.6803 459.043 89.0234 459.043L4.00001 459.043C2.34315 459.043 1.00001 457.7 1.00001 456.043L1.00002 371.012ZM1.00001 463.043C1.00001 461.386 2.34315 460.043 4.00001 460.043L89.0234 460.043C90.6803 460.043 92.0234 461.386 92.0234 463.043L92.0234 548.07C92.0234 549.727 90.6803 551.07 89.0234 551.07L4.00001 551.07C2.34315 551.07 1.00001 549.727 1.00001 548.07L1.00001 463.043ZM1.00001 555.07C1.00001 553.413 2.34315 552.07 4.00001 552.07L89.0234 552.07C90.6803 552.07 92.0234 553.413 92.0234 555.07L92.0234 640.094C92.0234 641.751 90.6803 643.094 89.0234 643.094L4 643.094C2.34314 643.094 1 641.751 1 640.094L1.00001 555.07ZM1 647.094C1 645.437 2.34314 644.094 4 644.094L89.0234 644.094C90.6803 644.094 92.0234 645.437 92.0234 647.094L92.0234 732.125C92.0234 733.782 90.6803 735.125 89.0234 735.125L4 735.125C2.34314 735.125 1 733.782 1 732.125L1 647.094ZM96.0234 644.094C94.3666 644.094 93.0234 645.437 93.0234 647.094L93.0234 732.125C93.0234 733.782 94.3666 735.125 96.0234 735.125L181.055 735.125C182.712 735.125 184.055 733.782 184.055 732.125L184.055 647.094C184.055 645.437 182.712 644.094 181.055 644.094L96.0234 644.094ZM96.0234 552.07C94.3666 552.07 93.0234 553.413 93.0234 555.07L93.0234 640.094C93.0234 641.751 94.3666 643.094 96.0234 643.094L181.055 643.094C182.712 643.094 184.055 641.751 184.055 640.094L184.055 555.07C184.055 553.413 182.712 552.07 181.055 552.07L96.0234 552.07ZM96.0234 460.043C94.3666 460.043 93.0234 461.386 93.0234 463.043L93.0234 548.07C93.0234 549.727 94.3666 551.07 96.0234 551.07L181.055 551.07C182.712 551.07 184.055 549.727 184.055 548.07L184.055 463.043C184.055 461.386 182.712 460.043 181.055 460.043L96.0234 460.043ZM96.0235 368.012C94.3666 368.012 93.0235 369.355 93.0235 371.012L93.0234 456.043C93.0234 457.7 94.3666 459.043 96.0234 459.043L181.055 459.043C182.712 459.043 184.055 457.7 184.055 456.043L184.055 371.012C184.055 369.355 182.712 368.012 181.055 368.012L96.0235 368.012ZM96.0235 275.988C94.3666 275.988 93.0235 277.331 93.0235 278.988L93.0235 364.012C93.0235 365.669 94.3666 367.012 96.0235 367.012L181.055 367.012C182.712 367.012 184.055 365.669 184.055 364.012L184.055 278.988C184.055 277.331 182.712 275.988 181.055 275.988L96.0235 275.988ZM96.0235 185.055C94.3666 185.055 93.0235 186.398 93.0235 188.055L93.0235 271.988C93.0235 273.645 94.3666 274.988 96.0235 274.988L181.055 274.988C182.712 274.988 184.055 273.645 184.055 271.988L184.055 188.055C184.055 186.398 182.712 185.055 181.055 185.055L96.0235 185.055ZM96.0235 91.9335C94.3666 91.9335 93.0235 93.2767 93.0235 94.9335L93.0235 181.055C93.0235 182.711 94.3666 184.055 96.0235 184.055L181.055 184.055C182.712 184.055 184.055 182.711 184.055 181.055L184.055 94.9335C184.055 93.2767 182.712 91.9335 181.055 91.9335L96.0235 91.9335ZM96.0235 0.999948C94.3666 0.999948 93.0235 2.34309 93.0235 3.99995L93.0235 87.9335C93.0235 89.5904 94.3666 90.9335 96.0235 90.9335L181.055 90.9335C182.712 90.9335 184.055 89.5904 184.055 87.9335L184.055 3.99995C184.055 2.34309 182.712 0.999952 181.055 0.999952L96.0235 0.999948ZM1194.45 90.9336C1196.11 90.9336 1197.45 89.5905 1197.45 87.9336L1197.45 4C1197.45 2.34314 1196.11 0.999996 1194.45 0.999996L1109.43 0.999992C1107.77 0.999992 1106.43 2.34313 1106.43 3.99999L1106.43 87.9336C1106.43 89.5904 1107.77 90.9336 1109.43 90.9336L1194.45 90.9336ZM1194.45 184.055C1196.11 184.055 1197.45 182.712 1197.45 181.055L1197.45 94.9336C1197.45 93.2767 1196.11 91.9336 1194.45 91.9336L1109.43 91.9336C1107.77 91.9336 1106.43 93.2767 1106.43 94.9336L1106.43 181.055C1106.43 182.712 1107.77 184.055 1109.43 184.055L1194.45 184.055ZM1194.45 274.988C1196.11 274.988 1197.45 273.645 1197.45 271.988L1197.45 188.055C1197.45 186.398 1196.11 185.055 1194.45 185.055L1109.43 185.055C1107.77 185.055 1106.43 186.398 1106.43 188.055L1106.43 271.988C1106.43 273.645 1107.77 274.988 1109.43 274.988L1194.45 274.988ZM1194.45 367.012C1196.11 367.012 1197.45 365.669 1197.45 364.012L1197.45 278.988C1197.45 277.331 1196.11 275.988 1194.45 275.988L1109.43 275.988C1107.77 275.988 1106.43 277.331 1106.43 278.988L1106.43 364.012C1106.43 365.669 1107.77 367.012 1109.43 367.012L1194.45 367.012ZM1194.45 459.043C1196.11 459.043 1197.45 457.7 1197.45 456.043L1197.45 371.012C1197.45 369.355 1196.11 368.012 1194.45 368.012L1109.43 368.012C1107.77 368.012 1106.43 369.355 1106.43 371.012L1106.43 456.043C1106.43 457.7 1107.77 459.043 1109.43 459.043L1194.45 459.043ZM1194.45 551.07C1196.11 551.07 1197.45 549.727 1197.45 548.07L1197.45 463.043C1197.45 461.386 1196.11 460.043 1194.45 460.043L1109.43 460.043C1107.77 460.043 1106.43 461.386 1106.43 463.043L1106.43 548.07C1106.43 549.727 1107.77 551.07 1109.43 551.07L1194.45 551.07ZM1194.45 643.094C1196.11 643.094 1197.45 641.751 1197.45 640.094L1197.45 555.07C1197.45 553.413 1196.11 552.07 1194.45 552.07L1109.43 552.07C1107.77 552.07 1106.43 553.413 1106.43 555.07L1106.43 640.094C1106.43 641.751 1107.77 643.094 1109.43 643.094L1194.45 643.094ZM1194.45 735.125C1196.11 735.125 1197.45 733.782 1197.45 732.125L1197.45 647.094C1197.45 645.437 1196.11 644.094 1194.45 644.094L1109.43 644.094C1107.77 644.094 1106.43 645.437 1106.43 647.094L1106.43 732.125C1106.43 733.782 1107.77 735.125 1109.43 735.125L1194.45 735.125ZM185.055 3.99995C185.055 2.34309 186.398 0.999952 188.055 0.999952L273.078 0.999956C274.735 0.999956 276.078 2.3431 276.078 3.99996L276.078 87.9335C276.078 89.5904 274.735 90.9335 273.078 90.9335L188.055 90.9335C186.398 90.9335 185.055 89.5904 185.055 87.9335L185.055 3.99995ZM185.055 94.9335C185.055 93.2767 186.398 91.9335 188.055 91.9335L273.078 91.9335C274.735 91.9335 276.078 93.2767 276.078 94.9335L276.078 181.055C276.078 182.712 274.735 184.055 273.078 184.055L188.055 184.055C186.398 184.055 185.055 182.711 185.055 181.055L185.055 94.9335ZM185.055 188.055C185.055 186.398 186.398 185.055 188.055 185.055L273.078 185.055C274.735 185.055 276.078 186.398 276.078 188.055L276.078 271.988C276.078 273.645 274.735 274.988 273.078 274.988L188.055 274.988C186.398 274.988 185.055 273.645 185.055 271.988L185.055 188.055ZM185.055 278.988C185.055 277.331 186.398 275.988 188.055 275.988L273.078 275.988C274.735 275.988 276.078 277.331 276.078 278.988L276.078 364.012C276.078 365.669 274.735 367.012 273.078 367.012L188.055 367.012C186.398 367.012 185.055 365.669 185.055 364.012L185.055 278.988ZM185.055 371.012C185.055 369.355 186.398 368.012 188.055 368.012L273.078 368.012C274.735 368.012 276.078 369.355 276.078 371.012L276.078 456.043C276.078 457.7 274.735 459.043 273.078 459.043L188.055 459.043C186.398 459.043 185.055 457.7 185.055 456.043L185.055 371.012ZM185.055 463.043C185.055 461.386 186.398 460.043 188.055 460.043L273.078 460.043C274.735 460.043 276.078 461.386 276.078 463.043L276.078 548.07C276.078 549.727 274.735 551.07 273.078 551.07L188.055 551.07C186.398 551.07 185.055 549.727 185.055 548.07L185.055 463.043ZM185.055 555.07C185.055 553.413 186.398 552.07 188.055 552.07L273.078 552.07C274.735 552.07 276.078 553.413 276.078 555.07L276.078 640.094C276.078 641.751 274.735 643.094 273.078 643.094L188.055 643.094C186.398 643.094 185.055 641.751 185.055 640.094L185.055 555.07ZM185.055 647.094C185.055 645.437 186.398 644.094 188.055 644.094L273.078 644.094C274.735 644.094 276.078 645.437 276.078 647.094L276.078 732.125C276.078 733.782 274.735 735.125 273.078 735.125L188.055 735.125C186.398 735.125 185.055 733.782 185.055 732.125L185.055 647.094ZM280.078 644.094C278.421 644.094 277.078 645.437 277.078 647.094L277.078 732.125C277.078 733.782 278.421 735.125 280.078 735.125L365.101 735.125C366.758 735.125 368.101 733.782 368.101 732.125L368.101 647.094C368.101 645.437 366.758 644.094 365.101 644.094L280.078 644.094ZM372.101 644.094C370.445 644.094 369.101 645.437 369.101 647.094L369.101 732.125C369.101 733.782 370.445 735.125 372.101 735.125L458.234 735.125C459.891 735.125 461.234 733.782 461.234 732.125L461.234 647.094C461.234 645.437 459.891 644.094 458.234 644.094L372.101 644.094ZM368.101 640.094C368.101 641.751 366.758 643.094 365.101 643.094L280.078 643.094C278.421 643.094 277.078 641.751 277.078 640.094L277.078 555.07C277.078 553.413 278.421 552.07 280.078 552.07L365.101 552.07C366.758 552.07 368.101 553.413 368.101 555.07L368.101 640.094ZM372.101 552.07C370.445 552.07 369.101 553.413 369.101 555.07L369.101 640.094C369.101 641.751 370.445 643.094 372.101 643.094L458.234 643.094C459.891 643.094 461.234 641.751 461.234 640.094L461.234 555.07C461.234 553.413 459.891 552.07 458.234 552.07L372.101 552.07ZM368.101 548.07C368.101 549.727 366.758 551.07 365.101 551.07L280.078 551.07C278.421 551.07 277.078 549.727 277.078 548.07L277.078 463.043C277.078 461.386 278.421 460.043 280.078 460.043L365.101 460.043C366.758 460.043 368.101 461.386 368.101 463.043L368.101 548.07ZM372.101 460.043C370.445 460.043 369.101 461.386 369.101 463.043L369.101 548.07C369.101 549.727 370.445 551.07 372.101 551.07L458.234 551.07C459.891 551.07 461.234 549.727 461.234 548.07L461.234 463.043C461.234 461.386 459.891 460.043 458.234 460.043L372.101 460.043ZM368.101 456.043C368.101 457.7 366.758 459.043 365.101 459.043L280.078 459.043C278.421 459.043 277.078 457.7 277.078 456.043L277.078 371.012C277.078 369.355 278.421 368.012 280.078 368.012L365.101 368.012C366.758 368.012 368.101 369.355 368.101 371.012L368.101 456.043ZM372.101 368.012C370.445 368.012 369.101 369.355 369.101 371.012L369.101 456.043C369.101 457.7 370.445 459.043 372.101 459.043L458.234 459.043C459.891 459.043 461.234 457.7 461.234 456.043L461.234 371.012C461.234 369.355 459.891 368.012 458.234 368.012L372.101 368.012ZM368.101 364.012C368.101 365.669 366.758 367.012 365.101 367.012L280.078 367.012C278.421 367.012 277.078 365.669 277.078 364.012L277.078 278.988C277.078 277.331 278.421 275.988 280.078 275.988L365.101 275.988C366.758 275.988 368.101 277.331 368.101 278.988L368.101 364.012ZM372.101 275.988C370.445 275.988 369.101 277.331 369.101 278.988L369.101 364.012C369.101 365.669 370.445 367.012 372.101 367.012L458.234 367.012C459.891 367.012 461.234 365.669 461.234 364.012L461.234 278.988C461.234 277.331 459.891 275.988 458.234 275.988L372.101 275.988ZM368.101 271.988C368.101 273.645 366.758 274.988 365.101 274.988L280.078 274.988C278.421 274.988 277.078 273.645 277.078 271.988L277.078 188.055C277.078 186.398 278.421 185.055 280.078 185.055L365.101 185.055C366.758 185.055 368.101 186.398 368.101 188.055L368.101 271.988ZM372.101 185.055C370.445 185.055 369.101 186.398 369.101 188.055L369.101 271.988C369.101 273.645 370.445 274.988 372.101 274.988L458.234 274.988C459.891 274.988 461.234 273.645 461.234 271.988L461.234 188.055C461.234 186.398 459.891 185.055 458.234 185.055L372.101 185.055ZM368.101 181.055C368.101 182.712 366.758 184.055 365.101 184.055L280.078 184.055C278.421 184.055 277.078 182.712 277.078 181.055L277.078 94.9335C277.078 93.2767 278.421 91.9335 280.078 91.9335L365.101 91.9336C366.758 91.9336 368.101 93.2767 368.101 94.9336L368.101 181.055ZM372.101 91.9336C370.445 91.9336 369.101 93.2767 369.101 94.9336L369.101 181.055C369.101 182.712 370.445 184.055 372.101 184.055L458.234 184.055C459.891 184.055 461.234 182.712 461.234 181.055L461.234 94.9336C461.234 93.2767 459.891 91.9336 458.234 91.9336L372.101 91.9336ZM368.101 87.9336C368.101 89.5904 366.758 90.9336 365.101 90.9336L280.078 90.9335C278.421 90.9335 277.078 89.5904 277.078 87.9335L277.078 3.99996C277.078 2.3431 278.421 0.999956 280.078 0.999956L365.101 0.99996C366.758 0.99996 368.101 2.3431 368.101 3.99996L368.101 87.9336ZM372.101 0.99996C370.445 0.99996 369.101 2.3431 369.101 3.99996L369.101 87.9336C369.101 89.5904 370.445 90.9336 372.101 90.9336L458.234 90.9336C459.891 90.9336 461.234 89.5904 461.234 87.9336L461.234 3.99996C461.234 2.3431 459.891 0.999964 458.234 0.999964L372.101 0.99996ZM462.234 3.99996C462.234 2.3431 463.578 0.999964 465.234 0.999964L550.266 0.999968C551.923 0.999968 553.266 2.34311 553.266 3.99997L553.266 87.9336C553.266 89.5904 551.923 90.9336 550.266 90.9336L465.234 90.9336C463.578 90.9336 462.234 89.5904 462.234 87.9336L462.234 3.99996ZM557.266 90.9336C555.609 90.9336 554.266 89.5904 554.266 87.9336L554.266 3.99997C554.266 2.34311 555.609 0.999968 557.266 0.999968L642.289 0.999972C643.946 0.999972 645.289 2.34311 645.289 3.99997L645.289 87.9336C645.289 89.5904 643.946 90.9336 642.289 90.9336L557.266 90.9336ZM649.289 90.9336C647.632 90.9336 646.289 89.5904 646.289 87.9336L646.289 3.99997C646.289 2.34311 647.632 0.999972 649.289 0.999972L734.328 0.999976C735.985 0.999976 737.328 2.34312 737.328 3.99998L737.328 87.9336C737.328 89.5904 735.985 90.9336 734.328 90.9336L649.289 90.9336ZM737.328 94.9336C737.328 93.2767 735.985 91.9336 734.328 91.9336L649.289 91.9336C647.632 91.9336 646.289 93.2767 646.289 94.9336L646.289 181.055C646.289 182.712 647.632 184.055 649.289 184.055L734.328 184.055C735.985 184.055 737.328 182.712 737.328 181.055L737.328 94.9336ZM642.289 184.055C643.946 184.055 645.289 182.712 645.289 181.055L645.289 94.9336C645.289 93.2767 643.946 91.9336 642.289 91.9336L557.266 91.9336C555.609 91.9336 554.266 93.2767 554.266 94.9336L554.266 181.055C554.266 182.712 555.609 184.055 557.266 184.055L642.289 184.055ZM554.266 188.055C554.266 186.398 555.609 185.055 557.266 185.055L642.289 185.055C643.946 185.055 645.289 186.398 645.289 188.055L645.289 271.988C645.289 273.645 643.946 274.988 642.289 274.988L557.266 274.988C555.609 274.988 554.266 273.645 554.266 271.988L554.266 188.055ZM649.289 274.988C647.632 274.988 646.289 273.645 646.289 271.988L646.289 188.055C646.289 186.398 647.632 185.055 649.289 185.055L734.328 185.055C735.985 185.055 737.328 186.398 737.328 188.055L737.328 271.988C737.328 273.645 735.985 274.988 734.328 274.988L649.289 274.988ZM737.328 278.988C737.328 277.331 735.985 275.988 734.328 275.988L649.289 275.988C647.632 275.988 646.289 277.331 646.289 278.988L646.289 364.012C646.289 365.669 647.632 367.012 649.289 367.012L734.328 367.012C735.985 367.012 737.328 365.669 737.328 364.012L737.328 278.988ZM642.289 367.012C643.946 367.012 645.289 365.669 645.289 364.012L645.289 278.988C645.289 277.331 643.946 275.988 642.289 275.988L557.266 275.988C555.609 275.988 554.266 277.331 554.266 278.988L554.266 364.012C554.266 365.669 555.609 367.012 557.266 367.012L642.289 367.012ZM554.266 371.012C554.266 369.355 555.609 368.012 557.266 368.012L642.289 368.012C643.946 368.012 645.289 369.355 645.289 371.012L645.289 456.043C645.289 457.7 643.946 459.043 642.289 459.043L557.266 459.043C555.609 459.043 554.266 457.7 554.266 456.043L554.266 371.012ZM649.289 459.043C647.632 459.043 646.289 457.7 646.289 456.043L646.289 371.012C646.289 369.355 647.632 368.012 649.289 368.012L734.328 368.012C735.985 368.012 737.328 369.355 737.328 371.012L737.328 456.043C737.328 457.7 735.985 459.043 734.328 459.043L649.289 459.043ZM737.328 463.043C737.328 461.386 735.985 460.043 734.328 460.043L649.289 460.043C647.632 460.043 646.289 461.386 646.289 463.043L646.289 548.07C646.289 549.727 647.632 551.07 649.289 551.07L734.328 551.07C735.985 551.07 737.328 549.727 737.328 548.07L737.328 463.043ZM642.289 551.07C643.946 551.07 645.289 549.727 645.289 548.07L645.289 463.043C645.289 461.386 643.946 460.043 642.289 460.043L557.266 460.043C555.609 460.043 554.266 461.386 554.266 463.043L554.266 548.07C554.266 549.727 555.609 551.07 557.266 551.07L642.289 551.07ZM554.266 555.07C554.266 553.413 555.609 552.07 557.266 552.07L642.289 552.07C643.946 552.07 645.289 553.413 645.289 555.07L645.289 640.094C645.289 641.751 643.946 643.094 642.289 643.094L557.266 643.094C555.609 643.094 554.266 641.751 554.266 640.094L554.266 555.07ZM649.289 643.094C647.632 643.094 646.289 641.751 646.289 640.094L646.289 555.07C646.289 553.413 647.632 552.07 649.289 552.07L734.328 552.07C735.985 552.07 737.328 553.413 737.328 555.07L737.328 640.094C737.328 641.751 735.985 643.094 734.328 643.094L649.289 643.094ZM737.328 647.094C737.328 645.437 735.985 644.094 734.328 644.094L649.289 644.094C647.632 644.094 646.289 645.437 646.289 647.094L646.289 732.125C646.289 733.782 647.632 735.125 649.289 735.125L734.328 735.125C735.985 735.125 737.328 733.782 737.328 732.125L737.328 647.094ZM642.289 735.125C643.946 735.125 645.289 733.782 645.289 732.125L645.289 647.094C645.289 645.437 643.946 644.094 642.289 644.094L557.266 644.094C555.609 644.094 554.266 645.437 554.266 647.094L554.266 732.125C554.266 733.782 555.609 735.125 557.266 735.125L642.289 735.125ZM550.266 184.055C551.923 184.055 553.266 182.712 553.266 181.055L553.266 94.9336C553.266 93.2767 551.923 91.9336 550.266 91.9336L465.234 91.9336C463.578 91.9336 462.234 93.2767 462.234 94.9336L462.234 181.055C462.234 182.712 463.578 184.055 465.234 184.055L550.266 184.055ZM462.234 188.055C462.234 186.398 463.578 185.055 465.234 185.055L550.266 185.055C551.923 185.055 553.266 186.398 553.266 188.055L553.266 271.988C553.266 273.645 551.923 274.988 550.266 274.988L465.234 274.988C463.578 274.988 462.234 273.645 462.234 271.988L462.234 188.055ZM550.266 367.012C551.923 367.012 553.266 365.669 553.266 364.012L553.266 278.988C553.266 277.331 551.923 275.988 550.266 275.988L465.234 275.988C463.578 275.988 462.234 277.331 462.234 278.988L462.234 364.012C462.234 365.669 463.578 367.012 465.234 367.012L550.266 367.012ZM462.234 371.012C462.234 369.355 463.578 368.012 465.234 368.012L550.266 368.012C551.923 368.012 553.266 369.355 553.266 371.012L553.266 456.043C553.266 457.7 551.922 459.043 550.266 459.043L465.234 459.043C463.578 459.043 462.234 457.7 462.234 456.043L462.234 371.012ZM550.266 551.07C551.922 551.07 553.266 549.727 553.266 548.07L553.266 463.043C553.266 461.386 551.922 460.043 550.266 460.043L465.234 460.043C463.578 460.043 462.234 461.386 462.234 463.043L462.234 548.07C462.234 549.727 463.578 551.07 465.234 551.07L550.266 551.07ZM462.234 555.07C462.234 553.413 463.578 552.07 465.234 552.07L550.266 552.07C551.922 552.07 553.266 553.413 553.266 555.07L553.266 640.094C553.266 641.751 551.922 643.094 550.266 643.094L465.234 643.094C463.578 643.094 462.234 641.751 462.234 640.094L462.234 555.07ZM550.266 735.125C551.922 735.125 553.266 733.782 553.266 732.125L553.266 647.094C553.266 645.437 551.922 644.094 550.266 644.094L465.234 644.094C463.578 644.094 462.234 645.437 462.234 647.094L462.234 732.125C462.234 733.782 463.578 735.125 465.234 735.125L550.266 735.125ZM741.328 644.094C739.671 644.094 738.328 645.437 738.328 647.094L738.328 732.125C738.328 733.782 739.671 735.125 741.328 735.125L826.344 735.125C828.001 735.125 829.344 733.782 829.344 732.125L829.344 647.094C829.344 645.437 828.001 644.094 826.344 644.094L741.328 644.094ZM833.344 644.094C831.687 644.094 830.344 645.437 830.344 647.094L830.344 732.125C830.344 733.782 831.687 735.125 833.344 735.125L918.359 735.125C920.016 735.125 921.359 733.782 921.359 732.125L921.359 647.094C921.359 645.437 920.016 644.094 918.359 644.094L833.344 644.094ZM925.359 644.094C923.703 644.094 922.359 645.437 922.359 647.094L922.359 732.125C922.359 733.782 923.703 735.125 925.359 735.125L1010.4 735.125C1012.06 735.125 1013.4 733.782 1013.4 732.125L1013.4 647.094C1013.4 645.437 1012.06 644.094 1010.4 644.094L925.359 644.094ZM1017.4 644.094C1015.74 644.094 1014.4 645.437 1014.4 647.094L1014.4 732.125C1014.4 733.782 1015.74 735.125 1017.4 735.125L1102.43 735.125C1104.09 735.125 1105.43 733.782 1105.43 732.125L1105.43 647.094C1105.43 645.437 1104.09 644.094 1102.43 644.094L1017.4 644.094ZM1014.4 640.094C1014.4 641.751 1015.74 643.094 1017.4 643.094L1102.43 643.094C1104.09 643.094 1105.43 641.751 1105.43 640.094L1105.43 555.07C1105.43 553.413 1104.09 552.07 1102.43 552.07L1017.4 552.07C1015.74 552.07 1014.4 553.413 1014.4 555.07L1014.4 640.094ZM1010.4 643.094C1012.06 643.094 1013.4 641.751 1013.4 640.094L1013.4 555.07C1013.4 553.413 1012.06 552.07 1010.4 552.07L925.359 552.07C923.703 552.07 922.359 553.413 922.359 555.07L922.359 640.094C922.359 641.751 923.703 643.094 925.359 643.094L1010.4 643.094ZM1013.4 548.07C1013.4 549.727 1012.06 551.07 1010.4 551.07L925.359 551.07C923.703 551.07 922.359 549.727 922.359 548.07L922.359 463.043C922.359 461.386 923.703 460.043 925.359 460.043L1010.4 460.043C1012.06 460.043 1013.4 461.386 1013.4 463.043L1013.4 548.07ZM1017.4 551.07C1015.74 551.07 1014.4 549.727 1014.4 548.07L1014.4 463.043C1014.4 461.386 1015.74 460.043 1017.4 460.043L1102.43 460.043C1104.09 460.043 1105.43 461.386 1105.43 463.043L1105.43 548.07C1105.43 549.727 1104.09 551.07 1102.43 551.07L1017.4 551.07ZM1014.4 456.043C1014.4 457.7 1015.74 459.043 1017.4 459.043L1102.43 459.043C1104.09 459.043 1105.43 457.7 1105.43 456.043L1105.43 371.012C1105.43 369.355 1104.09 368.012 1102.43 368.012L1017.4 368.012C1015.74 368.012 1014.4 369.355 1014.4 371.012L1014.4 456.043ZM1010.4 459.043C1012.06 459.043 1013.4 457.7 1013.4 456.043L1013.4 371.012C1013.4 369.355 1012.06 368.012 1010.4 368.012L925.359 368.012C923.703 368.012 922.359 369.355 922.359 371.012L922.359 456.043C922.359 457.7 923.703 459.043 925.359 459.043L1010.4 459.043ZM1013.4 364.012C1013.4 365.669 1012.06 367.012 1010.4 367.012L925.359 367.012C923.703 367.012 922.359 365.669 922.359 364.012L922.359 278.988C922.359 277.331 923.703 275.988 925.359 275.988L1010.4 275.988C1012.06 275.988 1013.4 277.331 1013.4 278.988L1013.4 364.012ZM1017.4 367.012C1015.74 367.012 1014.4 365.669 1014.4 364.012L1014.4 278.988C1014.4 277.331 1015.74 275.988 1017.4 275.988L1102.43 275.988C1104.09 275.988 1105.43 277.331 1105.43 278.988L1105.43 364.012C1105.43 365.669 1104.09 367.012 1102.43 367.012L1017.4 367.012ZM1014.4 271.988C1014.4 273.645 1015.74 274.988 1017.4 274.988L1102.43 274.988C1104.09 274.988 1105.43 273.645 1105.43 271.988L1105.43 188.055C1105.43 186.398 1104.09 185.055 1102.43 185.055L1017.4 185.055C1015.74 185.055 1014.4 186.398 1014.4 188.055L1014.4 271.988ZM1010.4 274.988C1012.06 274.988 1013.4 273.645 1013.4 271.988L1013.4 188.055C1013.4 186.398 1012.06 185.055 1010.4 185.055L925.359 185.055C923.703 185.055 922.359 186.398 922.359 188.055L922.359 271.988C922.359 273.645 923.703 274.988 925.359 274.988L1010.4 274.988ZM1013.4 181.055C1013.4 182.712 1012.06 184.055 1010.4 184.055L925.359 184.055C923.703 184.055 922.359 182.712 922.359 181.055L922.359 94.9336C922.359 93.2767 923.703 91.9336 925.359 91.9336L1010.4 91.9336C1012.06 91.9336 1013.4 93.2767 1013.4 94.9336L1013.4 181.055ZM1017.4 184.055C1015.74 184.055 1014.4 182.712 1014.4 181.055L1014.4 94.9336C1014.4 93.2767 1015.74 91.9336 1017.4 91.9336L1102.43 91.9336C1104.09 91.9336 1105.43 93.2767 1105.43 94.9336L1105.43 181.055C1105.43 182.712 1104.09 184.055 1102.43 184.055L1017.4 184.055ZM1014.4 87.9336C1014.4 89.5904 1015.74 90.9336 1017.4 90.9336L1102.43 90.9336C1104.09 90.9336 1105.43 89.5904 1105.43 87.9336L1105.43 3.99999C1105.43 2.34313 1104.09 0.999992 1102.43 0.999992L1017.4 0.999988C1015.74 0.999988 1014.4 2.34313 1014.4 3.99999L1014.4 87.9336ZM1010.4 90.9336C1012.06 90.9336 1013.4 89.5904 1013.4 87.9336L1013.4 3.99999C1013.4 2.34313 1012.06 0.999988 1010.4 0.999988L925.359 0.999984C923.703 0.999984 922.359 2.34312 922.359 3.99998L922.359 87.9336C922.359 89.5904 923.703 90.9336 925.359 90.9336L1010.4 90.9336ZM918.359 643.094C920.016 643.094 921.359 641.751 921.359 640.094L921.359 555.07C921.359 553.413 920.016 552.07 918.359 552.07L833.344 552.07C831.687 552.07 830.344 553.413 830.344 555.07L830.344 640.094C830.344 641.751 831.687 643.094 833.344 643.094L918.359 643.094ZM921.359 548.07C921.359 549.727 920.016 551.07 918.359 551.07L833.344 551.07C831.687 551.07 830.344 549.727 830.344 548.07L830.344 463.043C830.344 461.386 831.687 460.043 833.344 460.043L918.359 460.043C920.016 460.043 921.359 461.386 921.359 463.043L921.359 548.07ZM918.359 459.043C920.016 459.043 921.359 457.7 921.359 456.043L921.359 371.012C921.359 369.355 920.016 368.012 918.359 368.012L833.344 368.012C831.687 368.012 830.344 369.355 830.344 371.012L830.344 456.043C830.344 457.7 831.687 459.043 833.344 459.043L918.359 459.043ZM921.359 364.012C921.359 365.669 920.016 367.012 918.359 367.012L833.344 367.012C831.687 367.012 830.344 365.669 830.344 364.012L830.344 278.988C830.344 277.331 831.687 275.988 833.344 275.988L918.359 275.988C920.016 275.988 921.359 277.331 921.359 278.988L921.359 364.012ZM918.359 274.988C920.016 274.988 921.359 273.645 921.359 271.988L921.359 188.055C921.359 186.398 920.016 185.055 918.359 185.055L833.344 185.055C831.687 185.055 830.344 186.398 830.344 188.055L830.344 271.988C830.344 273.645 831.687 274.988 833.344 274.988L918.359 274.988ZM921.359 181.055C921.359 182.712 920.016 184.055 918.359 184.055L833.344 184.055C831.687 184.055 830.344 182.712 830.344 181.055L830.344 94.9336C830.344 93.2767 831.687 91.9336 833.344 91.9336L918.359 91.9336C920.016 91.9336 921.359 93.2767 921.359 94.9336L921.359 181.055ZM918.359 90.9336C920.016 90.9336 921.359 89.5904 921.359 87.9336L921.359 3.99998C921.359 2.34312 920.016 0.999984 918.359 0.999984L833.344 0.99998C831.687 0.99998 830.344 2.34312 830.344 3.99998L830.344 87.9336C830.344 89.5904 831.687 90.9336 833.344 90.9336L918.359 90.9336ZM826.344 643.094C828.001 643.094 829.344 641.751 829.344 640.094L829.344 555.07C829.344 553.413 828.001 552.07 826.344 552.07L741.328 552.07C739.671 552.07 738.328 553.413 738.328 555.07L738.328 640.094C738.328 641.751 739.671 643.094 741.328 643.094L826.344 643.094ZM829.344 548.07C829.344 549.727 828.001 551.07 826.344 551.07L741.328 551.07C739.671 551.07 738.328 549.727 738.328 548.07L738.328 463.043C738.328 461.386 739.671 460.043 741.328 460.043L826.344 460.043C828.001 460.043 829.344 461.386 829.344 463.043L829.344 548.07ZM826.344 459.043C828.001 459.043 829.344 457.7 829.344 456.043L829.344 371.012C829.344 369.355 828.001 368.012 826.344 368.012L741.328 368.012C739.671 368.012 738.328 369.355 738.328 371.012L738.328 456.043C738.328 457.7 739.671 459.043 741.328 459.043L826.344 459.043ZM829.344 364.012C829.344 365.669 828.001 367.012 826.344 367.012L741.328 367.012C739.671 367.012 738.328 365.669 738.328 364.012L738.328 278.988C738.328 277.331 739.671 275.988 741.328 275.988L826.344 275.988C828.001 275.988 829.344 277.331 829.344 278.988L829.344 364.012ZM826.344 274.988C828.001 274.988 829.344 273.645 829.344 271.988L829.344 188.055C829.344 186.398 828.001 185.055 826.344 185.055L741.328 185.055C739.671 185.055 738.328 186.398 738.328 188.055L738.328 271.988C738.328 273.645 739.671 274.988 741.328 274.988L826.344 274.988ZM829.344 181.055C829.344 182.712 828.001 184.055 826.344 184.055L741.328 184.055C739.671 184.055 738.328 182.712 738.328 181.055L738.328 94.9336C738.328 93.2767 739.671 91.9336 741.328 91.9336L826.344 91.9336C828.001 91.9336 829.344 93.2767 829.344 94.9336L829.344 181.055ZM826.344 90.9336C828.001 90.9336 829.344 89.5904 829.344 87.9336L829.344 3.99998C829.344 2.34312 828.001 0.99998 826.344 0.99998L741.328 0.999976C739.671 0.999976 738.328 2.34312 738.328 3.99998L738.328 87.9336C738.328 89.5904 739.671 90.9336 741.328 90.9336L826.344 90.9336Z" fill="url(#paint0_linear_898_21465)"/>
<defs>
<linearGradient id="paint0_linear_898_21465" x1="522.982" y1="385.506" x2="-0.00116922" y2="385.506" gradientUnits="userSpaceOnUse">
<stop stop-color="#8CEC62"/>
<stop offset="1" stop-color="#1F201F"/>
</linearGradient>
</defs>
</svg>
