<svg width="645" height="585" viewBox="0 0 645 585" fill="none" xmlns="http://www.w3.org/2000/svg">
<path d="M586.238 62.8379L586.229 62.8286L586.221 62.8189L534.006 3.71053C532.203 1.66915 529.61 0.5 526.886 0.5H114.083H10.0034C4.75665 0.5 0.503357 4.7533 0.503357 10V122.603V458.038C0.503357 460.274 1.29248 462.439 2.73169 464.151L54.8358 526.128L112.656 583.608C113.231 584.179 114.009 584.5 114.819 584.5H634.739C639.986 584.5 644.239 580.247 644.239 575V125.895C644.239 123.409 643.264 121.021 641.524 119.246L586.238 62.8379Z" stroke="url(#paint0_linear_162_44)"/>
<g opacity="0.7">
<path d="M329.942 250.874H309L295.038 278.804L310.572 278.807L319.527 260.917L356.337 334.664H371.871L329.942 250.874Z" fill="white"/>
<path d="M322.961 285.795L141.46 285.788L134.479 299.753H162.403V320.701H137.653C122.35 320.701 109.9 308.227 109.9 292.781C109.9 277.334 122.35 264.837 137.653 264.837H169.357V250.865L137.653 250.865C114.685 250.865 96 269.668 96 292.781C96 315.893 114.685 334.666 137.653 334.666H176.364V299.753H197.307V334.666H253.153L260.134 320.701H211.268V299.753H284.479L267.115 334.666H282.641L300.096 299.753H329.942L322.961 285.795Z" fill="white"/>
<path d="M211.269 264.835L260.134 264.839V250.874L197.3 250.863L197.301 278.807H211.269V264.835Z" fill="white"/>
<path d="M406.737 270.059H396.117V263.312H405.889V260.461H396.117V253.745H406.607V250.882H392.795V272.922H406.737V270.059Z" fill="white"/>
<path d="M414.021 263.107C414.021 262.232 414.186 261.485 414.521 260.864C414.853 260.243 415.309 259.772 415.886 259.449C416.463 259.126 417.127 258.964 417.872 258.964C418.963 258.964 419.821 259.303 420.444 259.982C421.068 260.66 421.379 261.597 421.379 262.795V272.923H424.598V262.409C424.598 261.046 424.364 259.901 423.896 258.976C423.432 258.05 422.773 257.353 421.928 256.882C421.082 256.413 420.095 256.178 418.969 256.178C417.728 256.178 416.7 256.443 415.886 256.973C415.072 257.504 414.475 258.208 414.096 259.082H413.891V256.393H410.803V272.923H414.021V263.107Z" fill="white"/>
<path d="M439.619 278.777C440.742 278.339 441.634 277.667 442.295 276.76C442.953 275.852 443.285 274.694 443.285 273.288V256.393H440.13V259.072H439.894C439.7 258.727 439.426 258.33 439.071 257.878C438.716 257.425 438.222 257.029 437.593 256.689C436.961 256.348 436.132 256.178 435.108 256.178C433.78 256.178 432.593 256.513 431.545 257.184C430.498 257.854 429.675 258.818 429.077 260.073C428.477 261.329 428.177 262.836 428.177 264.593C428.177 266.351 428.48 267.831 429.086 269.032C429.692 270.235 430.518 271.141 431.563 271.755C432.605 272.368 433.78 272.676 435.084 272.676C436.098 272.676 436.917 272.517 437.55 272.202C438.182 271.886 438.678 271.512 439.039 271.082C439.403 270.652 439.68 270.261 439.873 269.91H440.078V273.159C440.078 274.437 439.68 275.37 438.883 275.957C438.087 276.546 437.079 276.839 435.861 276.839C434.972 276.839 434.244 276.714 433.682 276.464C433.119 276.213 432.674 275.911 432.348 275.559C432.022 275.208 431.762 274.882 431.569 274.58L428.803 275.721C429.095 276.38 429.542 276.992 430.137 277.555C430.731 278.118 431.502 278.573 432.443 278.917C433.387 279.262 434.516 279.434 435.829 279.434C437.235 279.434 438.496 279.214 439.619 278.777ZM439.611 267.483C439.276 268.297 438.788 268.921 438.147 269.355C437.503 269.79 436.721 270.007 435.795 270.007C434.842 270.007 434.039 269.777 433.39 269.318C432.741 268.859 432.253 268.219 431.924 267.402C431.592 266.584 431.427 265.634 431.427 264.55C431.427 263.496 431.592 262.541 431.918 261.687C432.244 260.834 432.729 260.158 433.376 259.658C434.019 259.16 434.828 258.911 435.795 258.911C436.736 258.911 437.524 259.149 438.162 259.627C438.8 260.103 439.285 260.766 439.616 261.612C439.946 262.459 440.11 263.438 440.11 264.55C440.11 265.691 439.943 266.669 439.611 267.483Z" fill="white"/>
<path d="M449.226 253.842C449.786 253.842 450.266 253.654 450.664 253.277C451.062 252.9 451.259 252.45 451.259 251.926C451.259 251.395 451.062 250.941 450.664 250.564C450.266 250.188 449.786 250 449.226 250C448.666 250 448.187 250.188 447.789 250.564C447.391 250.941 447.194 251.395 447.194 251.926C447.194 252.45 447.391 252.9 447.789 253.277C448.187 253.654 448.666 253.842 449.226 253.842Z" fill="white"/>
<path d="M450.818 256.393H447.6V272.922H450.818V256.393Z" fill="white"/>
<path d="M458.362 263.107C458.362 262.232 458.527 261.485 458.862 260.864C459.193 260.243 459.65 259.772 460.227 259.449C460.804 259.126 461.468 258.964 462.213 258.964C463.304 258.964 464.161 259.303 464.785 259.982C465.408 260.66 465.72 261.597 465.72 262.795V272.923H468.939V262.409C468.939 261.046 468.705 259.901 468.237 258.976C467.773 258.05 467.114 257.353 466.269 256.882C465.423 256.413 464.436 256.178 463.31 256.178C462.069 256.178 461.041 256.443 460.227 256.973C459.413 257.504 458.815 258.208 458.437 259.082H458.232V256.393H455.144V272.923H458.362V263.107Z" fill="white"/>
<path d="M476.158 272.207C477.33 272.907 478.733 273.256 480.361 273.256C481.565 273.256 482.639 273.071 483.583 272.702C484.527 272.332 485.312 271.813 485.938 271.141C486.567 270.471 487.003 269.687 487.246 268.79L484.2 268.241C484.007 268.758 483.727 269.192 483.363 269.543C482.997 269.895 482.561 270.158 482.061 270.334C481.559 270.51 481.002 270.598 480.393 270.598C479.452 270.598 478.632 270.395 477.928 269.991C477.226 269.585 476.678 268.995 476.288 268.219C475.925 267.503 475.75 266.628 475.724 265.626H487.451V264.486C487.451 262.986 487.249 261.711 486.847 260.66C486.446 259.609 485.898 258.753 485.202 258.093C484.506 257.432 483.721 256.949 482.847 256.64C481.969 256.332 481.065 256.178 480.133 256.178C478.6 256.178 477.261 256.54 476.115 257.265C474.972 257.99 474.083 258.997 473.448 260.288C472.813 261.58 472.495 263.073 472.495 264.765C472.495 266.48 472.813 267.974 473.448 269.247C474.083 270.52 474.986 271.508 476.158 272.207ZM476.245 261.219C476.606 260.513 477.122 259.938 477.795 259.497C478.465 259.056 479.253 258.836 480.156 258.836C480.988 258.836 481.715 259.026 482.336 259.406C482.953 259.787 483.438 260.305 483.782 260.961C484.125 261.617 484.298 262.37 484.298 263.216H475.736C475.776 262.507 475.927 261.837 476.245 261.219Z" fill="white"/>
<path d="M493.954 272.207C495.126 272.907 496.529 273.256 498.157 273.256C499.361 273.256 500.435 273.071 501.379 272.702C502.322 272.332 503.108 271.813 503.734 271.141C504.363 270.471 504.799 269.687 505.042 268.79L501.996 268.241C501.803 268.758 501.523 269.192 501.159 269.543C500.793 269.895 500.357 270.158 499.857 270.334C499.355 270.51 498.798 270.598 498.189 270.598C497.248 270.598 496.428 270.395 495.724 269.991C495.022 269.585 494.474 268.995 494.084 268.219C493.721 267.503 493.546 266.628 493.52 265.626H505.247V264.486C505.247 262.986 505.045 261.711 504.643 260.66C504.242 259.609 503.694 258.753 502.998 258.093C502.302 257.432 501.517 256.949 500.642 256.64C499.765 256.332 498.861 256.178 497.929 256.178C496.396 256.178 495.057 256.54 493.911 257.265C492.768 257.99 491.879 258.997 491.244 260.288C490.609 261.58 490.291 263.073 490.291 264.765C490.291 266.48 490.609 267.974 491.244 269.247C491.879 270.52 492.782 271.508 493.954 272.207ZM494.041 261.219C494.402 260.513 494.918 259.938 495.591 259.497C496.261 259.056 497.049 258.836 497.952 258.836C498.783 258.836 499.511 259.026 500.132 259.406C500.749 259.787 501.234 260.305 501.578 260.961C501.921 261.617 502.094 262.37 502.094 263.216H493.532C493.572 262.507 493.723 261.837 494.041 261.219Z" fill="white"/>
<path d="M512.048 262.829C512.048 262.111 512.218 261.47 512.564 260.907C512.908 260.344 513.376 259.902 513.967 259.583C514.559 259.264 515.235 259.104 515.997 259.104C516.326 259.104 516.655 259.129 516.984 259.175C517.316 259.221 517.544 259.263 517.674 259.299V256.221C517.515 256.199 517.298 256.181 517.024 256.166C516.747 256.152 516.508 256.145 516.308 256.145C515.338 256.145 514.472 256.402 513.71 256.914C512.945 257.428 512.411 258.13 512.111 259.019H511.938V256.393H508.829V272.923H512.048V262.829Z" fill="white"/>
<path d="M523.689 256.393H520.471V272.922H523.689V256.393Z" fill="white"/>
<path d="M522.096 253.842C522.656 253.842 523.135 253.654 523.533 253.277C523.932 252.9 524.128 252.45 524.128 251.926C524.128 251.395 523.932 250.941 523.533 250.564C523.135 250.188 522.656 250 522.096 250C521.536 250 521.056 250.188 520.658 250.564C520.26 250.941 520.063 251.395 520.063 251.926C520.063 252.45 520.26 252.9 520.658 253.277C521.056 253.654 521.536 253.842 522.096 253.842Z" fill="white"/>
<path d="M541.81 272.923V262.409C541.81 261.046 541.576 259.901 541.108 258.976C540.644 258.05 539.985 257.353 539.14 256.882C538.294 256.413 537.307 256.178 536.181 256.178C534.94 256.178 533.912 256.443 533.098 256.973C532.284 257.504 531.686 258.208 531.308 259.082H531.103V256.393H528.015V272.923H531.233V263.107C531.233 262.232 531.398 261.485 531.733 260.864C532.065 260.243 532.521 259.772 533.098 259.449C533.675 259.126 534.339 258.964 535.084 258.964C536.175 258.964 537.032 259.303 537.656 259.982C538.279 260.66 538.591 261.597 538.591 262.795V272.923H541.81Z" fill="white"/>
<path d="M557.342 256.393V259.072H557.105C556.912 258.727 556.638 258.33 556.283 257.878C555.928 257.425 555.434 257.029 554.805 256.689C554.173 256.348 553.344 256.178 552.319 256.178C550.992 256.178 549.805 256.513 548.757 257.184C547.71 257.854 546.887 258.818 546.289 260.073C545.689 261.329 545.389 262.836 545.389 264.593C545.389 266.351 545.692 267.831 546.298 269.032C546.904 270.235 547.73 271.141 548.775 271.755C549.817 272.368 550.992 272.676 552.296 272.676C553.31 272.676 554.129 272.517 554.761 272.202C555.394 271.886 555.89 271.512 556.251 271.082C556.615 270.652 556.892 270.261 557.085 269.91H557.29V273.159C557.29 274.437 556.892 275.37 556.095 275.957C555.298 276.546 554.291 276.839 553.073 276.839C552.184 276.839 551.456 276.714 550.893 276.464C550.331 276.213 549.886 275.911 549.56 275.559C549.234 275.208 548.974 274.882 548.78 274.58L546.015 275.721C546.307 276.38 546.754 276.992 547.349 277.555C547.943 278.118 548.714 278.573 549.655 278.917C550.599 279.262 551.728 279.434 553.041 279.434C554.447 279.434 555.708 279.214 556.831 278.777C557.954 278.339 558.846 277.667 559.507 276.76C560.165 275.852 560.497 274.694 560.497 273.288V256.393H557.342ZM556.823 267.483C556.488 268.297 556 268.921 555.359 269.355C554.715 269.79 553.933 270.007 553.006 270.007C552.054 270.007 551.251 269.777 550.602 269.318C549.952 268.859 549.465 268.219 549.135 267.402C548.804 266.584 548.639 265.634 548.639 264.55C548.639 263.496 548.804 262.541 549.13 261.687C549.456 260.834 549.941 260.158 550.587 259.658C551.231 259.16 552.039 258.911 553.006 258.911C553.947 258.911 554.736 259.149 555.373 259.627C556.011 260.103 556.496 260.766 556.828 261.612C557.157 262.459 557.322 263.438 557.322 264.55C557.322 265.691 557.154 266.669 556.823 267.483Z" fill="white"/>
<path d="M393.622 303.794H396.838V289.847H400.4V287.264H396.838V285.778C396.838 285.046 397.005 284.488 397.337 284.099C397.672 283.712 398.229 283.519 399.011 283.519C399.349 283.519 399.635 283.549 399.872 283.61C400.108 283.671 400.302 283.723 400.452 283.766L401.205 281.161C400.983 281.075 400.642 280.981 400.183 280.877C399.724 280.773 399.173 280.72 398.526 280.72C397.652 280.72 396.841 280.892 396.096 281.232C395.348 281.573 394.751 282.085 394.297 282.771C393.847 283.455 393.622 284.314 393.622 285.348V287.264H391.062V289.847H393.622V303.794Z" fill="white"/>
<path d="M418.134 295.604C418.134 293.889 417.817 292.39 417.179 291.106C416.541 289.822 415.643 288.825 414.489 288.114C413.334 287.404 411.98 287.049 410.433 287.049C408.883 287.049 407.532 287.404 406.377 288.114C405.22 288.825 404.325 289.822 403.687 291.106C403.049 292.39 402.729 293.889 402.729 295.604C402.729 297.312 403.049 298.805 403.687 300.081C404.325 301.358 405.22 302.352 406.377 303.062C407.532 303.772 408.883 304.127 410.433 304.127C411.98 304.127 413.334 303.772 414.489 303.062C415.643 302.352 416.541 301.358 417.179 300.081C417.817 298.805 418.134 297.312 418.134 295.604ZM414.408 298.51C414.087 299.392 413.6 300.1 412.938 300.629C412.28 301.161 411.446 301.426 410.442 301.426C409.431 301.426 408.594 301.161 407.93 300.629C407.266 300.1 406.776 299.392 406.458 298.51C406.138 297.628 405.979 296.655 405.979 295.594C405.979 294.539 406.138 293.568 406.458 292.682C406.776 291.796 407.266 291.084 407.93 290.545C408.594 290.008 409.431 289.738 410.442 289.738C411.446 289.738 412.28 290.008 412.938 290.545C413.6 291.084 414.087 291.796 414.408 292.682C414.725 293.568 414.887 294.539 414.887 295.594C414.887 296.655 414.725 297.628 414.408 298.51Z" fill="white"/>
<path d="M424.584 287.264H421.475V303.794H424.693V293.7C424.693 292.982 424.863 292.341 425.21 291.778C425.553 291.215 426.021 290.773 426.613 290.454C427.205 290.135 427.88 289.975 428.642 289.975C428.971 289.975 429.3 290 429.629 290.046C429.961 290.092 430.189 290.134 430.319 290.17V287.092C430.16 287.07 429.944 287.052 429.67 287.037C429.393 287.023 429.153 287.016 428.954 287.016C427.984 287.016 427.118 287.273 426.356 287.785C425.591 288.299 425.057 289.001 424.757 289.89H424.584V287.264Z" fill="white"/>
<path d="M451.4 288.124C450.751 287.716 450.055 287.434 449.313 287.28C448.572 287.125 447.87 287.049 447.209 287.049C446.213 287.049 445.261 287.19 444.357 287.473C443.454 287.758 442.657 288.21 441.964 288.829C441.271 289.45 440.746 290.262 440.388 291.267L443.41 291.956C443.647 291.374 444.077 290.846 444.698 290.368C445.318 289.891 446.17 289.653 447.252 289.653C448.292 289.653 449.077 289.912 449.602 290.427C450.13 290.944 450.393 291.673 450.393 292.613V292.688C450.393 293.075 450.254 293.355 449.974 293.527C449.694 293.7 449.247 293.822 448.629 293.899C448.012 293.974 447.209 294.069 446.219 294.183C445.437 294.277 444.669 294.413 443.918 294.592C443.165 294.772 442.484 295.038 441.872 295.389C441.263 295.741 440.778 296.218 440.42 296.82C440.062 297.423 439.883 298.191 439.883 299.124C439.883 300.206 440.128 301.122 440.619 301.868C441.11 302.614 441.779 303.182 442.625 303.573C443.471 303.964 444.418 304.159 445.466 304.159C446.378 304.159 447.16 304.026 447.812 303.762C448.465 303.496 448.999 303.163 449.414 302.76C449.83 302.359 450.142 301.95 450.35 301.534H450.48V303.794H453.623V292.816C453.623 291.611 453.412 290.631 452.997 289.874C452.581 289.116 452.05 288.533 451.4 288.124ZM450.405 297.832C450.405 298.484 450.237 299.096 449.905 299.666C449.57 300.237 449.088 300.699 448.453 301.049C447.818 301.402 447.056 301.576 446.167 301.576C445.255 301.576 444.504 301.374 443.918 300.969C443.329 300.563 443.035 299.962 443.035 299.167C443.035 298.592 443.188 298.132 443.491 297.784C443.797 297.436 444.207 297.169 444.718 296.981C445.232 296.795 445.8 296.662 446.424 296.583C446.689 296.548 447.019 296.503 447.414 296.448C447.809 296.395 448.214 296.334 448.629 296.267C449.045 296.197 449.417 296.115 449.744 296.018C450.07 295.922 450.289 295.816 450.405 295.701V297.832Z" fill="white"/>
<path d="M477.43 288.059C476.386 287.385 475.193 287.048 473.86 287.048C472.835 287.048 472.009 287.219 471.386 287.559C470.76 287.9 470.272 288.296 469.922 288.749C469.57 289.201 469.302 289.598 469.114 289.943H468.921V281.753H465.705V303.793H468.846V301.221H469.114C469.308 301.573 469.585 301.974 469.943 302.426C470.301 302.878 470.8 303.274 471.432 303.61C472.067 303.948 472.887 304.117 473.892 304.117C475.225 304.117 476.412 303.773 477.454 303.089C478.493 302.403 479.31 301.424 479.907 300.151C480.502 298.878 480.799 297.347 480.799 295.56C480.799 293.774 480.499 292.245 479.901 290.976C479.301 289.706 478.478 288.734 477.43 288.059ZM477.049 298.509C476.718 299.392 476.227 300.089 475.58 300.603C474.936 301.115 474.131 301.372 473.17 301.372C472.246 301.372 471.464 301.127 470.826 300.635C470.188 300.144 469.7 299.459 469.362 298.585C469.025 297.71 468.857 296.69 468.857 295.528C468.857 294.381 469.022 293.376 469.351 292.515C469.68 291.654 470.168 290.984 470.809 290.503C471.452 290.022 472.237 289.781 473.17 289.781C474.14 289.781 474.948 290.032 475.598 290.535C476.247 291.037 476.735 291.723 477.061 292.59C477.387 293.458 477.549 294.438 477.549 295.528C477.549 296.633 477.384 297.627 477.049 298.509Z" fill="white"/>
<path d="M496.123 288.965C495.427 288.303 494.642 287.82 493.767 287.511C492.89 287.203 491.986 287.049 491.054 287.049C489.521 287.049 488.182 287.411 487.036 288.136C485.893 288.861 485.004 289.868 484.369 291.159C483.734 292.451 483.416 293.944 483.416 295.636C483.416 297.351 483.734 298.845 484.369 300.118C485.004 301.392 485.907 302.379 487.079 303.078C488.251 303.778 489.654 304.127 491.282 304.127C492.486 304.127 493.56 303.943 494.504 303.573C495.447 303.203 496.233 302.684 496.859 302.012C497.488 301.342 497.924 300.559 498.167 299.661L495.121 299.112C494.928 299.629 494.648 300.063 494.284 300.414C493.918 300.766 493.482 301.029 492.982 301.205C492.48 301.381 491.923 301.47 491.314 301.47C490.373 301.47 489.553 301.266 488.849 300.862C488.147 300.456 487.599 299.866 487.209 299.09C486.846 298.374 486.671 297.499 486.645 296.498H498.372V295.357C498.372 293.857 498.17 292.582 497.768 291.531C497.367 290.48 496.819 289.624 496.123 288.965ZM486.657 294.087C486.697 293.379 486.848 292.708 487.166 292.09C487.527 291.384 488.043 290.81 488.716 290.368C489.386 289.927 490.174 289.707 491.077 289.707C491.908 289.707 492.636 289.897 493.257 290.277C493.874 290.658 494.359 291.176 494.703 291.832C495.046 292.489 495.219 293.241 495.219 294.087H486.657Z" fill="white"/>
<path d="M508.694 301.092C508.5 301.129 508.275 301.146 508.015 301.146C507.666 301.146 507.34 301.091 507.042 300.98C506.745 300.869 506.503 300.656 506.315 300.345C506.13 300.033 506.038 299.564 506.038 298.94V289.846H509.427V287.264H506.038V283.304H502.819V287.264H500.397V289.846H502.819V299.607C502.819 300.605 503.044 301.433 503.498 302.093C503.948 302.753 504.54 303.241 505.273 303.557C506.003 303.873 506.794 304.023 507.64 304.009C508.157 304.001 508.587 303.961 508.93 303.885C509.274 303.809 509.539 303.736 509.727 303.665L509.147 301.006C509.037 301.028 508.887 301.056 508.694 301.092Z" fill="white"/>
<path d="M519.716 301.092C519.523 301.129 519.298 301.146 519.038 301.146C518.688 301.146 518.362 301.091 518.065 300.98C517.768 300.869 517.525 300.656 517.337 300.345C517.153 300.033 517.06 299.564 517.06 298.94V289.846H520.449V287.264H517.06V283.304H513.842V287.264H511.42V289.846H513.842V299.607C513.842 300.605 514.067 301.433 514.52 302.093C514.97 302.753 515.562 303.241 516.295 303.557C517.026 303.873 517.817 304.023 518.662 304.009C519.179 304.001 519.609 303.961 519.953 303.885C520.296 303.809 520.562 303.736 520.749 303.665L520.169 301.006C520.06 301.028 519.909 301.056 519.716 301.092Z" fill="white"/>
<path d="M535.718 288.965C535.022 288.303 534.237 287.82 533.362 287.511C532.485 287.203 531.581 287.049 530.649 287.049C529.116 287.049 527.777 287.411 526.631 288.136C525.487 288.861 524.598 289.868 523.963 291.159C523.328 292.451 523.011 293.944 523.011 295.636C523.011 297.351 523.328 298.845 523.963 300.118C524.598 301.392 525.502 302.379 526.674 303.078C527.846 303.778 529.249 304.127 530.877 304.127C532.081 304.127 533.154 303.943 534.098 303.573C535.042 303.203 535.827 302.684 536.454 302.012C537.083 301.342 537.519 300.559 537.761 299.661L534.716 299.112C534.523 299.629 534.243 300.063 533.879 300.414C533.512 300.766 533.076 301.029 532.577 301.205C532.075 301.381 531.518 301.47 530.909 301.47C529.968 301.47 529.148 301.266 528.443 300.862C527.742 300.456 527.193 299.866 526.804 299.09C526.44 298.374 526.266 297.499 526.239 296.498H537.966V295.357C537.966 293.857 537.764 292.582 537.363 291.531C536.962 290.48 536.413 289.624 535.718 288.965ZM526.252 294.087C526.291 293.379 526.443 292.708 526.76 292.09C527.121 291.384 527.638 290.81 528.311 290.368C528.98 289.927 529.768 289.707 530.672 289.707C531.503 289.707 532.231 289.897 532.851 290.277C533.469 290.658 533.954 291.176 534.297 291.832C534.641 292.489 534.814 293.241 534.814 294.087H526.252Z" fill="white"/>
<path d="M548.785 287.016C547.815 287.016 546.949 287.273 546.187 287.785C545.422 288.299 544.888 289.001 544.588 289.89H544.415V287.264H541.306V303.794H544.524V293.7C544.524 292.982 544.695 292.341 545.041 291.778C545.384 291.215 545.852 290.773 546.444 290.454C547.036 290.135 547.711 289.975 548.473 289.975C548.802 289.975 549.131 290 549.46 290.046C549.792 290.092 550.02 290.134 550.15 290.17V287.092C549.992 287.07 549.775 287.052 549.501 287.037C549.224 287.023 548.984 287.016 548.785 287.016Z" fill="white"/>
<path d="M407.942 330.222H407.781L404.554 318.137H401.228L397.978 330.276H397.816L394.577 318.137H391.255L396.116 334.667H399.386L402.744 322.732H402.992L406.349 334.667H409.631L414.483 318.137H411.158L407.942 330.222Z" fill="white"/>
<path d="M428.067 318.987C426.912 318.277 425.558 317.922 424.011 317.922C422.461 317.922 421.11 318.277 419.955 318.987C418.798 319.698 417.903 320.695 417.265 321.979C416.627 323.263 416.307 324.762 416.307 326.477C416.307 328.185 416.627 329.678 417.265 330.954C417.903 332.231 418.798 333.225 419.955 333.935C421.11 334.645 422.461 335 424.011 335C425.558 335 426.912 334.645 428.067 333.935C429.221 333.225 430.119 332.231 430.757 330.954C431.395 329.678 431.713 328.185 431.713 326.477C431.713 324.762 431.395 323.263 430.757 321.979C430.119 320.695 429.221 319.698 428.067 318.987ZM427.986 329.383C427.666 330.265 427.178 330.973 426.517 331.502C425.858 332.034 425.024 332.299 424.02 332.299C423.009 332.299 422.172 332.034 421.508 331.502C420.844 330.973 420.354 330.265 420.036 329.383C419.716 328.501 419.557 327.528 419.557 326.467C419.557 325.412 419.716 324.441 420.036 323.555C420.354 322.669 420.844 321.957 421.508 321.418C422.172 320.881 423.009 320.611 424.02 320.611C425.024 320.611 425.858 320.881 426.517 321.418C427.178 321.957 427.666 322.669 427.986 323.555C428.303 324.441 428.465 325.412 428.465 326.467C428.465 327.528 428.303 328.501 427.986 329.383Z" fill="white"/>
<path d="M442.808 317.889C441.838 317.889 440.972 318.146 440.21 318.658C439.445 319.172 438.911 319.874 438.611 320.763H438.438V318.137H435.329V334.667H438.548V324.573C438.548 323.855 438.718 323.214 439.064 322.651C439.408 322.088 439.876 321.647 440.467 321.327C441.059 321.008 441.735 320.848 442.497 320.848C442.826 320.848 443.155 320.873 443.484 320.919C443.816 320.965 444.044 321.007 444.174 321.043V317.965C444.015 317.944 443.798 317.925 443.524 317.91C443.247 317.896 443.008 317.889 442.808 317.889Z" fill="white"/>
<path d="M450.218 312.626H446.999V334.666H450.218V312.626Z" fill="white"/>
<path d="M465.729 320.816H465.536C465.342 320.471 465.071 320.074 464.724 319.622C464.375 319.169 463.887 318.773 463.261 318.432C462.632 318.092 461.806 317.921 460.781 317.921C459.454 317.921 458.267 318.258 457.219 318.932C456.171 319.608 455.349 320.579 454.751 321.85C454.151 323.118 453.851 324.647 453.851 326.433C453.851 328.22 454.148 329.751 454.74 331.024C455.331 332.297 456.148 333.276 457.193 333.962C458.235 334.646 459.425 334.99 460.758 334.99C461.763 334.99 462.58 334.821 463.212 334.483C463.844 334.147 464.341 333.751 464.701 333.299C465.065 332.847 465.342 332.446 465.536 332.094H465.804V334.666H468.948V312.626H465.729V320.816ZM465.284 329.458C464.95 330.332 464.462 331.017 463.821 331.508C463.177 332 462.395 332.245 461.468 332.245C460.516 332.245 459.713 331.988 459.064 331.476C458.414 330.962 457.926 330.265 457.597 329.383C457.265 328.5 457.101 327.506 457.101 326.401C457.101 325.311 457.265 324.331 457.592 323.464C457.918 322.596 458.403 321.91 459.049 321.408C459.693 320.905 460.501 320.654 461.468 320.654C462.409 320.654 463.197 320.895 463.835 321.376C464.473 321.857 464.958 322.527 465.29 323.388C465.619 324.249 465.784 325.254 465.784 326.401C465.784 327.564 465.616 328.583 465.284 329.458Z" fill="white"/>
<path d="M475.677 330.576C475.091 330.576 474.583 330.787 474.161 331.206C473.737 331.626 473.526 332.13 473.526 332.719C473.526 333.313 473.737 333.822 474.161 334.242C474.583 334.66 475.091 334.871 475.677 334.871C476.072 334.871 476.43 334.774 476.754 334.579C477.077 334.386 477.337 334.126 477.533 333.8C477.732 333.474 477.83 333.113 477.83 332.719C477.83 332.13 477.62 331.626 477.195 331.206C476.771 330.787 476.266 330.576 475.677 330.576Z" fill="white"/>
</g>
<defs>
<linearGradient id="paint0_linear_162_44" x1="322.371" y1="0" x2="322.371" y2="585" gradientUnits="userSpaceOnUse">
<stop stop-color="#CCD0BB"/>
<stop offset="1" stop-color="#314232"/>
</linearGradient>
</defs>
</svg>
