<svg width="89" height="29" viewBox="0 0 89 29" fill="none" xmlns="http://www.w3.org/2000/svg">
<path d="M74.9134 1.73828H68.2072L63.7363 10.6821L68.7107 10.6832L71.5782 4.95437L83.3655 28.5698H88.3399L74.9134 1.73828Z" fill="#AAAAAA"/>
<path d="M72.6782 11.9196L14.5574 11.9175L12.3219 16.3894H21.2636V23.0973H13.3382C8.43783 23.0973 4.45097 19.1029 4.45097 14.1566C4.45097 9.21037 8.43783 5.20846 13.3382 5.20846H23.4906V0.734375L13.3382 0.734377C5.98351 0.734377 0 6.75561 0 14.1566C0 21.5576 5.98351 27.5692 13.3382 27.5692H25.7344V16.3894H32.4407V27.5692H50.324L52.5594 23.0973H36.9115V16.3894H60.3554L54.7948 27.5692H59.7669L65.3561 16.3894H74.9136L72.6782 11.9196Z" fill="#AAAAAA"/>
<path d="M36.9109 5.20846L52.5585 5.20958V0.737664L32.4375 0.734375L32.4379 9.68254H36.9109V5.20846Z" fill="#AAAAAA"/>
</svg>
