<svg xmlns="http://www.w3.org/2000/svg" width="181" height="173" viewBox="0 0 181 173" fill="none">
  <path d="M30.4224 48.3888L61.045 68.8039L40.1587 102.39L21 91.182L30.4224 48.3888Z" fill="white"/>
  <g filter="url(#filter0_f_1_4553)">
    <path d="M59.9679 64.7581L79.127 62.8097L91.142 68.6548L98.2861 64.1086L121.017 67.0312L136.604 97.5558L128.161 101.777L117.12 116.715L101.209 126.782L89.1936 123.859L77.5033 128.73L63.5399 122.56L52.1744 116.715L50.226 101.777L44.7056 88.4634L59.9679 64.7581Z" fill="#FFAC4B"/>
  </g>
  <path d="M149.772 56.6332L117.579 72.3371L135.305 106.935L156.054 98.2486L149.772 56.6332Z" fill="white"/>
  <path d="M21.9191 92.8554L38.4136 104.773C39.2915 105.388 40.3833 105.613 41.4325 105.396C42.4867 105.179 43.4072 104.542 43.9832 103.633L45.1473 101.793L46.3202 106.603V106.604C47.1348 105.483 48.1712 104.544 49.365 103.841L50.1034 103.404L48.5662 97.0966C48.5246 96.9382 48.4662 96.7868 48.4108 96.6344L60.0186 78.2871C61.3737 79.1027 63.0127 79.3006 64.5232 78.8315L75.9358 75.1729C77.6433 74.6454 79.4973 74.9007 80.9987 75.8708L101.141 88.5572C102.061 89.1125 102.393 90.2884 101.897 91.2437L93.3604 105.607V105.606C92.7992 106.561 91.8885 107.26 90.8206 107.554C89.7526 107.848 88.6123 107.715 87.6413 107.182C86.497 106.566 85.6557 105.508 85.3142 104.254C84.9905 103.133 85.141 101.93 85.7289 100.923L89.8476 93.9943C90.4623 92.9609 90.1406 91.6256 89.123 90.9852L82.7496 86.9704V86.9714C82.2438 86.6527 81.6301 86.5517 81.0491 86.6923C80.4681 86.8318 79.9683 87.201 79.6624 87.7148L76.5058 93.0282C76.1723 93.5904 75.6249 93.9923 74.9894 94.1418C74.2619 94.31 73.4978 94.1744 72.8722 93.7666L67.916 90.6448C66.8797 89.9925 65.5117 90.3043 64.8586 91.3396C64.2063 92.375 64.5161 93.7439 65.5515 94.3971L70.5084 97.5189C72.1445 98.5671 74.138 98.9047 76.0276 98.4523C77.8271 98.0267 79.3762 96.8864 80.3175 95.2938L82.313 91.9353L84.9331 93.5853L81.9182 98.6573L81.9172 98.6582C80.7097 100.697 80.3919 103.143 81.0373 105.425C81.7064 107.834 83.3208 109.871 85.5143 111.073C87.4919 112.16 89.8161 112.436 91.9936 111.838C94.1702 111.24 96.0291 109.816 97.1732 107.871L105.71 93.5071L105.711 93.5081C106.539 92.0531 106.772 90.3338 106.36 88.7113C105.948 87.089 104.925 85.6883 103.502 84.8045L83.3615 72.119C80.7533 70.4472 77.5375 70.0186 74.5819 70.95L63.1702 74.6086C62.9109 74.6828 62.6328 74.6561 62.3932 74.5333L63.8681 72.2013V72.2023C64.4293 71.3223 64.6273 70.2583 64.4194 69.2358C64.2115 68.2133 63.6147 67.3106 62.7555 66.7197L33.9699 47.0479C32.9592 46.3589 31.5804 46.6193 30.8906 47.6289C30.1997 48.6395 30.4581 50.0183 31.4667 50.7102L59.9178 70.1524L40.5154 100.821L24.5148 89.2607C24.0387 88.9162 23.4448 88.7756 22.8638 88.8687C22.2837 88.9627 21.7641 89.2834 21.4196 89.7595C20.703 90.7523 20.9267 92.1381 21.9195 92.8547L21.9191 92.8554Z" fill="white"/>
  <path d="M39.9033 94.1796C40.028 95.1615 39.3539 96.0553 38.3987 96.1761C37.4436 96.2968 36.5686 95.599 36.4439 94.6181C36.3201 93.6362 36.9932 92.7424 37.9484 92.6206C38.9036 92.4999 39.7796 93.1977 39.9033 94.1796Z" fill="white"/>
  <path d="M134.311 98.3085C134.045 99.2488 134.587 100.229 135.524 100.504C135.976 100.624 136.458 100.558 136.861 100.322C137.265 100.084 137.557 99.6963 137.673 99.2429C137.939 98.3026 137.398 97.3227 136.46 97.0475C136.008 96.9277 135.527 96.9931 135.123 97.2296C134.719 97.4662 134.427 97.8552 134.311 98.3085Z" fill="white"/>
  <path d="M126.697 118.266L127.475 117.19V117.189C128.543 115.706 128.994 113.867 128.735 112.058C128.476 110.249 127.526 108.611 126.085 107.487L116.198 99.9184C114.757 98.8059 112.925 98.3278 111.125 98.594C109.304 98.8603 107.67 99.8561 106.599 101.353L105.821 102.429H105.82C104.828 103.806 104.368 105.495 104.526 107.186C104.455 107.194 104.385 107.196 104.315 107.205C102.445 107.478 100.766 108.5 99.6665 110.037L98.9726 110.995C98.2679 111.971 97.8195 113.109 97.67 114.304C96.4327 114.137 95.1747 114.313 94.0305 114.809C92.8863 115.307 91.8994 116.107 91.1758 117.124L90.5542 117.98C89.5762 119.337 89.104 120.993 89.2189 122.662C89.1377 122.67 89.0575 122.661 88.9764 122.673H88.9774C87.3669 122.907 85.9217 123.786 84.9745 125.109L84.823 125.318C83.8817 126.628 83.4838 128.252 83.7135 129.849C83.9431 131.447 84.7815 132.893 86.0534 133.885L95.0439 140.766C96.0802 141.567 97.3521 142.001 98.6616 142.002C98.9536 142.002 99.2456 141.98 99.5346 141.939C101.147 141.703 102.594 140.821 103.542 139.496L103.689 139.293V139.294C104.158 138.644 104.495 137.909 104.683 137.13C105.375 137.363 106.101 137.482 106.832 137.482C107.168 137.482 107.505 137.458 107.837 137.409C109.694 137.139 111.361 136.122 112.454 134.596L113.07 133.742C113.773 132.77 114.219 131.636 114.366 130.447C114.646 130.487 114.928 130.511 115.21 130.516C117.455 130.518 119.564 129.436 120.87 127.611L121.561 126.656C122.756 124.995 123.192 122.906 122.764 120.906C124.349 120.528 125.746 119.59 126.696 118.266L126.697 118.266ZM100.095 136.696L99.9499 136.897H99.9509C99.7014 137.249 99.3204 137.485 98.8937 137.55C98.4839 137.61 98.0672 137.499 97.7406 137.245L88.7509 130.363C88.0125 129.765 87.865 128.696 88.4144 127.921L88.5648 127.714C88.8133 127.361 89.1953 127.126 89.621 127.06C90.0308 127.001 90.4465 127.111 90.7731 127.365L99.7646 134.248C100.504 134.848 100.65 135.92 100.095 136.696ZM109.48 131.141L108.861 131.996C108.469 132.55 107.867 132.92 107.196 133.021C106.545 133.116 105.883 132.942 105.362 132.538L94.6712 124.354C93.5121 123.44 93.2805 121.775 94.1466 120.581L94.7682 119.725C95.1612 119.17 95.762 118.8 96.4331 118.699C97.0844 118.603 97.7466 118.777 98.2663 119.182L99.5095 120.133C99.7827 120.434 100.082 120.71 100.403 120.96L109.458 127.891C110.171 128.854 110.18 130.168 109.48 131.141ZM117.972 124.054L117.28 125.01C116.88 125.574 116.267 125.952 115.582 126.054C114.918 126.151 114.242 125.974 113.711 125.562L112.542 124.667L112.543 124.668C112.271 124.369 111.973 124.094 111.654 123.846L102.592 116.91C101.864 115.928 101.853 114.588 102.565 113.596L103.259 112.638C103.66 112.073 104.272 111.696 104.957 111.593C105.622 111.496 106.297 111.674 106.826 112.085L117.439 120.209C118.621 121.14 118.856 122.838 117.972 124.054ZM123.885 114.587L123.106 115.664C122.734 116.189 122.165 116.54 121.528 116.636C120.912 116.725 120.287 116.56 119.795 116.178L109.907 108.611C108.808 107.744 108.589 106.163 109.413 105.031L110.193 103.954V103.953C110.564 103.428 111.134 103.078 111.769 102.982C112.385 102.893 113.012 103.057 113.502 103.439L123.39 111.007H123.391C124.49 111.874 124.708 113.455 123.885 114.587Z" fill="white"/>
  <path d="M39.5543 45.4912C41.0569 37.2569 44.6144 29.5341 49.8969 23.0409C53.8314 25.1888 57.9837 26.9102 62.2846 28.1762C60.0278 35.9899 58.8232 44.0709 58.7044 52.2031H49.3754L55.8646 56.6375H58.7272C58.745 57.2997 58.746 57.9649 58.7747 58.6261L63.407 61.7915C63.2744 60.086 63.2001 58.3648 63.1566 56.6374H86.4076V68.4925L90.842 71.273V56.6374H114.102C114.02 60.2088 113.734 63.772 113.246 67.3117C114.09 66.0229 115.272 64.9905 116.662 64.3275L118.137 63.6128C118.35 61.3135 118.465 58.9825 118.521 56.6386L132.517 56.6376L141.415 52.3221L142.875 51.6143H142.874C142.195 38.4735 136.769 26.0265 127.603 16.5825C118.438 7.14049 106.156 1.34611 93.0422 0.277032C79.926 -0.79199 66.869 2.93667 56.2949 10.7701C45.7215 18.6026 38.3515 30.0084 35.5532 42.8651C35.8729 43.0136 36.1808 43.1868 36.4738 43.3838L39.5543 45.4912ZM63.1388 52.2031C63.2873 44.4687 64.48 36.7886 66.6863 29.3737C73.153 30.8981 79.7638 31.7325 86.4076 31.8622V52.2029L63.1388 52.2031ZM109.13 25.1608C103.128 26.5426 96.9987 27.3028 90.841 27.4295V4.74378C98.2469 6.05925 104.858 13.87 109.13 25.1608ZM86.4065 4.74375V27.4294C80.2488 27.3027 74.1199 26.5426 68.1175 25.1608C72.3895 13.8697 79.0006 6.05913 86.4065 4.74375ZM90.841 31.8621C97.4847 31.7324 104.096 30.898 110.562 29.3737C112.768 36.7885 113.961 44.4684 114.11 52.203H90.841V31.8621ZM118.545 52.2028C118.426 44.0704 117.222 35.9896 114.964 28.1759C119.265 26.91 123.418 25.1877 127.354 23.0396C134.085 31.3175 137.971 41.5433 138.434 52.2028H118.545ZM124.329 19.6416H124.33C120.893 21.4312 117.29 22.8823 113.571 23.9741C110.927 16.7762 107.354 10.8442 103.137 6.69185C111.179 9.15455 118.469 13.6088 124.329 19.6416ZM74.1012 6.70275C69.8895 10.8541 66.3192 16.782 63.6783 23.9741C59.9595 22.8824 56.3557 21.4313 52.9179 19.6416C58.7766 13.6136 66.0627 9.16321 74.1012 6.70275Z" fill="white"/>
  <path d="M49.2573 127.601L50.1907 129.289C50.2214 129.345 50.2531 129.397 50.2877 129.45C52.4139 132.627 55.0756 133.354 58.426 131.674C58.5666 132.243 58.7824 132.79 59.0664 133.303L60.0008 134.993C60.8115 136.491 62.1893 137.601 63.8256 138.074C65.2282 138.472 66.7318 138.282 67.9899 137.547L70.2783 136.203C70.3803 136.509 70.5109 136.805 70.6673 137.087L71.4592 138.52H71.4582C72.162 139.796 73.3557 140.731 74.7642 141.109C75.2463 141.241 75.7442 141.307 76.244 141.306C77.2942 141.304 78.3246 141.023 79.2293 140.49L83.8479 137.778L83.3609 137.405H83.3599C82.3087 136.598 81.4218 135.598 80.7469 134.457L76.9845 136.667C76.6717 136.862 76.2926 136.921 75.9353 136.833C75.6829 136.768 75.4671 136.602 75.3394 136.375L74.5475 134.942H74.5485C74.307 134.284 74.6208 133.553 75.2642 133.275L79.4067 130.842C79.082 129.044 79.2196 127.193 79.8075 125.464L65.7441 133.723H65.7451C65.5175 133.851 65.2472 133.877 64.9988 133.798C64.5158 133.642 64.1139 133.3 63.8823 132.849L62.9469 131.158V131.157C62.453 130.447 62.5658 129.48 63.2102 128.901L65.6204 127.485C70.6447 124.543 77.1717 120.71 81.3023 118.275L85.3685 115.886V115.887C85.4774 115.821 85.5803 115.747 85.6763 115.663C85.0003 115.434 84.345 115.15 83.7155 114.814C82.8513 114.34 82.0417 113.775 81.3003 113.126C80.2828 113.726 78.8525 114.57 77.1639 115.563L65.7335 122.276C60.8714 125.128 56.7884 127.518 56.4539 127.702C55.1385 128.37 54.8682 128.308 54.0269 127.062L53.139 125.457V125.456C52.6461 124.766 52.7391 123.818 53.3568 123.236L77.9627 108.782C77.5945 108.037 77.2956 107.26 77.0709 106.459C76.8868 105.783 76.7541 105.093 76.6749 104.396L56.3935 116.309C56.0876 116.485 55.7244 116.53 55.3848 116.433C54.9275 116.294 54.5445 115.979 54.3208 115.557L53.3854 113.866C52.8944 113.069 53.1043 112.028 53.8654 111.483L69.9618 101.945L69.9609 101.946C69.4382 101.718 68.9324 101.453 68.4474 101.153L65.6076 99.371L51.6126 107.663V107.664C50.2506 108.513 49.2707 109.857 48.8777 111.413C48.4848 112.969 48.7104 114.617 49.5053 116.012L50.4407 117.703C50.7366 118.238 51.1088 118.728 51.5443 119.158L51.1118 119.412H51.1108C49.8062 120.275 48.8847 121.608 48.5401 123.135C48.1946 124.66 48.451 126.26 49.2577 127.601L49.2573 127.601Z" fill="white"/>
  <path d="M116.589 73.4575C115.634 73.125 114.656 72.8626 113.662 72.6716C108.842 71.7906 103.869 72.3331 99.3512 74.2316L96.9014 75.0709L101.716 78.0899C105.253 76.7289 109.095 76.3606 112.827 77.0258C114.806 77.3683 116.691 78.1255 118.358 79.247C118.751 79.534 119.123 79.8488 119.472 80.1883L126.478 96.4788C126.473 96.7124 126.506 96.946 126.574 97.1697C127.162 98.9454 127.346 100.83 127.114 102.686L128.783 103.963H128.782C129.521 104.537 130.185 105.201 130.757 105.942C131.579 106.977 132.213 108.147 132.633 109.399C133.296 109.922 134.118 110.203 134.961 110.197C135.559 110.195 136.148 110.058 136.686 109.799L155.014 100.765V100.764C156.113 100.223 156.563 98.8933 156.021 97.7945C155.48 96.6958 154.151 96.2455 153.052 96.7869L135.218 105.578L120.844 72.1556L148.451 58.7662C148.981 58.5109 149.388 58.0546 149.582 57.4983C149.775 56.942 149.739 56.3323 149.482 55.8017C149.225 55.2722 148.768 54.8663 148.211 54.6743C147.654 54.4823 147.045 54.5189 146.515 54.7773L118.573 68.3288C117.652 68.7703 116.933 69.5463 116.564 70.4995C116.196 71.4527 116.205 72.5108 116.589 73.4581L116.589 73.4575Z" fill="white"/>
  <defs>
    <filter id="filter0_f_1_4553" x="0.705566" y="18.8097" width="179.898" height="153.92" filterUnits="userSpaceOnUse" color-interpolation-filters="sRGB">
      <feFlood flood-opacity="0" result="BackgroundImageFix"/>
      <feBlend mode="normal" in="SourceGraphic" in2="BackgroundImageFix" result="shape"/>
      <feGaussianBlur stdDeviation="22" result="effect1_foregroundBlur_1_4553"/>
    </filter>
  </defs>
</svg>