<svg width="106" height="36" viewBox="0 0 106 36" fill="none" xmlns="http://www.w3.org/2000/svg">
<path d="M45.6402 19.0289C45.6402 24.0563 41.7357 27.7608 36.9441 27.7608C32.1525 27.7608 28.248 24.0563 28.248 19.0289C28.248 13.966 32.1525 10.2969 36.9441 10.2969C41.7357 10.2969 45.6402 13.966 45.6402 19.0289ZM41.8335 19.0289C41.8335 15.8872 39.5705 13.7377 36.9441 13.7377C34.3177 13.7377 32.0548 15.8872 32.0548 19.0289C32.0548 22.139 34.3177 24.32 36.9441 24.32C39.5705 24.32 41.8335 22.1351 41.8335 19.0289Z" fill="#AAAAAA"/>
<path d="M64.3999 19.0289C64.3999 24.0563 60.4955 27.7608 55.7039 27.7608C50.9122 27.7608 47.0078 24.0563 47.0078 19.0289C47.0078 13.97 50.9122 10.2969 55.7039 10.2969C60.4955 10.2969 64.3999 13.966 64.3999 19.0289ZM60.5932 19.0289C60.5932 15.8872 58.3303 13.7377 55.7039 13.7377C53.0775 13.7377 50.8145 15.8872 50.8145 19.0289C50.8145 22.139 53.0775 24.32 55.7039 24.32C58.3303 24.32 60.5932 22.1351 60.5932 19.0289Z" fill="#AAAAAA"/>
<path d="M82.378 10.8244V26.501C82.378 32.9496 78.6026 35.5834 74.1392 35.5834C69.9378 35.5834 67.4091 32.7528 66.4554 30.4379L69.7697 29.0482C70.3599 30.4694 71.806 32.1465 74.1353 32.1465C76.9923 32.1465 78.7628 30.371 78.7628 27.0286V25.7727H78.6299C77.7779 26.8317 76.1364 27.7569 74.065 27.7569C69.7306 27.7569 65.7598 23.9539 65.7598 19.0604C65.7598 14.1314 69.7306 10.2969 74.065 10.2969C76.1325 10.2969 77.774 11.222 78.6299 12.2496H78.7628V10.8284H82.378V10.8244ZM79.0325 19.0604C79.0325 15.9857 76.9962 13.7377 74.405 13.7377C71.7786 13.7377 69.5782 15.9857 69.5782 19.0604C69.5782 22.1036 71.7786 24.32 74.405 24.32C76.9962 24.32 79.0325 22.1036 79.0325 19.0604Z" fill="#AAAAAA"/>
<path d="M88.3379 1.63281V27.2225H84.625V1.63281H88.3379Z" fill="#AAAAAA"/>
<path d="M102.808 21.9028L105.762 23.887C104.809 25.3082 102.511 27.7569 98.5398 27.7569C93.6153 27.7569 89.9375 23.9224 89.9375 19.025C89.9375 13.8322 93.6465 10.293 98.1138 10.293C102.612 10.293 104.813 13.8991 105.532 15.8479L105.927 16.84L94.3383 21.6745C95.2255 23.4264 96.6052 24.3201 98.5398 24.3201C100.478 24.3201 101.823 23.3595 102.808 21.9028ZM93.713 18.7612L101.459 15.5211C101.033 14.4306 99.7514 13.6708 98.2428 13.6708C96.3081 13.6708 93.6153 15.3912 93.713 18.7612Z" fill="#AAAAAA"/>
<path d="M14.1929 16.7582V13.0536H26.5862C26.7074 13.6992 26.7699 14.463 26.7699 15.2897C26.7699 18.0692 26.0156 21.5061 23.5846 23.9548C21.2201 26.435 18.1989 27.7578 14.1968 27.7578C6.77873 27.7578 0.541016 21.6714 0.541016 14.1992C0.541016 6.72703 6.77873 0.640625 14.1968 0.640625C18.3005 0.640625 21.224 2.26262 23.4205 4.37672L20.8253 6.9908C19.2503 5.50266 17.1163 4.34522 14.1929 4.34522C8.77589 4.34522 4.53925 8.74271 4.53925 14.1992C4.53925 19.6557 8.77589 24.0532 14.1929 24.0532C17.7065 24.0532 19.7075 22.632 20.9895 21.3407C22.0291 20.2935 22.713 18.7975 22.9827 16.7543L14.1929 16.7582Z" fill="#AAAAAA"/>
</svg>
