<svg width="66" height="46" viewBox="0 0 66 46" fill="none" xmlns="http://www.w3.org/2000/svg">
<path d="M2.87068 38.5664H1.46875V44.8412H2.87068V38.5664Z" fill="#FDFDFD"/>
<path d="M28.5758 38.5664H27.1738V44.8412H28.5758V38.5664Z" fill="#FDFDFD"/>
<path d="M45.6149 38.5664H44.2129V44.8412H45.6149V38.5664Z" fill="#FDFDFD"/>
<path d="M61.2356 38.5664H59.834V44.8412H61.2356V38.5664Z" fill="#FDFDFD"/>
<path fill-rule="evenodd" clip-rule="evenodd" d="M8.13086 38.5664V44.8412H9.22313V39.8139H9.35062L11.2802 44.8412H13.2098V38.5664H12.1179V43.5933L10.0423 38.5664H8.13086Z" fill="#FDFDFD"/>
<path fill-rule="evenodd" clip-rule="evenodd" d="M33.873 38.5664V44.8412H34.9653V39.8139H35.0928L37.0228 44.8412H38.9523V38.5664H37.8601V43.5933L35.7845 38.5664H33.873Z" fill="#FDFDFD"/>
<path fill-rule="evenodd" clip-rule="evenodd" d="M22.2219 39.6489V38.5664H19.6006H19.2544H18.3262V44.8412H19.6006V42.1622H22.2219V41.0796H19.6006V39.6489H22.2219Z" fill="#FDFDFD"/>
<path fill-rule="evenodd" clip-rule="evenodd" d="M54.973 38.5664H53.4074H52.0055H50.5059V39.7701H52.0055V44.8412H53.4074V39.7701H54.973V38.5664Z" fill="#FDFDFD"/>
<path d="M65.2124 43.6328C65.3481 43.6338 65.4813 43.6691 65.6 43.7354C65.7242 43.8025 65.8263 43.9046 65.894 44.0292C65.9628 44.1499 65.999 44.2866 65.999 44.4258C65.999 44.5649 65.9628 44.7017 65.894 44.8223C65.827 44.9464 65.7259 45.0484 65.6029 45.1162C65.4834 45.1847 65.3482 45.2208 65.2108 45.2208C65.0733 45.2208 64.9381 45.1847 64.8186 45.1162C64.6956 45.0483 64.5944 44.9463 64.5271 44.8223C64.4582 44.7017 64.4219 44.565 64.4219 44.4258C64.4219 44.2866 64.4582 44.1498 64.5271 44.0292C64.5952 43.9045 64.6977 43.8025 64.8223 43.7354C64.9417 43.6686 65.0758 43.6334 65.2124 43.6328ZM65.2124 43.7641C65.0997 43.765 64.989 43.7946 64.8906 43.85C64.7869 43.9053 64.7013 43.9898 64.6445 44.0932C64.5871 44.1938 64.5568 44.3077 64.5568 44.4237C64.5568 44.5398 64.5871 44.6537 64.6445 44.7543C64.7011 44.857 64.7857 44.9414 64.8882 44.9974C64.9876 45.0553 65.1004 45.0858 65.2152 45.0858C65.33 45.0858 65.4427 45.0553 65.5421 44.9974C65.6438 44.9411 65.7275 44.8567 65.7834 44.7543C65.84 44.6539 65.8698 44.5406 65.8699 44.4252C65.8695 44.3087 65.8391 44.1943 65.7818 44.0932C65.725 43.9898 65.6395 43.9053 65.5357 43.85C65.4368 43.7944 65.3256 43.7648 65.2124 43.7641ZM64.8689 44.8649V44.0138H65.1597C65.2326 44.0103 65.3056 44.0183 65.376 44.0377C65.4195 44.0522 65.4571 44.0807 65.483 44.1188C65.5088 44.1554 65.5228 44.1991 65.5232 44.244C65.5234 44.2741 65.5176 44.3039 65.5062 44.3318C65.4948 44.3596 65.4781 44.3849 65.4569 44.4061C65.4103 44.4538 65.3475 44.4818 65.2811 44.4843C65.3077 44.4948 65.3322 44.5102 65.3531 44.5297C65.401 44.5812 65.4431 44.6379 65.4786 44.6987L65.5815 44.8661H65.4146L65.3394 44.7316C65.2803 44.6258 65.2325 44.5593 65.1967 44.533C65.1645 44.5108 65.1258 44.5004 65.0869 44.5034H65.0065V44.8681L64.8689 44.8649ZM65.0052 44.3838H65.1713C65.2518 44.3838 65.3053 44.3721 65.3322 44.3482C65.3462 44.3369 65.3575 44.3225 65.365 44.3061C65.3725 44.2897 65.3762 44.2718 65.3756 44.2537C65.3759 44.2293 65.3685 44.2055 65.3543 44.1856C65.34 44.1653 65.32 44.1497 65.2968 44.1411C65.2521 44.1287 65.2056 44.1236 65.1593 44.1261H65.0032L65.0052 44.3838Z" fill="#231F20"/>
<path d="M32.5621 0.000137505C15.2857 -0.0343125 -3.24711 6.40378 0.483745 20.0715C3.6765 31.7582 24.461 33.5585 24.461 33.5585L32.5304 13.1227L40.6267 33.5585C40.6267 33.5585 65.0379 31.7971 65.0379 16.9362C65.0415 5.44931 49.0841 0.0333716 32.5621 0.000137505ZM46.8163 22.3809L32.5621 5.63372L18.1624 22.3809C18.1624 22.3809 8.11837 20.6227 8.11757 14.7208C8.11677 9.146 17.8253 3.97202 32.5621 3.83462C45.9054 3.7102 56.3472 8.39864 56.9202 14.7512C57.4298 20.4018 46.8163 22.3809 46.8163 22.3809Z" fill="#AAAAAA"/>
<path d="M64.4387 16.2756C64.3841 14.9543 61.877 1.32026 32.2525 0.424151C29.3377 0.335797 19.6158 0.766219 11.499 4.20352C4.82714 7.02882 0.282709 12.7406 0.684871 16.7891C1.95932 29.5964 20.6011 31.2832 21.73 31.3197C22.8589 31.3562 23.4685 32.0355 23.4685 32.0355C23.3881 31.7599 23.4685 31.0538 23.4685 31.0538C23.4685 31.0538 29.5215 16.2756 30.9415 14.4044C32.3615 12.5331 33.4538 12.4962 35.3472 16.6793C37.2406 20.8623 41.6458 31.3562 41.6458 31.3562C41.6458 31.3562 41.719 31.7967 41.6458 32.0355C41.6458 32.0355 42.0649 31.4681 42.7385 31.4847C43.4121 31.5013 52.8601 30.2834 58.2125 26.5129C63.5648 22.7425 64.4934 17.5965 64.4387 16.2756ZM60.0331 15.1379C59.7423 21.8897 50.0148 24.0544 46.853 24.6437L32.5506 7.33766L18.2348 24.6437C18.2348 24.6437 5.71189 22.9905 5.12755 15.2482C4.54321 7.50585 17.4337 1.52493 32.7259 1.48805C48.0181 1.45117 60.3472 7.86454 60.0331 15.1379Z" fill="url(#paint0_linear_928_19481)"/>
<path d="M27.666 1.67012C27.666 1.67012 31.5268 2.91762 32.5084 3.32129C32.5084 3.32129 35.7491 2.03691 38.152 1.67012C38.152 1.67012 31.234 0.716059 27.666 1.67012Z" fill="url(#paint1_linear_928_19481)"/>
<path d="M8.26017 15.9017L5.63244 17.3826C3.73505 15.006 5.78165 11.7969 5.78165 11.7969L8.18174 13.9421C8.18174 13.9421 7.99554 14.7969 8.26017 15.9017Z" fill="url(#paint2_linear_928_19481)"/>
<path d="M56.8556 15.9641L59.3732 17.3827C61.2706 15.006 59.224 11.7969 59.224 11.7969L56.7949 13.9526C56.7949 13.9526 57.068 15.1053 56.8556 15.9641Z" fill="url(#paint3_linear_928_19481)"/>
<path d="M32.5988 0.477093C7.3125 0.202304 -2.93095 12.7522 2.72464 21.062C7.2578 27.7218 22.8231 31.2073 22.8231 31.2073L32.5365 9.44827L42.1566 31.2073C42.1566 31.2073 48.1085 29.2619 49.9118 28.8768C51.7151 28.4918 60.6709 26.5103 63.2921 19.1352C65.9134 11.7601 57.8851 0.751883 32.5988 0.477093ZM60.0334 15.1358C59.7427 21.8875 50.0152 24.0522 46.8534 24.6415L32.5509 7.33548L18.2352 24.6415C18.2352 24.6415 5.7123 22.9883 5.12796 15.246C4.54362 7.50367 17.4341 1.52275 32.7263 1.48587C48.0185 1.44899 60.3475 7.86236 60.0334 15.1358Z" fill="#AAAAAA"/>
<defs>
<linearGradient id="paint0_linear_928_19481" x1="0.441965" y1="16.2245" x2="64.7665" y2="16.2245" gradientUnits="userSpaceOnUse">
<stop stop-color="#E3E3E3"/>
<stop offset="0.01" stop-color="#9F9F9F"/>
<stop offset="0.02" stop-color="#838383"/>
<stop offset="0.03" stop-color="#6D6D6D"/>
<stop offset="0.04" stop-color="#5C5C5C"/>
<stop offset="0.05" stop-color="#515151"/>
<stop offset="0.06" stop-color="#4A4A4A"/>
<stop offset="0.11" stop-color="#484848"/>
<stop offset="0.12" stop-color="#3E3E3E"/>
<stop offset="0.16" stop-color="#282828"/>
<stop offset="0.2" stop-color="#161616"/>
<stop offset="0.25" stop-color="#090909"/>
<stop offset="0.32" stop-color="#020202"/>
<stop offset="0.49"/>
<stop offset="0.6" stop-color="#040404"/>
<stop offset="0.72" stop-color="#121212"/>
<stop offset="0.85" stop-color="#272727"/>
<stop offset="0.93" stop-color="#393939"/>
<stop offset="0.94" stop-color="#3D3D3D"/>
<stop offset="0.95" stop-color="#4A4A4A"/>
<stop offset="0.96" stop-color="#5E5E5E"/>
<stop offset="0.97" stop-color="#7B7B7B"/>
<stop offset="0.98" stop-color="#A0A0A0"/>
<stop offset="0.99" stop-color="#CDCDCD"/>
<stop offset="1" stop-color="white"/>
</linearGradient>
<linearGradient id="paint1_linear_928_19481" x1="27.666" y1="2.28374" x2="38.043" y2="2.28374" gradientUnits="userSpaceOnUse">
<stop stop-color="#64655A"/>
<stop offset="0.16" stop-color="#626358"/>
<stop offset="0.26" stop-color="#5A5A51"/>
<stop offset="0.33" stop-color="#4D4C45"/>
<stop offset="0.4" stop-color="#3A3835"/>
<stop offset="0.46" stop-color="#231F20"/>
<stop offset="0.53" stop-color="#313033"/>
<stop offset="0.63" stop-color="#42464A"/>
<stop offset="0.73" stop-color="#4E565B"/>
<stop offset="0.85" stop-color="#565F65"/>
<stop offset="1" stop-color="#586268"/>
</linearGradient>
<linearGradient id="paint2_linear_928_19481" x1="6.54414" y1="12.952" x2="6.54414" y2="16.7415" gradientUnits="userSpaceOnUse">
<stop stop-color="#C3D1E6" stop-opacity="0"/>
<stop offset="0.06" stop-color="#C3D1E6" stop-opacity="0.02"/>
<stop offset="0.14" stop-color="#C3D1E6" stop-opacity="0.09"/>
<stop offset="0.22" stop-color="#C3D1E6" stop-opacity="0.19"/>
<stop offset="0.3" stop-color="#C3D1E6" stop-opacity="0.34"/>
<stop offset="0.39" stop-color="#C3D1E6" stop-opacity="0.52"/>
<stop offset="0.46" stop-color="#C3D1E6" stop-opacity="0.7"/>
<stop offset="0.49" stop-color="#C3D1E6" stop-opacity="0.64"/>
<stop offset="0.57" stop-color="#C3D1E6" stop-opacity="0.44"/>
<stop offset="0.66" stop-color="#C3D1E6" stop-opacity="0.28"/>
<stop offset="0.75" stop-color="#C3D1E6" stop-opacity="0.16"/>
<stop offset="0.83" stop-color="#C3D1E6" stop-opacity="0.07"/>
<stop offset="0.92" stop-color="#C3D1E6" stop-opacity="0.02"/>
<stop offset="1" stop-color="#C3D1E6" stop-opacity="0"/>
</linearGradient>
<linearGradient id="paint3_linear_928_19481" x1="58.4872" y1="12.9532" x2="58.4872" y2="16.7427" gradientUnits="userSpaceOnUse">
<stop stop-color="#CACCBE" stop-opacity="0"/>
<stop offset="0.07" stop-color="#CACCBE" stop-opacity="0.02"/>
<stop offset="0.15" stop-color="#CACCBE" stop-opacity="0.1"/>
<stop offset="0.23" stop-color="#CACCBE" stop-opacity="0.21"/>
<stop offset="0.33" stop-color="#CACCBE" stop-opacity="0.38"/>
<stop offset="0.42" stop-color="#CACCBE" stop-opacity="0.59"/>
<stop offset="0.46" stop-color="#CACCBE" stop-opacity="0.7"/>
<stop offset="0.55" stop-color="#CACCBE" stop-opacity="0.5"/>
<stop offset="0.64" stop-color="#CACCBE" stop-opacity="0.32"/>
<stop offset="0.73" stop-color="#CACCBE" stop-opacity="0.18"/>
<stop offset="0.82" stop-color="#CACCBE" stop-opacity="0.08"/>
<stop offset="0.91" stop-color="#CACCBE" stop-opacity="0.02"/>
<stop offset="1" stop-color="#CACCBE" stop-opacity="0"/>
</linearGradient>
</defs>
</svg>
