<svg width="153" height="36" viewBox="0 0 153 36" fill="none" xmlns="http://www.w3.org/2000/svg">
<mask id="mask0_928_19522" style="mask-type:luminance" maskUnits="userSpaceOnUse" x="0" y="0" width="37" height="36">
<path fill-rule="evenodd" clip-rule="evenodd" d="M0 0H36.1058V36H0V0Z" fill="white"/>
</mask>
<g mask="url(#mask0_928_19522)">
<path fill-rule="evenodd" clip-rule="evenodd" d="M19.5753 34.1154C19.4763 34.1786 18.8396 34.1861 18.7235 34.2052H17.6216C17.5054 34.1861 16.7681 34.1791 16.6692 34.1159C8.66012 33.4546 2.15005 26.6177 1.92835 18.6351C1.69684 10.2949 7.69531 3.04749 15.7429 1.95505C16.1335 1.90195 16.5528 1.86068 16.9488 1.84766H17.65H19.0525C24.7262 1.84525 30.8599 6.19869 33.2059 12.0638C37.1947 22.036 30.2528 33.2668 19.5753 34.1154ZM36.0473 16.3998C35.9459 15.4455 35.7733 14.9312 35.6271 14.2144C33.7031 4.78318 24.3971 -1.42997 14.7779 0.28428C5.29004 1.97519 -1.31621 11.2471 0.222727 20.7125C2.32587 33.6481 16.7192 40.171 27.7521 33.1C32.6437 29.9649 35.6242 25.3501 36.0833 19.4786C36.1485 18.2422 36.0507 17.7004 36.0547 16.5469C36.0549 16.4983 36.0524 16.4482 36.0473 16.3998Z" fill="#AAAAAA"/>
</g>
<path fill-rule="evenodd" clip-rule="evenodd" d="M25.0749 27.9048C24.7912 28.1185 24.4768 28.2953 24.1638 28.4657C23.4687 28.8438 22.842 28.763 22.4143 28.0654C21.9732 27.3458 22.2771 26.7799 22.8987 26.3325C23.2529 26.0778 23.6231 25.8449 23.9702 25.5814C28.6848 22.0027 28.9686 14.808 24.5499 10.8686C24.0736 10.444 23.5675 10.0588 22.8918 10.0115L22.5326 9.96124C22.2769 9.94411 22.232 9.96124 21.9315 9.96124C21.7311 9.96124 21.6577 9.96515 21.611 9.98077C21.5641 9.9935 21.5164 10.0062 21.4685 10.0191C19.0439 10.7505 18.3466 13.2924 20.09 15.1335C20.6635 15.7391 21.3304 16.2725 21.4782 17.148C21.5308 17.4746 21.631 18.0757 21.4857 18.8455C21.0118 20.4212 19.9422 21.3028 18.3164 21.4269C16.9098 21.5343 15.5997 20.653 15.0325 19.3316C14.4225 17.9103 14.7466 16.5625 16.1143 15.2956C17.0881 14.3933 17.4426 13.3213 17.0925 12.0869C16.7734 10.9616 16.072 10.1318 14.7931 10.0035C14.4181 9.96124 14.1176 9.96124 13.5921 10.0035C12.0014 10.2229 11.1472 11.4425 10.3441 12.5876C7.25301 16.9952 8.45435 23.0107 12.9485 25.9916C13.1138 26.1012 13.2889 26.1962 13.4521 26.3086C14.1068 26.7596 14.312 27.383 13.9173 28.0617C13.5066 28.7676 12.8258 28.8134 12.152 28.449C10.6967 27.6619 9.51794 26.5393 8.52527 25.2353C5.57503 21.3596 5.3356 15.8581 7.90557 11.6866C10.4424 7.56909 15.4294 5.2726 20.0474 6.09567C25.1455 7.00418 29.0902 10.6963 29.9866 15.6012C30.9164 20.6875 29.2 24.7982 25.0749 27.9048ZM31.6149 14.9547C30.3356 9.17934 25.669 4.9382 19.7562 4.17193C19.7263 4.16813 19.6971 4.16242 19.6678 4.15541C18.5421 3.88673 16.5663 4.1522 16.5663 4.1522C12.4361 4.64868 9.14358 6.58533 6.732 9.96503C2.05618 16.5182 4.13788 25.924 11.1238 29.9203C12.6191 30.7757 14.3119 30.4428 15.2475 29.1098C16.2394 27.6965 15.9725 26.0249 14.5595 24.8866C14.2517 24.6385 13.9056 24.4383 13.5822 24.209C9.57024 21.3649 9.2074 15.4735 12.8407 12.1779C13.4863 11.5921 14.2067 11.2297 14.9299 11.9686C15.6543 12.7088 15.3292 13.3633 14.6346 13.9916C13.7359 14.8046 13.0598 15.7909 13.0149 17.0751C12.9197 17.7952 12.9147 17.9767 13.0334 18.9593C13.5182 21.6037 15.7428 23.2542 18.5707 23.0679C21.0395 22.9054 23.1029 20.8216 23.2707 18.3411C23.392 16.5458 22.7329 15.0855 21.4118 13.9005C20.9181 13.4576 20.7052 12.9351 20.988 12.3058C21.2006 11.8332 21.5962 11.58 22.1265 11.5902C22.6457 11.6 22.9978 11.9349 23.35 12.2578C27.1589 15.7493 26.5191 21.5546 21.9909 24.5979C20.3383 25.7085 19.8464 27.5519 20.8163 29.0011C21.8324 30.5195 23.6057 30.8099 25.314 29.7379C30.4066 26.5419 32.8907 20.7138 31.6149 14.9547Z" fill="#AAAAAA"/>
<path fill-rule="evenodd" clip-rule="evenodd" d="M19.7634 18.0112C19.7509 18.8855 19.0516 19.5564 18.1577 19.5515C17.2846 19.5468 16.5874 18.8369 16.5998 17.9656C16.6122 17.0914 17.3239 16.408 18.2027 16.4261C19.0962 16.4446 19.7758 17.1349 19.7634 18.0112Z" fill="#AAAAAA"/>
<mask id="mask1_928_19522" style="mask-type:luminance" maskUnits="userSpaceOnUse" x="44" y="9" width="15" height="18">
<path fill-rule="evenodd" clip-rule="evenodd" d="M44.3926 9.37891H58.8381V26.729H44.3926V9.37891Z" fill="white"/>
</mask>
<g mask="url(#mask1_928_19522)">
<path fill-rule="evenodd" clip-rule="evenodd" d="M52.8869 16.8604L58.7409 25.8149C58.9977 26.2078 58.7159 26.729 58.2465 26.729H54.6263C54.427 26.729 54.2413 26.6286 54.1319 26.4618L50.2269 20.4967C50.0113 20.1673 49.5399 20.1369 49.2839 20.4357L48.7485 21.0607C48.6567 21.1677 48.6063 21.3038 48.6063 21.445V26.1382C48.6063 26.4644 48.3417 26.729 48.0155 26.729H44.9834C44.6572 26.729 44.3926 26.4644 44.3926 26.1382V10.0441C44.3926 9.7177 44.6572 9.45329 44.9834 9.45329H48.0155C48.3417 9.45329 48.6063 9.7177 48.6063 10.0441V13.0955C48.6063 13.6458 49.2922 13.8973 49.648 13.4773L52.9402 9.5879C53.0526 9.45532 53.2175 9.37891 53.3911 9.37891H57.3736C57.8761 9.37891 58.1491 9.96616 57.8252 10.3505L52.9296 16.1562C52.7616 16.3556 52.7442 16.642 52.8869 16.8604Z" fill="#AAAAAA"/>
</g>
<path fill-rule="evenodd" clip-rule="evenodd" d="M67.8603 9.40234H80.2366C80.563 9.40234 80.8274 9.66675 80.8274 9.99314V13.0501C80.8274 13.3762 80.563 13.6406 80.2366 13.6406H72.0738C71.7477 13.6406 71.483 13.9053 71.483 14.2314V15.3551C71.483 15.6812 71.7477 15.9459 72.0738 15.9459H78.2042C78.5305 15.9459 78.7949 16.2103 78.7949 16.5367V19.5686C78.7949 19.8949 78.5305 20.1593 78.2042 20.1593H72.0738C71.7477 20.1593 71.483 20.424 71.483 20.7501V21.8738C71.483 22.1999 71.7477 22.4643 72.0738 22.4643H80.2366C80.563 22.4643 80.8274 22.729 80.8274 23.0551V26.0873C80.8274 26.4134 80.563 26.6781 80.2366 26.6781H67.8603C67.5339 26.6781 67.2695 26.4134 67.2695 26.0873V9.99314C67.2695 9.66675 67.5339 9.40234 67.8603 9.40234Z" fill="#AAAAAA"/>
<path fill-rule="evenodd" clip-rule="evenodd" d="M101.137 9.45329H104.169C104.495 9.45329 104.76 9.7177 104.76 10.0441V26.1382C104.76 26.4646 104.495 26.729 104.169 26.729H100.468C100.269 26.729 100.083 26.6293 99.9744 26.4634L94.4424 18.0642C94.1199 17.5746 93.358 17.8028 93.358 18.3891V26.0886C93.358 26.415 93.0936 26.6794 92.7672 26.6794H89.7353C89.4089 26.6794 89.1445 26.415 89.1445 26.0886V9.9697C89.1445 9.64331 89.4089 9.37891 89.7353 9.37891H93.4615C93.6601 9.37891 93.8453 9.47885 93.9546 9.64457L99.462 17.9964C99.7846 18.4857 100.546 18.2573 100.546 17.671V10.0441C100.546 9.7177 100.81 9.45329 101.137 9.45329Z" fill="#AAAAAA"/>
<path fill-rule="evenodd" clip-rule="evenodd" d="M122.065 9.37891H126.279V20.0408C126.279 23.6384 123.334 26.6708 119.738 26.604C116.249 26.5393 113.439 23.6895 113.439 20.1855V19.9074C113.439 19.4862 113.781 19.1446 114.202 19.1446H116.89C117.311 19.1446 117.653 19.4862 117.653 19.9074V20.1053C117.653 21.278 118.534 22.3053 119.704 22.3862C120.988 22.4748 122.065 21.4513 122.065 20.1855V9.37891Z" fill="#AAAAAA"/>
<mask id="mask2_928_19522" style="mask-type:luminance" maskUnits="userSpaceOnUse" x="134" y="9" width="19" height="18">
<path fill-rule="evenodd" clip-rule="evenodd" d="M134.584 9.15625H152.331V26.9028H134.584V9.15625Z" fill="white"/>
</mask>
<g mask="url(#mask2_928_19522)">
<path fill-rule="evenodd" clip-rule="evenodd" d="M148.116 18.0309C148.116 15.4532 146.034 13.3711 143.457 13.3711C140.903 13.3711 138.797 15.4532 138.797 18.0309C138.797 20.6086 140.903 22.6907 143.457 22.6907C146.034 22.6907 148.116 20.6086 148.116 18.0309ZM152.331 18.0295C152.331 22.9371 148.365 26.9028 143.457 26.9028C138.575 26.9028 134.584 22.9371 134.584 18.0295C134.584 13.1468 138.575 9.15625 143.457 9.15625C148.365 9.15625 152.331 13.1468 152.331 18.0295Z" fill="#AAAAAA"/>
</g>
</svg>
