<svg xmlns="http://www.w3.org/2000/svg" width="118" height="95" viewBox="0 0 118 95" fill="none">
  <path d="M105.141 94.1033V76.348L100.172 49.0181H107.807L109.14 64.5919L110.473 49.0181H117.321L112.776 76.348V94.1033H105.141Z" fill="black"/>
  <path d="M86.7551 49.0181H99.7232V55.9263H94.2693V66.8946H98.8748V74.0452H94.2693V87.0739H99.905V94.1033H86.7551V49.0181Z" fill="black"/>
  <path d="M76.5202 54.7143V67.8642H77.1262C77.7322 67.8642 77.9746 67.5006 77.9746 66.834V55.7445C77.9746 55.0173 77.8534 54.7143 77.1868 54.7143H76.5202ZM76.5202 74.2876V94.1033H68.8242V49.0181H80.7621C83.4285 49.0181 85.5494 50.7148 85.5494 54.4113V65.0161C85.5494 68.046 84.095 69.3186 82.8225 69.8639C84.095 70.4093 85.6706 71.7425 85.6706 74.0452V91.9218C85.6706 92.7702 85.7918 93.4974 86.0342 93.9215V94.1033H78.4594C78.1564 93.7397 77.9746 93.0126 77.9746 92.2248V75.3178C77.9746 74.7118 77.8534 74.2876 77.1262 74.2876H76.5202Z" fill="black"/>
  <path d="M55.0359 94.1033V49.0181H67.8828V55.9263H62.5501V66.9552H66.9738L67.0344 74.0452H62.5501V94.1033H55.0359Z" fill="black"/>
  <path d="M37.0454 94.1033V49.0181H48.0137C51.3467 49.0181 53.9524 50.7148 53.9524 55.5021V87.2557C53.9524 91.9824 51.4679 94.1033 48.1349 94.1033H37.0454ZM44.5596 55.1991V87.7405H45.2868C46.014 87.7405 46.1958 87.2557 46.1958 86.2255V56.5929C46.1958 55.6839 46.014 55.1991 45.2868 55.1991H44.5596Z" fill="black"/>
  <path d="M35.9781 57.502V85.8015C35.9781 91.4371 32.827 94.5277 27.8579 94.5277H26.5853C21.3133 94.5277 18.4045 91.3159 18.4045 85.8015V57.502C18.4045 51.9875 20.8891 48.594 26.5853 48.594H27.7973C33.4936 48.594 35.9781 52.1087 35.9781 57.502ZM28.1003 86.4681V56.6536C28.1003 55.8052 27.8579 55.3204 27.1913 55.3204C26.5247 55.3204 26.3429 55.7446 26.3429 56.6536V86.4681C26.3429 87.2558 26.5853 87.68 27.1913 87.68C27.7973 87.68 28.1003 87.2558 28.1003 86.4681Z" fill="black"/>
  <path d="M6.18105 94.5277H5.99925C1.93915 94.5277 0 91.0735 0 87.074V56.4112C0 52.1693 2.06035 48.594 8.1202 48.594H9.15037C15.3314 48.594 17.0282 52.1693 17.0282 55.8052V65.9252H9.63516V56.1082C9.63516 55.381 9.45336 54.9568 8.72618 54.9568C8.0596 54.9568 7.8778 55.381 7.8778 56.1082V86.8922C7.8778 87.8012 8.24139 88.286 8.96858 88.286C9.63516 88.286 10.0594 87.8012 10.0594 86.8922V73.4394H8.48379V67.5613H17.3312V94.1035H12.1803C12.0591 93.4369 11.6349 91.8007 11.3925 91.2553C10.3623 92.8309 8.72618 94.5277 6.18105 94.5277Z" fill="black"/>
  <path d="M108.794 30.7842L107.885 13.6348L106.976 30.7842H108.794ZM109.582 45.5096L109.157 37.3894H106.552L106.127 45.5096H99.5222L103.279 0.424316H112.975L117.035 45.5096H109.582Z" fill="black"/>
  <path d="M91.0416 39.3284C91.7081 39.3284 91.8293 38.783 91.8293 38.0559V24.906H99.3436V38.2377C99.3436 42.2978 97.1014 45.9337 91.7081 45.9337H90.4962C84.7393 45.9337 82.376 42.7825 82.376 37.5105V8.1808C82.4366 3.45412 84.6181 0 90.4356 0H91.7081C97.0408 0 99.3436 2.90873 99.3436 7.33242V19.2703H91.8293V7.57481C91.8293 6.84763 91.7081 6.42344 91.0416 6.42344C90.4356 6.42344 90.2538 6.78703 90.2538 7.57481V38.0559C90.2538 38.8436 90.4356 39.3284 91.0416 39.3284Z" fill="black"/>
  <path d="M73.0513 39.3284C73.7179 39.3284 73.8391 38.783 73.8391 38.0559V24.906H81.3533V38.2377C81.3533 42.2978 79.1112 45.9337 73.7179 45.9337H72.5059C66.7491 45.9337 64.3857 42.7825 64.3857 37.5105V8.1808C64.4463 3.45412 66.6279 0 72.4453 0H73.7179C79.0506 0 81.3533 2.90873 81.3533 7.33242V19.2703H73.8391V7.57481C73.8391 6.84763 73.7179 6.42344 73.0513 6.42344C72.4453 6.42344 72.2635 6.78703 72.2635 7.57481V38.0559C72.2635 38.8436 72.4453 39.3284 73.0513 39.3284Z" fill="black"/>
  <path d="M50.3606 0.424316H63.3287V7.33254H57.8748V18.3009H62.4803V25.4515H57.8748V38.4802H63.5105V45.5096H50.3606V0.424316Z" fill="black"/>
  <path d="M32.0747 45.5096V0.424316H43.7096C46.8001 0.424316 48.7999 2.06048 48.7999 6.12057V16.3011C48.7999 19.331 46.8001 20.7248 45.8306 21.0278C47.1031 21.3914 49.4059 22.664 49.4059 26.2999V38.662C49.4059 43.1463 47.4061 45.5096 43.649 45.5096H32.0747ZM40.3161 6.12057H39.7707V18.9675H40.3161C40.9827 18.9675 41.2251 18.6039 41.2251 17.8161V7.21135C41.2251 6.42357 41.1039 6.12057 40.3161 6.12057ZM40.4979 24.5425H39.7707V39.6315H40.4979C41.2857 39.6315 41.4069 39.2679 41.4069 38.4802V25.7545C41.4069 24.9061 41.2251 24.5425 40.4979 24.5425Z" fill="black"/>
  <path d="M17.9312 0.424316H30.8992V7.33254H25.4454V18.3009H30.0508V25.4515H25.4454V38.4802H31.081V45.5096H17.9312V0.424316Z" fill="black"/>
  <path d="M7.69601 6.12057V19.2704H8.30199C8.90798 19.2704 9.15037 18.9069 9.15037 18.2403V7.15075C9.15037 6.42357 9.02917 6.12057 8.36259 6.12057H7.69601ZM7.69601 25.6939V45.5096H0V0.424316H11.9379C14.6042 0.424316 16.7252 2.12107 16.7252 5.81758V16.4223C16.7252 19.4522 15.2708 20.7248 13.9983 21.2702C15.2708 21.8156 16.8464 23.1488 16.8464 25.4515V43.328C16.8464 44.1764 16.9676 44.9036 17.21 45.3278V45.5096H9.63516C9.33217 45.146 9.15037 44.4188 9.15037 43.631V26.7241C9.15037 26.1181 9.02918 25.6939 8.30199 25.6939H7.69601Z" fill="black"/>
</svg>