<svg width="1340" height="252" viewBox="0 0 1340 252" fill="none" xmlns="http://www.w3.org/2000/svg">
<path d="M43.104 34.65V108.213H46.494C49.884 108.213 51.24 106.179 51.24 102.45V40.413C51.24 36.345 50.562 34.65 46.833 34.65H43.104ZM43.104 144.147V255H0.0510002V2.78399H66.834C81.75 2.78399 93.615 12.276 93.615 32.955V92.28C93.615 109.23 85.479 116.349 78.36 119.4C85.479 122.451 94.293 129.909 94.293 142.791V242.796C94.293 247.542 94.971 251.61 96.327 253.983V255H53.952C52.257 252.966 51.24 248.898 51.24 244.491V149.91C51.24 146.52 50.562 144.147 46.494 144.147H43.104ZM100.361 2.78399H172.907V41.43H142.397V102.789H168.161V142.791H142.397V215.676H173.924V255H100.361V2.78399ZM179.483 255V2.78399H244.571C261.86 2.78399 273.047 11.937 273.047 34.65V91.602C273.047 108.552 261.86 116.349 256.436 118.044C263.555 120.078 276.437 127.197 276.437 147.537V216.693C276.437 241.779 265.25 255 244.232 255H179.483ZM225.587 34.65H222.536V106.518H225.587C229.316 106.518 230.672 104.484 230.672 100.077V40.752C230.672 36.345 229.994 34.65 225.587 34.65ZM226.604 137.706H222.536V222.117H226.604C231.011 222.117 231.689 220.083 231.689 215.676V144.486C231.689 139.74 230.672 137.706 226.604 137.706ZM281.779 2.78399H354.325V41.43H323.815V102.789H349.579V142.791H323.815V215.676H355.342V255H281.779V2.78399ZM408.716 220.422C412.445 220.422 413.123 217.371 413.123 213.303V139.74H455.159V214.32C455.159 237.033 442.616 257.373 412.445 257.373H405.665C373.46 257.373 360.239 239.745 360.239 210.252V46.176C360.578 19.734 372.782 0.410984 405.326 0.410984H412.445C442.277 0.410984 455.159 16.683 455.159 41.43V108.213H413.123V42.786C413.123 38.718 412.445 36.345 408.716 36.345C405.326 36.345 404.309 38.379 404.309 42.786V213.303C404.309 217.71 405.326 220.422 408.716 220.422ZM509.356 220.422C513.085 220.422 513.763 217.371 513.763 213.303V139.74H555.799V214.32C555.799 237.033 543.256 257.373 513.085 257.373H506.305C474.1 257.373 460.879 239.745 460.879 210.252V46.176C461.218 19.734 473.422 0.410984 505.966 0.410984H513.085C542.917 0.410984 555.799 16.683 555.799 41.43V108.213H513.763V42.786C513.763 38.718 513.085 36.345 509.356 36.345C505.966 36.345 504.949 38.379 504.949 42.786V213.303C504.949 217.71 505.966 220.422 509.356 220.422ZM608.665 172.623L603.58 76.686L598.495 172.623H608.665ZM613.072 255L610.699 209.574H596.122L593.749 255H556.798L577.816 2.78399H632.056L654.769 255H613.072ZM718.257 257.373H717.24C694.527 257.373 683.679 238.05 683.679 215.676V44.142C683.679 20.412 695.205 0.410984 729.105 0.410984H734.868C769.446 0.410984 778.938 20.412 778.938 40.752V97.365H737.58V42.447C737.58 38.379 736.563 36.006 732.495 36.006C728.766 36.006 727.749 38.379 727.749 42.447V214.659C727.749 219.744 729.783 222.456 733.851 222.456C737.58 222.456 739.953 219.744 739.953 214.659V139.401H731.139V106.518H780.633V255H751.818C751.14 251.271 748.767 242.118 747.411 239.067C741.648 247.881 732.495 257.373 718.257 257.373ZM884.947 50.244V208.557C884.947 240.084 867.319 257.373 839.521 257.373H832.402C802.909 257.373 786.637 239.406 786.637 208.557V50.244C786.637 19.395 800.536 0.410984 832.402 0.410984H839.182C871.048 0.410984 884.947 20.073 884.947 50.244ZM840.877 212.286V45.498C840.877 40.752 839.521 38.04 835.792 38.04C832.063 38.04 831.046 40.413 831.046 45.498V212.286C831.046 216.693 832.402 219.066 835.792 219.066C839.182 219.066 840.877 216.693 840.877 212.286ZM890.919 255V2.78399H952.278C970.923 2.78399 985.5 12.276 985.5 39.057V216.693C985.5 243.135 971.601 255 952.956 255H890.919ZM932.955 37.362V219.405H937.023C941.091 219.405 942.108 216.693 942.108 210.93V45.159C942.108 40.074 941.091 37.362 937.023 37.362H932.955ZM991.56 255V2.78399H1063.43V41.43H1033.6V103.128H1058.34L1058.68 142.791H1033.6V255H991.56ZM1111.75 34.65V108.213H1115.14C1118.53 108.213 1119.88 106.179 1119.88 102.45V40.413C1119.88 36.345 1119.21 34.65 1115.48 34.65H1111.75ZM1111.75 144.147V255H1068.7V2.78399H1135.48C1150.39 2.78399 1162.26 12.276 1162.26 32.955V92.28C1162.26 109.23 1154.12 116.349 1147 119.4C1154.12 122.451 1162.94 129.909 1162.94 142.791V242.796C1162.94 247.542 1163.62 251.61 1164.97 253.983V255H1122.6C1120.9 252.966 1119.88 248.898 1119.88 244.491V149.91C1119.88 146.52 1119.21 144.147 1115.14 144.147H1111.75ZM1169.01 2.78399H1241.55V41.43H1211.04V102.789H1236.81V142.791H1211.04V215.676H1242.57V255H1169.01V2.78399ZM1271.86 255V155.673L1244.06 2.78399H1286.77L1294.23 89.907L1301.69 2.78399H1340L1314.57 155.673V255H1271.86Z" fill="black"/>
</svg>
