<svg width="390" height="301" viewBox="0 0 390 301" fill="none" xmlns="http://www.w3.org/2000/svg">
<path d="M51.6553 264.584L53.151 264.17L50.9791 256.321L56.6361 263.206L57.7309 262.903L59.0748 254.081L61.2468 261.93L62.7426 261.516L59.7556 250.722L58.2444 251.14L56.6821 260.852L50.4416 253.299L48.6682 253.79L51.6553 264.584ZM66.2048 252.291C63.9997 252.901 62.7728 255.066 63.3916 257.302C64.0018 259.508 66.1674 260.734 68.3725 260.124C70.5468 259.522 71.7891 257.353 71.1789 255.147C70.5602 252.911 68.3791 251.689 66.2048 252.291ZM64.764 256.923C64.3629 255.473 65.1616 254.04 66.5803 253.648C67.9682 253.264 69.4208 254.073 69.8219 255.523C70.2187 256.957 69.3849 258.383 67.997 258.767C66.5783 259.16 65.1608 258.357 64.764 256.923ZM76.8896 257.701C77.1518 257.628 77.4671 257.508 77.6813 257.382L77.3186 256.071C77.1772 256.16 76.981 256.231 76.8114 256.278C75.917 256.526 75.1892 256.295 74.899 255.247L73.9389 251.777L75.9744 251.214L75.5989 249.857L73.5634 250.42L73.0002 248.385L71.5815 248.777L72.1447 250.813L70.6798 251.218L71.0553 252.575L72.5202 252.17L73.4889 255.67C73.9967 257.505 75.3013 258.14 76.8896 257.701ZM77.0682 249.45L79.1506 256.976L80.5847 256.579L78.5023 249.054L77.0682 249.45ZM76.167 247.093C76.312 247.618 76.8633 247.93 77.3876 247.785C77.9119 247.64 78.2242 247.089 78.0791 246.564C77.9383 246.055 77.3828 245.728 76.8585 245.873C76.3342 246.018 76.0261 246.585 76.167 247.093ZM83.9293 247.386C81.7242 247.996 80.4973 250.162 81.1161 252.398C81.7263 254.603 83.8919 255.83 86.0971 255.219C88.2713 254.618 89.5136 252.448 88.9034 250.243C88.2847 248.007 86.1036 246.784 83.9293 247.386ZM82.4885 252.018C82.0874 250.568 82.8862 249.135 84.3048 248.743C85.6927 248.359 87.1453 249.169 87.5464 250.618C87.9433 252.052 87.1094 253.478 85.7215 253.862C84.3029 254.255 82.8853 253.452 82.4885 252.018ZM90.8504 245.637L89.4317 246.029L91.5141 253.554L92.9328 253.162L91.7849 249.014L91.8003 249.009C91.4376 247.699 92.0314 246.605 93.2958 246.255C94.5295 245.913 95.5703 246.555 95.933 247.866L97.0809 252.014L98.515 251.617L97.3244 247.315C96.7484 245.233 95.1717 244.275 93.2442 244.808C92.1493 245.111 91.4394 245.905 91.2259 246.994L90.8504 245.637ZM109.473 242.592L106.651 243.373L105.874 240.566L104.548 240.933L105.325 243.74L102.503 244.521L102.87 245.847L105.692 245.066L106.477 247.903L107.803 247.536L107.018 244.699L109.84 243.918L109.473 242.592ZM113.678 235.8L116.665 246.595L118.161 246.181L115.174 235.386L113.678 235.8ZM119.583 237.686L118.164 238.078L120.247 245.603L121.665 245.211L120.518 241.063L120.533 241.059C120.17 239.748 120.764 238.654 122.029 238.304C123.262 237.963 124.303 238.604 124.666 239.915L125.814 244.063L127.248 243.666L126.057 239.364C125.481 237.282 123.904 236.324 121.977 236.857C120.882 237.16 120.172 237.954 119.959 239.043L119.583 237.686ZM132.187 242.399C132.449 242.327 132.764 242.206 132.978 242.08L132.615 240.77C132.474 240.859 132.278 240.93 132.108 240.976C131.214 241.224 130.486 240.994 130.196 239.945L129.236 236.476L131.271 235.912L130.896 234.555L128.86 235.119L128.297 233.083L126.878 233.476L127.442 235.511L125.977 235.916L126.352 237.273L127.817 236.868L128.786 240.369C129.294 242.204 130.598 242.839 132.187 242.399ZM137.493 240.997C139.312 240.494 140.469 239.095 140.311 237.445L138.908 237.833C138.945 238.686 138.231 239.465 137.167 239.759C135.748 240.152 134.512 239.465 133.996 238.08L140.087 236.395L139.949 235.835C139.368 233.738 137.334 232.624 135.314 233.183C133.155 233.781 131.943 235.942 132.545 238.116C133.164 240.352 135.318 241.599 137.493 240.997ZM133.755 236.968C133.704 235.704 134.402 234.747 135.605 234.414C136.776 234.09 137.893 234.644 138.288 235.714L133.755 236.968ZM142.64 239.407L144.074 239.01L142.9 234.769C142.538 233.459 143.201 232.379 144.327 232.067C144.574 231.999 144.849 231.972 145.102 231.986L144.739 230.675C144.506 230.673 144.251 230.71 144.019 230.774C143.125 231.022 142.532 231.7 142.294 232.58L141.991 231.485L140.557 231.882L142.64 239.407ZM153.052 228.424L151.634 228.817L152.06 230.359C151.206 229.433 150.049 229.089 148.723 229.456C146.687 230.019 145.55 232.21 146.152 234.384C146.754 236.559 148.855 237.853 150.89 237.29C152.217 236.923 153.033 236.033 153.289 234.8L153.716 236.342L155.135 235.949L153.052 228.424ZM147.54 234C147.143 232.566 147.957 231.129 149.391 230.732C150.872 230.322 152.265 231.099 152.675 232.579C153.084 234.06 152.288 235.442 150.808 235.852C149.374 236.249 147.937 235.434 147.54 234ZM160.639 234.592C162.412 234.101 163.634 232.518 163.394 230.808L161.96 231.205C161.998 232.124 161.25 232.962 160.264 233.235C158.845 233.628 157.458 232.816 157.061 231.382C156.656 229.917 157.428 228.508 158.847 228.116C159.834 227.842 160.875 228.185 161.313 228.927L162.762 228.526C162.08 227.022 160.229 226.272 158.471 226.759C156.282 227.364 155.059 229.546 155.674 231.766C156.284 233.971 158.449 235.198 160.639 234.592ZM169.036 232.202C169.298 232.13 169.613 232.009 169.828 231.883L169.465 230.573C169.324 230.662 169.127 230.733 168.958 230.779C168.063 231.027 167.336 230.797 167.045 229.748L166.085 226.279L168.121 225.715L167.745 224.358L165.71 224.922L165.147 222.886L163.728 223.279L164.291 225.314L162.826 225.719L163.202 227.076L164.667 226.671L165.635 230.172C166.143 232.007 167.448 232.642 169.036 232.202ZM169.215 223.952L171.297 231.477L172.731 231.08L170.649 223.555L169.215 223.952ZM168.313 221.595C168.458 222.119 169.01 222.431 169.534 222.286C170.058 222.141 170.371 221.59 170.226 221.066C170.085 220.557 169.529 220.229 169.005 220.374C168.481 220.519 168.173 221.086 168.313 221.595ZM176.076 221.887C173.871 222.497 172.644 224.663 173.263 226.899C173.873 229.104 176.038 230.331 178.243 229.721C180.418 229.119 181.66 226.949 181.05 224.744C180.431 222.508 178.25 221.285 176.076 221.887ZM174.635 226.519C174.234 225.07 175.033 223.637 176.451 223.244C177.839 222.86 179.292 223.67 179.693 225.119C180.09 226.554 179.256 227.98 177.868 228.364C176.449 228.756 175.032 227.953 174.635 226.519ZM182.997 220.138L181.578 220.53L183.661 228.056L185.079 227.663L183.931 223.515L183.947 223.511C183.584 222.2 184.178 221.106 185.442 220.756C186.676 220.415 187.717 221.056 188.079 222.367L189.227 226.515L190.661 226.118L189.471 221.816C188.895 219.734 187.318 218.776 185.391 219.309C184.296 219.612 183.586 220.407 183.372 221.495L182.997 220.138ZM196.765 212.809L193.311 213.764L196.298 224.559L199.752 223.603C202.774 222.766 204.458 219.794 203.596 216.679C202.743 213.595 199.787 211.972 196.765 212.809ZM197.401 222.726L195.199 214.769L197.25 214.202C199.409 213.604 201.438 214.819 202.07 217.101C202.71 219.414 201.595 221.565 199.452 222.159L197.401 222.726ZM210.107 220.903C211.927 220.4 213.084 219.001 212.926 217.351L211.523 217.739C211.56 218.592 210.845 219.371 209.781 219.665C208.363 220.058 207.127 219.371 206.611 217.986L212.702 216.301L212.564 215.741C211.983 213.644 209.949 212.53 207.929 213.089C205.77 213.687 204.558 215.848 205.16 218.022C205.779 220.258 207.933 221.505 210.107 220.903ZM206.369 216.874C206.318 215.61 207.017 214.653 208.219 214.32C209.391 213.996 210.508 214.55 210.903 215.62L206.369 216.874ZM217.934 218.737C219.569 218.285 220.529 216.957 220.158 215.615C219.296 212.5 215.242 215.249 214.747 213.46C214.594 212.905 215.051 212.397 215.837 212.179C216.701 211.94 217.445 212.232 217.704 212.808L219.138 212.411C218.552 211.013 217.031 210.554 215.535 210.968C213.854 211.433 213.035 212.672 213.389 213.952C214.183 216.82 218.262 214.164 218.779 216.03C218.954 216.662 218.472 217.261 217.531 217.521C216.575 217.785 215.744 217.484 215.447 216.769L214.09 217.145C214.667 218.629 216.176 219.224 217.934 218.737ZM220.235 209.833L222.317 217.359L223.751 216.962L221.669 209.437L220.235 209.833ZM219.334 207.476C219.479 208.001 220.03 208.313 220.554 208.168C221.078 208.023 221.391 207.472 221.246 206.947C221.105 206.438 220.549 206.111 220.025 206.256C219.501 206.401 219.193 206.967 219.334 207.476ZM230.358 218.537C232.532 217.935 233.773 216.181 233.189 214.068L231.179 206.805L229.76 207.198L230.174 208.693C229.333 207.814 228.175 207.47 226.849 207.837C224.814 208.4 223.664 210.545 224.253 212.673C224.842 214.801 226.934 216.064 228.97 215.501C230.296 215.134 231.112 214.244 231.377 213.042L231.787 214.522C232.15 215.833 231.34 216.987 229.983 217.362C228.78 217.695 227.62 217.402 227.318 216.489L225.914 216.878C226.549 218.811 228.77 218.976 230.358 218.537ZM225.641 212.289C225.252 210.885 226.075 209.479 227.509 209.082C228.989 208.672 230.379 209.433 230.776 210.868C231.177 212.317 230.376 213.684 228.896 214.094C227.462 214.491 226.029 213.692 225.641 212.289ZM234.574 205.865L233.155 206.258L235.238 213.783L236.656 213.391L235.509 209.242L235.524 209.238C235.161 207.927 235.755 206.833 237.02 206.484C238.253 206.142 239.294 206.784 239.657 208.095L240.805 212.243L242.239 211.846L241.048 207.544C240.472 205.462 238.895 204.504 236.968 205.037C235.873 205.34 235.163 206.134 234.95 207.222L234.574 205.865Z" fill="url(#paint0_linear_994_19638)"/>
<rect x="26.5859" y="242.567" width="245.829" height="41.9743" rx="20.9871" transform="rotate(-15.4678 26.5859 242.567)" stroke="#525252"/>
<path d="M6.15789 199.164C8.73389 199.164 10.8459 197.532 11.3099 195.148H9.58189C9.21389 196.636 7.82189 197.676 6.15789 197.676C3.88589 197.676 2.14189 195.804 2.14189 193.372C2.14189 190.988 3.88589 189.132 6.15789 189.132C7.78989 189.132 9.18189 190.108 9.56589 191.516H11.2779C10.8779 189.26 8.66989 187.644 6.15789 187.644C2.98989 187.644 0.557891 190.14 0.557891 193.372C0.557891 196.652 2.98989 199.164 6.15789 199.164ZM18.6535 199.004H20.1415V191.196H18.6695L18.6535 195.5C18.6535 196.86 17.7895 197.756 16.4775 197.756C15.1975 197.756 14.3655 196.86 14.3655 195.5V191.196H12.8775V195.66C12.8775 197.82 14.1415 199.164 16.1415 199.164C17.2775 199.164 18.1575 198.604 18.6535 197.628V199.004ZM24.926 199.164C26.622 199.164 27.902 198.14 27.902 196.748C27.902 193.516 23.262 195.084 23.262 193.228C23.262 192.652 23.838 192.284 24.654 192.284C25.55 192.284 26.19 192.764 26.286 193.388H27.774C27.582 191.884 26.238 191.036 24.686 191.036C22.942 191.036 21.822 192.012 21.822 193.34C21.822 196.316 26.462 194.844 26.462 196.78C26.462 197.436 25.838 197.884 24.862 197.884C23.87 197.884 23.15 197.372 23.054 196.604H21.646C21.806 198.188 23.102 199.164 24.926 199.164ZM32.755 199.1C33.027 199.1 33.363 199.068 33.603 199.004V197.644C33.443 197.692 33.235 197.708 33.059 197.708C32.131 197.708 31.491 197.292 31.491 196.204V192.604H33.603V191.196H31.491V189.084H30.019V191.196H28.499V192.604H30.019V196.236C30.019 198.14 31.107 199.1 32.755 199.1ZM38.2908 191.036C36.0028 191.036 34.2428 192.796 34.2428 195.116C34.2428 197.404 36.0028 199.164 38.2908 199.164C40.5468 199.164 42.3228 197.404 42.3228 195.116C42.3228 192.796 40.5468 191.036 38.2908 191.036ZM35.6668 195.116C35.6668 193.612 36.8188 192.444 38.2908 192.444C39.7308 192.444 40.9148 193.612 40.9148 195.116C40.9148 196.604 39.7308 197.756 38.2908 197.756C36.8188 197.756 35.6668 196.604 35.6668 195.116ZM56.2116 194.284C56.2116 192.284 54.9476 191.036 53.0276 191.036C51.9236 191.036 50.8996 191.612 50.4516 192.572C49.9876 191.532 49.1236 191.036 47.8916 191.036C46.9956 191.036 45.9876 191.388 45.4276 192.428V191.196H43.9556V199.004H45.4276V194.588H45.4436C45.4436 193.036 46.4516 192.444 47.3956 192.444C48.6116 192.444 49.3476 193.26 49.3476 194.588V199.004H50.8196V194.588C50.8196 193.068 51.8276 192.444 52.8036 192.444C54.0036 192.444 54.7396 193.26 54.7396 194.588V199.004H56.2116V194.284ZM67.2516 199.164C69.8276 199.164 71.9396 197.532 72.4036 195.148H70.6756C70.3076 196.636 68.9156 197.676 67.2516 197.676C64.9796 197.676 63.2356 195.804 63.2356 193.372C63.2356 190.988 64.9796 189.132 67.2516 189.132C68.8836 189.132 70.2756 190.108 70.6596 191.516H72.3716C71.9716 189.26 69.7636 187.644 67.2516 187.644C64.0836 187.644 61.6516 190.14 61.6516 193.372C61.6516 196.652 64.0836 199.164 67.2516 199.164ZM77.7283 191.036C75.4403 191.036 73.6803 192.796 73.6803 195.116C73.6803 197.404 75.4403 199.164 77.7283 199.164C79.9843 199.164 81.7603 197.404 81.7603 195.116C81.7603 192.796 79.9843 191.036 77.7283 191.036ZM75.1043 195.116C75.1043 193.612 76.2563 192.444 77.7283 192.444C79.1683 192.444 80.3523 193.612 80.3523 195.116C80.3523 196.604 79.1683 197.756 77.7283 197.756C76.2563 197.756 75.1043 196.604 75.1043 195.116ZM86.8856 197.756C85.3976 197.756 84.2296 196.588 84.2296 195.1C84.2296 193.612 85.3976 192.444 86.8856 192.444C88.3096 192.444 89.3976 193.42 89.5416 194.796V195.404C89.3976 196.78 88.3096 197.756 86.8856 197.756ZM82.7896 195.1C82.7896 197.356 84.4696 199.164 86.5816 199.164C87.9416 199.164 88.9656 198.524 89.5416 197.436V199.004H91.0296V187.804H89.5416V192.764C88.9656 191.676 87.9416 191.036 86.5816 191.036C84.4696 191.036 82.7896 192.844 82.7896 195.1ZM96.4928 199.164C98.3808 199.164 99.8688 198.124 100.157 196.492H98.7008C98.5088 197.324 97.6128 197.884 96.5088 197.884C95.0368 197.884 94.0288 196.892 93.9008 195.42H100.221L100.237 194.844C100.237 192.668 98.5728 191.052 96.4768 191.052C94.2368 191.052 92.4928 192.812 92.4928 195.068C92.4928 197.388 94.2368 199.164 96.4928 199.164ZM93.9648 194.284C94.2528 193.052 95.1808 192.316 96.4288 192.316C97.6448 192.316 98.5728 193.148 98.6688 194.284H93.9648Z" fill="url(#paint1_linear_994_19638)"/>
<rect x="-16.5" y="171.27" width="169.671" height="41.8591" rx="20.9296" stroke="#525252"/>
<path d="M211.44 263H208.688V259.272H211.44C212.512 259.272 213.344 260.072 213.344 261.128C213.344 262.184 212.512 263 211.44 263ZM207.136 269H208.688V264.472H211.44C213.408 264.472 214.88 263.032 214.88 261.128C214.88 259.224 213.408 257.8 211.44 257.8H207.136V269ZM216.305 269H217.793V264.6C217.793 263.24 218.721 262.376 219.889 262.376C220.145 262.376 220.417 262.424 220.657 262.504V261.144C220.433 261.08 220.177 261.048 219.937 261.048C219.009 261.048 218.257 261.544 217.793 262.328V261.192H216.305V269ZM225.078 261.032C222.79 261.032 221.03 262.792 221.03 265.112C221.03 267.4 222.79 269.16 225.078 269.16C227.334 269.16 229.11 267.4 229.11 265.112C229.11 262.792 227.334 261.032 225.078 261.032ZM222.454 265.112C222.454 263.608 223.606 262.44 225.078 262.44C226.518 262.44 227.702 263.608 227.702 265.112C227.702 266.6 226.518 267.752 225.078 267.752C223.606 267.752 222.454 266.6 222.454 265.112ZM234.235 267.752C232.747 267.752 231.579 266.584 231.579 265.096C231.579 263.608 232.747 262.44 234.235 262.44C235.659 262.44 236.747 263.416 236.891 264.792V265.4C236.747 266.776 235.659 267.752 234.235 267.752ZM230.139 265.096C230.139 267.352 231.819 269.16 233.931 269.16C235.291 269.16 236.315 268.52 236.891 267.432V269H238.379V257.8H236.891V262.76C236.315 261.672 235.291 261.032 233.931 261.032C231.819 261.032 230.139 262.84 230.139 265.096ZM246.206 269H247.694V261.192H246.222L246.206 265.496C246.206 266.856 245.342 267.752 244.03 267.752C242.75 267.752 241.918 266.856 241.918 265.496V261.192H240.43V265.656C240.43 267.816 241.694 269.16 243.694 269.16C244.83 269.16 245.71 268.6 246.206 267.624V269ZM253.359 269.16C255.199 269.16 256.799 267.96 257.023 266.248H255.535C255.327 267.144 254.383 267.752 253.359 267.752C251.887 267.752 250.767 266.6 250.767 265.112C250.767 263.592 251.887 262.44 253.359 262.44C254.383 262.44 255.295 263.048 255.519 263.88H257.023C256.767 262.248 255.183 261.032 253.359 261.032C251.087 261.032 249.327 262.808 249.327 265.112C249.327 267.4 251.087 269.16 253.359 269.16ZM262.089 269.096C262.361 269.096 262.697 269.064 262.937 269V267.64C262.777 267.688 262.569 267.704 262.393 267.704C261.465 267.704 260.825 267.288 260.825 266.2V262.6H262.937V261.192H260.825V259.08H259.353V261.192H257.833V262.6H259.353V266.232C259.353 268.136 260.441 269.096 262.089 269.096ZM271.845 257.8H268.261V269H271.845C274.981 269 277.397 266.584 277.397 263.352C277.397 260.152 274.981 257.8 271.845 257.8ZM269.813 267.528V259.272H271.941C274.181 259.272 275.813 260.984 275.813 263.352C275.813 265.752 274.165 267.528 271.941 267.528H269.813ZM282.546 269.16C284.434 269.16 285.922 268.12 286.21 266.488H284.754C284.562 267.32 283.666 267.88 282.562 267.88C281.09 267.88 280.082 266.888 279.954 265.416H286.274L286.29 264.84C286.29 262.664 284.626 261.048 282.53 261.048C280.289 261.048 278.546 262.808 278.546 265.064C278.546 267.384 280.289 269.16 282.546 269.16ZM280.018 264.28C280.306 263.048 281.234 262.312 282.482 262.312C283.698 262.312 284.626 263.144 284.722 264.28H280.018ZM294.675 261.192H293.059L290.739 267.08L288.403 261.192H286.803L290.099 269H291.379L294.675 261.192ZM299.186 269.16C301.074 269.16 302.562 268.12 302.85 266.488H301.394C301.202 267.32 300.306 267.88 299.202 267.88C297.73 267.88 296.722 266.888 296.594 265.416H302.914L302.93 264.84C302.93 262.664 301.266 261.048 299.17 261.048C296.93 261.048 295.186 262.808 295.186 265.064C295.186 267.384 296.93 269.16 299.186 269.16ZM296.658 264.28C296.946 263.048 297.874 262.312 299.122 262.312C300.338 262.312 301.266 263.144 301.362 264.28H296.658ZM305.996 257.8H304.508V269H305.996V257.8ZM311.5 261.032C309.212 261.032 307.452 262.792 307.452 265.112C307.452 267.4 309.212 269.16 311.5 269.16C313.756 269.16 315.532 267.4 315.532 265.112C315.532 262.792 313.756 261.032 311.5 261.032ZM308.876 265.112C308.876 263.608 310.028 262.44 311.5 262.44C312.94 262.44 314.124 263.608 314.124 265.112C314.124 266.6 312.94 267.752 311.5 267.752C310.028 267.752 308.876 266.6 308.876 265.112ZM321.309 262.44C322.797 262.44 323.965 263.608 323.965 265.096C323.965 266.584 322.797 267.752 321.309 267.752C319.885 267.752 318.797 266.776 318.653 265.4V264.792C318.797 263.416 319.885 262.44 321.309 262.44ZM317.165 271.832H318.653V267.432C319.229 268.52 320.253 269.16 321.613 269.16C323.725 269.16 325.405 267.352 325.405 265.096C325.405 262.84 323.725 261.032 321.613 261.032C320.253 261.032 319.229 261.672 318.653 262.76V261.192H317.165V271.832ZM339.296 264.28C339.296 262.28 338.032 261.032 336.112 261.032C335.008 261.032 333.984 261.608 333.536 262.568C333.072 261.528 332.208 261.032 330.976 261.032C330.08 261.032 329.072 261.384 328.512 262.424V261.192H327.04V269H328.512V264.584H328.528C328.528 263.032 329.536 262.44 330.48 262.44C331.696 262.44 332.432 263.256 332.432 264.584V269H333.904V264.584C333.904 263.064 334.912 262.44 335.888 262.44C337.088 262.44 337.824 263.256 337.824 264.584V269H339.296V264.28ZM344.936 269.16C346.824 269.16 348.312 268.12 348.6 266.488H347.144C346.952 267.32 346.056 267.88 344.952 267.88C343.48 267.88 342.472 266.888 342.344 265.416H348.664L348.68 264.84C348.68 262.664 347.016 261.048 344.92 261.048C342.68 261.048 340.936 262.808 340.936 265.064C340.936 267.384 342.68 269.16 344.936 269.16ZM342.408 264.28C342.696 263.048 343.624 262.312 344.872 262.312C346.088 262.312 347.016 263.144 347.112 264.28H342.408ZM351.793 261.192H350.321V269H351.793V264.696H351.809C351.809 263.336 352.673 262.44 353.985 262.44C355.265 262.44 356.097 263.336 356.097 264.696V269H357.585V264.536C357.585 262.376 356.321 261.032 354.321 261.032C353.185 261.032 352.289 261.608 351.793 262.6V261.192ZM362.683 269.096C362.955 269.096 363.291 269.064 363.531 269V267.64C363.371 267.688 363.163 267.704 362.987 267.704C362.059 267.704 361.419 267.288 361.419 266.2V262.6H363.531V261.192H361.419V259.08H359.947V261.192H358.427V262.6H359.947V266.232C359.947 268.136 361.035 269.096 362.683 269.096Z" fill="url(#paint2_linear_994_19638)"/>
<rect x="188.566" y="241.461" width="219.418" height="41.8591" rx="20.9296" stroke="#525252"/>
<path d="M254.32 147.646C256.76 148.093 258.907 146.584 259.36 144.113L260.617 137.251L259.09 136.971L257.833 143.833C257.536 145.454 256.165 146.455 254.591 146.167C253.018 145.879 252.091 144.456 252.388 142.835L253.645 135.973L252.118 135.694L250.861 142.556C250.408 145.026 251.881 147.199 254.32 147.646ZM262.846 137.659L260.828 148.676L262.354 148.956L264.373 137.939L262.846 137.659ZM276.265 145.632L273.384 145.104L273.909 142.24L272.556 141.992L272.031 144.856L269.151 144.329L268.903 145.682L271.783 146.21L271.252 149.106L272.606 149.354L273.136 146.458L276.017 146.986L276.265 145.632ZM285.212 153.306C287.652 153.753 289.799 152.244 290.252 149.773L291.509 142.911L289.982 142.631L288.725 149.493C288.428 151.114 287.057 152.115 285.483 151.827C283.91 151.539 282.983 150.116 283.28 148.495L284.537 141.634L283.01 141.354L281.753 148.216C281.3 150.687 282.773 152.859 285.212 153.306ZM298.3 155.542L300.094 155.871L297.364 149.466L301.861 144.808L300.083 144.482L296.712 147.963L294.81 143.516L293.001 143.184L295.564 149.168L290.746 154.158L292.509 154.481L296.203 150.652L298.3 155.542ZM310.619 146.412L307.094 145.767L305.075 156.783L308.601 157.429C311.685 157.994 314.497 156.053 315.08 152.874C315.656 149.727 313.704 146.978 310.619 146.412ZM306.867 155.615L308.355 147.494L310.448 147.878C312.652 148.281 313.948 150.259 313.522 152.589C313.089 154.949 311.148 156.399 308.96 155.998L306.867 155.615ZM319.097 159.515C320.954 159.855 322.605 159.1 323.183 157.547L321.751 157.285C321.412 158.068 320.429 158.458 319.344 158.259C317.896 157.994 317.083 156.836 317.222 155.365L323.439 156.504L323.558 155.94C323.951 153.8 322.605 151.911 320.543 151.533C318.34 151.129 316.307 152.546 315.901 154.765C315.483 157.047 316.878 159.108 319.097 159.515ZM317.49 154.259C317.995 153.099 319.041 152.543 320.268 152.768C321.464 152.987 322.227 153.972 322.117 155.107L317.49 154.259ZM327.085 160.979C328.753 161.284 330.197 160.508 330.448 159.138C331.03 155.959 326.183 156.665 326.518 154.84C326.622 154.273 327.255 154.015 328.057 154.162C328.939 154.324 329.482 154.911 329.464 155.542L330.927 155.81C331.009 154.296 329.84 153.22 328.314 152.94C326.598 152.626 325.321 153.384 325.081 154.69C324.545 157.618 329.374 157.006 329.025 158.91C328.907 159.556 328.213 159.884 327.253 159.708C326.277 159.529 325.661 158.896 325.705 158.123L324.32 157.869C324.192 159.456 325.291 160.65 327.085 160.979ZM333.038 153.969L331.631 161.649L333.094 161.917L334.501 154.237L333.038 153.969ZM333.254 151.454C333.156 151.99 333.516 152.511 334.051 152.609C334.587 152.707 335.108 152.347 335.206 151.812C335.301 151.293 334.944 150.756 334.409 150.657C333.874 150.559 333.35 150.935 333.254 151.454ZM338.353 166.215C340.572 166.622 342.454 165.584 342.849 163.428L344.207 156.015L342.759 155.75L342.48 157.276C342.106 156.118 341.214 155.304 339.861 155.056C337.783 154.675 335.814 156.104 335.416 158.276C335.018 160.448 336.35 162.497 338.428 162.878C339.781 163.126 340.904 162.681 341.666 161.714L341.39 163.225C341.144 164.563 339.913 165.248 338.528 164.995C337.3 164.77 336.384 164 336.51 163.047L335.078 162.785C334.806 164.801 336.732 165.918 338.353 166.215ZM336.832 158.535C337.095 157.103 338.448 156.196 339.912 156.464C341.423 156.741 342.341 158.032 342.073 159.495C341.802 160.975 340.486 161.856 338.975 161.579C337.511 161.311 336.57 159.967 336.832 158.535ZM347.672 156.65L346.225 156.385L344.817 164.065L346.265 164.33L347.041 160.097L347.057 160.1C347.302 158.762 348.313 158.036 349.604 158.273C350.863 158.503 351.52 159.535 351.274 160.872L350.499 165.106L351.962 165.374L352.767 160.983C353.156 158.858 352.155 157.309 350.188 156.948C349.071 156.744 348.085 157.149 347.419 158.035L347.672 156.65Z" fill="url(#paint3_linear_994_19638)"/>
<rect x="236.542" y="115.254" width="159.534" height="41.8591" rx="20.9296" transform="rotate(10.3828 236.542 115.254)" stroke="#525252"/>
<path d="M136.436 189.543L136.705 190.548C138.423 189.541 140.236 189.817 140.663 191.409C141.002 192.676 140.319 193.836 139.021 194.184C137.8 194.511 136.803 194.066 136.377 193.22L134.894 193.617C135.555 195.345 137.412 196.156 139.406 195.622C141.585 195.038 142.764 193.132 142.201 191.03C141.712 189.206 139.938 188.273 138.194 188.873L140.418 184.683L140.144 183.663L133.05 185.564L133.431 186.986L138.423 185.648L136.436 189.543ZM145.368 182.263L141.906 183.191L144.805 194.009L148.267 193.082C151.296 192.27 153.004 189.311 152.168 186.189C151.34 183.098 148.397 181.452 145.368 182.263ZM145.923 192.186L143.786 184.211L145.842 183.66C148.006 183.081 150.025 184.312 150.638 186.599C151.259 188.917 150.127 191.059 147.979 191.635L145.923 192.186ZM159.54 178.466L156.078 179.394L158.977 190.212L162.439 189.284C165.468 188.473 167.176 185.514 166.34 182.392C165.512 179.301 162.569 177.654 159.54 178.466ZM160.095 188.388L157.958 180.414L160.014 179.863C162.178 179.283 164.197 180.515 164.81 182.802C165.431 185.12 164.299 187.262 162.151 187.838L160.095 188.388ZM172.816 186.669C174.64 186.181 175.808 184.791 175.664 183.14L174.257 183.517C174.287 184.37 173.567 185.143 172.5 185.429C171.079 185.81 169.848 185.113 169.343 183.724L175.448 182.088L175.315 181.528C174.751 179.426 172.726 178.295 170.701 178.838C168.538 179.418 167.308 181.569 167.892 183.748C168.493 185.989 170.637 187.253 172.816 186.669ZM169.111 182.61C169.071 181.345 169.777 180.394 170.982 180.071C172.157 179.757 173.268 180.32 173.655 181.393L169.111 182.61ZM180.66 184.568C182.298 184.129 183.27 182.808 182.91 181.464C182.073 178.342 177.997 181.057 177.517 179.265C177.368 178.708 177.829 178.204 178.617 177.992C179.482 177.761 180.225 178.059 180.479 178.636L181.916 178.251C181.342 176.848 179.824 176.377 178.325 176.779C176.64 177.23 175.811 178.463 176.155 179.745C176.925 182.62 181.026 179.997 181.527 181.867C181.697 182.501 181.21 183.095 180.267 183.348C179.309 183.605 178.481 183.296 178.189 182.579L176.829 182.944C177.394 184.432 178.898 185.04 180.66 184.568ZM183.034 175.683L185.054 183.225L186.492 182.839L184.471 175.297L183.034 175.683ZM182.152 173.318C182.292 173.844 182.841 174.161 183.367 174.02C183.892 173.879 184.209 173.33 184.068 172.805C183.931 172.295 183.379 171.963 182.853 172.103C182.328 172.244 182.015 172.808 182.152 173.318ZM193.085 184.468C195.264 183.884 196.52 182.14 195.952 180.023L194.002 172.744L192.58 173.125L192.982 174.624C192.148 173.737 190.993 173.384 189.664 173.74C187.624 174.287 186.457 176.422 187.028 178.555C187.6 180.687 189.682 181.968 191.722 181.421C193.051 181.065 193.875 180.182 194.15 178.982L194.547 180.466C194.899 181.779 194.08 182.926 192.72 183.291C191.515 183.614 190.357 183.311 190.062 182.396L188.656 182.773C189.274 184.711 191.493 184.895 193.085 184.468ZM188.419 178.182C188.042 176.775 188.877 175.376 190.314 174.991C191.798 174.593 193.181 175.366 193.566 176.803C193.955 178.256 193.143 179.616 191.66 180.014C190.222 180.399 188.796 179.588 188.419 178.182ZM197.405 171.832L195.983 172.213L198.004 179.755L199.426 179.374L198.312 175.216L198.327 175.212C197.975 173.899 198.578 172.81 199.845 172.47C201.082 172.139 202.117 172.789 202.469 174.102L203.583 178.26L205.02 177.875L203.865 173.563C203.306 171.476 201.737 170.505 199.805 171.023C198.708 171.317 197.992 172.105 197.769 173.192L197.405 171.832Z" fill="url(#paint4_linear_994_19638)"/>
<rect x="112.612" y="174.826" width="138.292" height="41.8591" rx="20.9296" transform="rotate(-15 112.612 174.826)" stroke="#525252"/>
<path d="M323.874 78.3047L317.506 87.5178L318.782 88.4003L325.151 79.1873L323.874 78.3047ZM328.155 81.264L326.931 80.4178L320.562 89.6309L321.787 90.477L328.155 81.264ZM331.06 83.2719L329.836 82.4258L323.467 91.6389L324.691 92.485L331.06 83.2719ZM331.123 96.9312L332.347 97.7773L336.787 91.3545L335.576 90.5175L333.116 94.0489C332.343 95.1676 331.122 95.4133 330.043 94.6673C328.99 93.9394 328.815 92.7293 329.589 91.6106L332.036 88.0701L330.812 87.224L328.274 90.8961C327.045 92.6729 327.321 94.4972 328.966 95.6344C329.9 96.2804 330.943 96.3201 331.906 95.7993L331.123 96.9312ZM336.192 100.63C337.587 101.594 339.222 101.479 340.014 100.334C341.852 97.6758 337.143 96.3272 338.199 94.8004C338.526 94.3266 339.209 94.3514 339.881 94.8154C340.618 95.3249 340.871 96.0837 340.595 96.6516L341.819 97.4977C342.517 96.1513 341.893 94.6895 340.616 93.807C339.182 92.8153 337.706 92.9813 336.95 94.0737C335.258 96.5218 339.912 97.9494 338.811 99.5419C338.438 100.082 337.67 100.095 336.867 99.5402C336.051 98.9762 335.75 98.1456 336.108 97.4592L334.95 96.6586C334.181 98.0526 334.692 99.5924 336.192 100.63ZM342.669 105.029C342.892 105.183 343.187 105.348 343.421 105.432L344.194 104.313C344.035 104.262 343.855 104.157 343.71 104.057C342.947 103.529 342.657 102.823 343.276 101.928L345.323 98.9664L347.06 100.167L347.861 99.0091L346.123 97.8082L347.324 96.0708L346.113 95.2338L344.912 96.9711L343.662 96.1068L342.861 97.265L344.112 98.1294L342.047 101.117C340.964 102.683 341.313 104.092 342.669 105.029ZM344.675 106.299L345.899 107.145L348.401 103.525C349.174 102.407 350.429 102.224 351.39 102.888C351.6 103.033 351.797 103.228 351.949 103.43L352.722 102.311C352.574 102.131 352.382 101.959 352.184 101.823C351.421 101.295 350.52 101.275 349.693 101.657L350.339 100.722L349.115 99.876L344.675 106.299ZM359.779 107.248L358.568 106.411L357.659 107.727C357.822 106.478 357.343 105.37 356.211 104.587C354.474 103.386 352.064 103.918 350.781 105.774C349.498 107.63 349.852 110.072 351.59 111.273C352.721 112.056 353.928 112.111 355.038 111.518L354.129 112.834L355.339 113.671L359.779 107.248ZM351.966 106.593C352.812 105.369 354.437 105.072 355.661 105.918C356.924 106.792 357.222 108.359 356.348 109.622C355.475 110.886 353.904 111.161 352.64 110.288C351.416 109.442 351.12 107.817 351.966 106.593ZM359.802 116.872C360.025 117.027 360.32 117.192 360.554 117.275L361.327 116.157C361.168 116.105 360.988 116 360.843 115.9C360.08 115.372 359.79 114.666 360.409 113.771L362.456 110.81L364.193 112.011L364.994 110.853L363.256 109.652L364.457 107.914L363.246 107.077L362.046 108.815L360.795 107.95L359.995 109.108L361.245 109.973L359.18 112.96C358.097 114.527 358.446 115.935 359.802 116.872ZM366.248 111.719L361.808 118.142L363.032 118.988L367.472 112.566L366.248 111.719ZM367.479 109.517C367.169 109.964 367.283 110.587 367.731 110.897C368.178 111.206 368.801 111.092 369.111 110.645C369.411 110.21 369.306 109.574 368.859 109.265C368.411 108.955 367.779 109.082 367.479 109.517ZM372.231 115.661C370.349 114.36 367.901 114.807 366.581 116.715C365.28 118.598 365.727 121.046 367.609 122.347C369.465 123.63 371.927 123.192 373.228 121.31C374.547 119.402 374.087 116.944 372.231 115.661ZM367.753 117.525C368.608 116.288 370.22 115.982 371.431 116.819C372.615 117.638 372.925 119.272 372.07 120.509C371.224 121.733 369.595 122.008 368.41 121.189C367.199 120.352 366.907 118.749 367.753 117.525ZM378.011 119.851L376.8 119.014L372.36 125.437L373.571 126.274L376.018 122.733L376.032 122.742C376.805 121.624 378.025 121.378 379.104 122.124C380.157 122.852 380.332 124.062 379.559 125.181L377.112 128.721L378.336 129.567L380.874 125.895C382.102 124.118 381.827 122.294 380.181 121.157C379.247 120.511 378.182 120.475 377.21 121.009L378.011 119.851Z" fill="url(#paint5_linear_994_19638)"/>
<rect x="324.5" y="59.6995" width="95.3355" height="41.8591" rx="20.9296" transform="rotate(34.6546 324.5 59.6995)" stroke="#525252"/>
<path d="M15.7683 151.337L13.9384 153.392L11.154 150.913L12.9838 148.858C13.6966 148.057 14.8474 147.968 15.6361 148.67C16.4248 149.372 16.4811 150.536 15.7683 151.337ZM17.388 158.541L18.4199 157.382L15.0379 154.371L16.8678 152.316C18.1763 150.846 18.0796 148.789 16.6574 147.523C15.2353 146.257 13.1929 146.409 11.8844 147.879L9.02254 151.094L17.388 158.541ZM23.4848 151.692L24.4742 150.581L21.1878 147.655C20.172 146.751 20.1437 145.483 20.9203 144.611C21.0906 144.42 21.3073 144.249 21.5266 144.123L20.5108 143.218C20.3141 143.343 20.1199 143.513 19.9604 143.692C19.3433 144.385 19.2138 145.277 19.4908 146.145L18.6423 145.389L17.6529 146.501L23.4848 151.692ZM23.3665 139.842C21.8452 141.551 21.9895 144.036 23.7223 145.578C25.4313 147.1 27.9161 146.955 29.4374 145.246C30.9375 143.561 30.8038 141.065 29.0949 139.543C27.3621 138.001 24.8666 138.157 23.3665 139.842ZM24.6692 144.515C23.5458 143.515 23.4394 141.878 24.4182 140.778C25.3757 139.703 27.0353 139.595 28.1587 140.595C29.2701 141.584 29.3433 143.235 28.3858 144.31C27.407 145.41 25.7806 145.504 24.6692 144.515ZM34.4747 137.47C33.4853 138.582 31.8363 138.678 30.7249 137.688C29.6135 136.699 29.5177 135.05 30.5071 133.938C31.454 132.875 32.9064 132.711 34.0299 133.519L34.484 133.923C35.416 134.945 35.4216 136.407 34.4747 137.47ZM29.7674 138.764C31.4524 140.264 33.9199 140.211 35.3242 138.634C36.2285 137.618 36.4314 136.428 36.0017 135.274L37.1729 136.316L38.1623 135.205L29.7969 127.758L28.8075 128.869L32.5122 132.167C31.3165 131.874 30.1576 132.213 29.2533 133.229C27.849 134.807 28.0824 137.264 29.7674 138.764ZM43.3667 129.359L44.3561 128.248L38.5242 123.056L37.5454 124.155L40.7495 127.029C41.7653 127.933 41.86 129.175 40.9876 130.154C40.1365 131.111 38.9141 131.136 37.8983 130.232L34.6836 127.37L33.6942 128.481L37.0284 131.45C38.6417 132.886 40.486 132.835 41.8159 131.342C42.5712 130.493 42.7381 129.464 42.3389 128.444L43.3667 129.359ZM48.242 124.123C49.4655 122.749 49.6331 120.756 48.5033 119.45L47.5139 120.562C48.0448 121.313 47.8713 122.422 47.1904 123.187C46.2116 124.286 44.6064 124.357 43.495 123.367C42.3597 122.357 42.244 120.754 43.2228 119.655C43.9037 118.89 44.9642 118.613 45.7346 118.999L46.7346 117.876C45.3454 116.982 43.3839 117.356 42.1711 118.719C40.6604 120.416 40.8167 122.911 42.5376 124.443C44.2465 125.964 46.7313 125.82 48.242 124.123ZM53.9992 117.56C54.18 117.357 54.3795 117.084 54.4913 116.863L53.4755 115.958C53.405 116.11 53.2786 116.276 53.1616 116.407C52.5445 117.1 51.8083 117.302 50.9956 116.578L48.3068 114.185L49.7111 112.607L48.6594 111.671L47.2551 113.248L45.6776 111.844L44.6989 112.944L46.2763 114.348L45.2657 115.483L46.3173 116.419L47.328 115.284L50.0408 117.699C51.4629 118.965 52.9034 118.791 53.9992 117.56ZM52.049 102.762L49.6659 105.439L58.0314 112.886L60.4144 110.209C62.4996 107.867 62.3016 104.456 59.8875 102.307C57.4974 100.179 54.1342 100.42 52.049 102.762ZM57.9639 110.748L51.7974 105.258L53.2123 103.669C54.7017 101.996 57.0656 101.915 58.8343 103.49C60.6269 105.086 60.8576 107.498 59.3788 109.159L57.9639 110.748ZM67.649 102.323C68.9043 100.913 69.1169 99.1101 68.0895 97.8098L67.1214 98.8973C67.6151 99.5939 67.4376 100.636 66.7035 101.46C65.7248 102.56 64.3136 102.653 63.129 101.77L67.3313 97.0492L66.9118 96.6543C65.2865 95.2074 62.973 95.3757 61.5794 96.9413C60.0899 98.6143 60.2449 101.087 61.9299 102.587C63.6627 104.13 66.1489 104.008 67.649 102.323ZM62.3231 100.967C61.5944 99.9322 61.6617 98.7497 62.4915 97.8176C63.3001 96.9093 64.5386 96.7694 65.4509 97.4531L62.3231 100.967ZM73.0486 96.2577C74.1763 94.9909 74.2626 93.354 73.2229 92.4284C70.8089 90.2794 68.8948 94.7877 67.5085 93.5536C67.0783 93.1706 67.1864 92.4956 67.729 91.8862C68.3248 91.2169 69.1088 91.0581 69.6388 91.4013L70.6282 90.2899C69.3771 89.4332 67.8501 89.8732 66.8181 91.0324C65.6585 92.3351 65.6428 93.8206 66.6347 94.7036C68.8575 96.6824 70.8433 92.238 72.2893 93.5252C72.7793 93.9614 72.699 94.7254 72.05 95.4544C71.3904 96.1953 70.5293 96.3927 69.8918 95.9537L68.9556 97.0053C70.2451 97.9391 71.8358 97.62 73.0486 96.2577ZM70.1506 87.5297L75.9825 92.7214L76.9719 91.61L71.14 86.4183L70.1506 87.5297ZM68.1148 86.0386C68.5211 86.4003 69.1536 86.3636 69.5154 85.9573C69.8771 85.551 69.8403 84.9185 69.434 84.5568C69.0396 84.2057 68.3952 84.2318 68.0335 84.6381C67.6718 85.0444 67.7204 85.6876 68.1148 86.0386ZM83.3763 89.3488C84.8763 87.6638 84.967 85.5166 83.3297 84.0591L77.701 79.0483L76.7222 80.1477L77.8814 81.1797C76.6978 80.8971 75.5388 81.2364 74.6239 82.2642C73.2196 83.8416 73.4171 86.2667 75.0663 87.7349C76.7155 89.203 79.159 89.1291 80.5634 87.5516C81.4783 86.5239 81.6812 85.3335 81.2515 84.1798L82.3988 85.2011C83.4146 86.1054 83.3604 87.5139 82.4242 88.5655C81.5943 89.4977 80.4606 89.8808 79.7117 89.2783L78.7436 90.3658C80.3251 91.6453 82.2805 90.5798 83.3763 89.3488ZM76.0238 86.6593C74.9363 85.6912 74.8644 84.0634 75.8538 82.952C76.8751 81.8048 78.4551 81.6904 79.5665 82.6798C80.6898 83.6798 80.7591 85.2624 79.7377 86.4096C78.7483 87.521 77.1113 87.6274 76.0238 86.6593ZM80.0435 76.4169L79.0648 77.5164L84.8966 82.7081L85.8754 81.6086L82.6607 78.7468L82.6713 78.7348C81.6555 77.8306 81.5608 76.5894 82.4332 75.6095C83.2843 74.6535 84.5067 74.6278 85.5225 75.5321L88.7372 78.3939L89.7266 77.2825L86.3924 74.3143C84.7791 72.8781 82.9348 72.9285 81.6049 74.4223C80.8496 75.2708 80.684 76.323 81.0952 77.3531L80.0435 76.4169Z" fill="url(#paint6_linear_994_19638)"/>
<rect x="-14.2941" y="153.732" width="175.029" height="41.8591" rx="20.9296" transform="rotate(-48.3236 -14.2941 153.732)" stroke="#525252"/>
<path d="M275.445 203.312H271.861V214.512H275.445C278.581 214.512 280.997 212.096 280.997 208.864C280.997 205.664 278.581 203.312 275.445 203.312ZM273.413 213.04V204.784H275.541C277.781 204.784 279.413 206.496 279.413 208.864C279.413 211.264 277.765 213.04 275.541 213.04H273.413ZM286.145 214.672C288.033 214.672 289.521 213.632 289.809 212H288.353C288.161 212.832 287.265 213.392 286.161 213.392C284.689 213.392 283.681 212.4 283.553 210.928H289.873L289.889 210.352C289.889 208.176 288.225 206.56 286.129 206.56C283.889 206.56 282.145 208.32 282.145 210.576C282.145 212.896 283.889 214.672 286.145 214.672ZM283.617 209.792C283.905 208.56 284.833 207.824 286.081 207.824C287.297 207.824 288.225 208.656 288.321 209.792H283.617ZM294.266 214.672C295.962 214.672 297.242 213.648 297.242 212.256C297.242 209.024 292.602 210.592 292.602 208.736C292.602 208.16 293.178 207.792 293.994 207.792C294.89 207.792 295.53 208.272 295.626 208.896H297.114C296.922 207.392 295.578 206.544 294.026 206.544C292.282 206.544 291.162 207.52 291.162 208.848C291.162 211.824 295.802 210.352 295.802 212.288C295.802 212.944 295.178 213.392 294.202 213.392C293.21 213.392 292.49 212.88 292.394 212.112H290.986C291.146 213.696 292.442 214.672 294.266 214.672ZM298.858 206.704V214.512H300.346V206.704H298.858ZM298.618 204.192C298.618 204.736 299.066 205.184 299.61 205.184C300.154 205.184 300.602 204.736 300.602 204.192C300.602 203.664 300.154 203.2 299.61 203.2C299.066 203.2 298.618 203.664 298.618 204.192ZM306.293 217.792C308.549 217.792 310.213 216.432 310.213 214.24V206.704H308.741V208.256C308.165 207.184 307.141 206.544 305.765 206.544C303.653 206.544 301.973 208.304 301.973 210.512C301.973 212.72 303.653 214.496 305.765 214.496C307.141 214.496 308.165 213.856 308.741 212.768V214.304C308.741 215.664 307.653 216.56 306.245 216.56C304.997 216.56 303.957 215.968 303.909 215.008H302.453C302.549 217.04 304.645 217.792 306.293 217.792ZM303.413 210.512C303.413 209.056 304.581 207.92 306.069 207.92C307.605 207.92 308.741 209.024 308.741 210.512C308.741 212.016 307.605 213.12 306.069 213.12C304.581 213.12 303.413 211.968 303.413 210.512ZM313.736 206.704H312.264V214.512H313.736V210.208H313.752C313.752 208.848 314.616 207.952 315.928 207.952C317.208 207.952 318.04 208.848 318.04 210.208V214.512H319.528V210.048C319.528 207.888 318.264 206.544 316.264 206.544C315.128 206.544 314.232 207.12 313.736 208.112V206.704ZM329.104 214.672C331.376 214.672 333.072 213.296 333.072 211.408C333.072 207.04 326.672 208.848 326.672 206.224C326.672 205.264 327.568 204.608 328.848 204.608C330.192 204.608 331.104 205.424 331.136 206.528H332.72C332.72 204.688 331.376 203.152 328.896 203.152C326.752 203.152 325.168 204.432 325.168 206.224C325.168 210.336 331.536 208.528 331.536 211.408C331.536 212.48 330.512 213.216 329.104 213.216C327.6 213.216 326.528 212.304 326.528 210.976H325.008C325.008 213.104 326.736 214.672 329.104 214.672ZM335.147 217.36H336.731L341.195 206.704H339.611L337.275 212.528L334.955 206.704H333.371L336.523 214.24L335.147 217.36ZM344.938 214.672C346.634 214.672 347.914 213.648 347.914 212.256C347.914 209.024 343.274 210.592 343.274 208.736C343.274 208.16 343.85 207.792 344.666 207.792C345.562 207.792 346.202 208.272 346.298 208.896H347.786C347.594 207.392 346.25 206.544 344.698 206.544C342.954 206.544 341.834 207.52 341.834 208.848C341.834 211.824 346.474 210.352 346.474 212.288C346.474 212.944 345.85 213.392 344.874 213.392C343.882 213.392 343.162 212.88 343.066 212.112H341.658C341.818 213.696 343.114 214.672 344.938 214.672ZM352.767 214.608C353.039 214.608 353.375 214.576 353.615 214.512V213.152C353.455 213.2 353.247 213.216 353.071 213.216C352.143 213.216 351.503 212.8 351.503 211.712V208.112H353.615V206.704H351.503V204.592H350.031V206.704H348.511V208.112H350.031V211.744C350.031 213.648 351.119 214.608 352.767 214.608ZM358.254 214.672C360.142 214.672 361.63 213.632 361.918 212H360.462C360.27 212.832 359.374 213.392 358.27 213.392C356.798 213.392 355.79 212.4 355.662 210.928H361.982L361.998 210.352C361.998 208.176 360.334 206.56 358.238 206.56C355.998 206.56 354.254 208.32 354.254 210.576C354.254 212.896 355.998 214.672 358.254 214.672ZM355.726 209.792C356.014 208.56 356.942 207.824 358.19 207.824C359.406 207.824 360.334 208.656 360.43 209.792H355.726ZM375.895 209.792C375.895 207.792 374.631 206.544 372.711 206.544C371.607 206.544 370.583 207.12 370.135 208.08C369.671 207.04 368.807 206.544 367.575 206.544C366.679 206.544 365.671 206.896 365.111 207.936V206.704H363.639V214.512H365.111V210.096H365.127C365.127 208.544 366.135 207.952 367.079 207.952C368.295 207.952 369.031 208.768 369.031 210.096V214.512H370.503V210.096C370.503 208.576 371.511 207.952 372.487 207.952C373.687 207.952 374.423 208.768 374.423 210.096V214.512H375.895V209.792ZM380.688 214.672C382.384 214.672 383.664 213.648 383.664 212.256C383.664 209.024 379.024 210.592 379.024 208.736C379.024 208.16 379.6 207.792 380.416 207.792C381.312 207.792 381.952 208.272 382.048 208.896H383.536C383.344 207.392 382 206.544 380.448 206.544C378.704 206.544 377.584 207.52 377.584 208.848C377.584 211.824 382.224 210.352 382.224 212.288C382.224 212.944 381.6 213.392 380.624 213.392C379.632 213.392 378.912 212.88 378.816 212.112H377.408C377.568 213.696 378.864 214.672 380.688 214.672Z" fill="url(#paint7_linear_994_19638)"/>
<rect x="252.855" y="187.887" width="212.53" height="41.8591" rx="20.9296" stroke="#525252"/>
<path d="M146.713 63.7344L150.961 65.1041C152.728 65.6736 154.561 64.8358 155.101 63.1607C155.543 61.7902 154.932 60.3491 153.707 59.7692C154.77 59.8599 155.82 59.1057 156.174 58.0093C156.65 56.5322 155.677 54.8568 153.941 54.2971L150.149 53.0747L146.713 63.7344ZM148.626 62.8047L149.76 59.287L152.471 60.1609C153.461 60.48 153.987 61.507 153.673 62.4816C153.354 63.4715 152.357 64.0075 151.322 63.6737L148.626 62.8047ZM150.148 58.084L151.16 54.947L153.444 55.6834C154.373 55.9829 154.903 56.8935 154.628 57.7463C154.338 58.6447 153.361 59.1199 152.433 58.8204L150.148 58.084ZM155.588 66.5959L157.005 67.0524L158.355 62.8647C158.772 61.5703 159.92 61.0327 161.032 61.3911C161.276 61.4697 161.52 61.5988 161.724 61.7486L162.141 60.4542C161.948 60.3246 161.714 60.2156 161.485 60.1419C160.602 59.8572 159.734 60.0985 159.052 60.7023L159.4 59.6211L157.984 59.1645L155.588 66.5959ZM170.323 63.1427L168.922 62.691L168.432 64.2138C168.227 62.9711 167.449 62.0478 166.139 61.6255C164.129 60.9775 161.975 62.1828 161.283 64.3299C160.591 66.4771 161.635 68.7134 163.645 69.3614C164.955 69.7837 166.126 69.4887 167.018 68.5995L166.527 70.1223L167.928 70.574L170.323 63.1427ZM162.654 64.7718C163.11 63.3556 164.58 62.6023 165.996 63.0589C167.458 63.5302 168.196 64.9448 167.725 66.4067C167.253 67.8686 165.828 68.586 164.366 68.1146C162.95 67.658 162.197 66.188 162.654 64.7718ZM173.677 64.2237L172.276 63.772L169.88 71.2033L171.281 71.655L172.601 67.5586L172.617 67.5636C173.034 66.2692 174.131 65.6815 175.38 66.0841C176.598 66.4768 177.115 67.5849 176.698 68.8793L175.377 72.9757L176.793 73.4323L178.163 69.1836C178.826 67.1278 178.035 65.4608 176.132 64.8471C175.05 64.4985 174.021 64.7718 173.244 65.5638L173.677 64.2237ZM182.628 74.0022C181.212 73.5457 180.459 72.0756 180.915 70.6594C181.372 69.2432 182.842 68.4899 184.258 68.9465C185.614 69.3834 186.35 70.6462 186.064 72L185.878 72.5787C185.319 73.8441 183.984 74.4392 182.628 74.0022ZM179.545 70.2175C178.853 72.3647 179.897 74.601 181.907 75.249C183.201 75.6663 184.372 75.3714 185.254 74.5127L184.773 76.005L186.19 76.4616L189.626 65.8019L188.21 65.3453L186.688 70.066C186.474 68.8538 185.695 67.9304 184.401 67.5131C182.391 66.8651 180.237 68.0704 179.545 70.2175ZM195.257 79.553C197.419 80.2502 199.456 79.461 200.035 77.664C201.375 73.5068 194.729 73.2637 195.534 70.7663C195.829 69.8526 196.883 69.5032 198.101 69.896C199.38 70.3084 199.998 71.3648 199.69 72.4254L201.197 72.9114C201.762 71.1602 200.954 69.2859 198.594 68.5249C196.553 67.867 194.653 68.5993 194.103 70.3048C192.841 74.2184 199.457 74.4517 198.573 77.1927C198.244 78.213 197.044 78.5993 195.704 78.1673C194.272 77.7058 193.532 76.5088 193.939 75.2449L192.493 74.7785C191.84 76.8038 193.003 78.8264 195.257 79.553ZM203.566 82.1645C203.825 82.248 204.154 82.3206 204.402 82.3334L204.82 81.039C204.653 81.0356 204.45 80.987 204.282 80.933C203.399 80.6482 202.917 80.0559 203.251 79.0204L204.356 75.5941L206.366 76.2421L206.798 74.902L204.788 74.254L205.436 72.2439L204.035 71.7922L203.387 73.8023L201.94 73.3359L201.508 74.676L202.955 75.1424L201.84 78.5992C201.256 80.4113 201.997 81.6589 203.566 82.1645ZM205.853 82.8012L207.269 83.2577L208.62 79.07C209.037 77.7756 210.185 77.238 211.297 77.5964C211.541 77.675 211.785 77.8041 211.989 77.9539L212.406 76.6595C212.212 76.5299 211.978 76.4209 211.75 76.3472C210.867 76.0625 209.999 76.3038 209.317 76.9076L209.665 75.8264L208.249 75.3698L205.853 82.8012ZM220.588 79.348L219.187 78.8963L218.696 80.4191C218.492 79.1764 217.714 78.2531 216.404 77.8308C214.394 77.1828 212.24 78.3881 211.548 80.5352C210.856 82.6824 211.9 84.9187 213.91 85.5667C215.219 85.989 216.39 85.694 217.282 84.8048L216.791 86.3276L218.192 86.7793L220.588 79.348ZM212.918 80.9771C213.375 79.5609 214.845 78.8076 216.261 79.2642C217.723 79.7355 218.461 81.1501 217.989 82.612C217.518 84.0739 216.093 84.7913 214.631 84.3199C213.215 83.8634 212.462 82.3933 212.918 80.9771ZM223.389 88.5556C223.648 88.639 223.978 88.7117 224.226 88.7244L224.643 87.43C224.476 87.4266 224.273 87.378 224.106 87.324C223.222 87.0392 222.741 86.4469 223.075 85.4114L224.179 81.9851L226.189 82.6331L226.621 81.2931L224.611 80.645L225.259 78.6349L223.858 78.1832L223.21 80.1933L221.764 79.7269L221.332 81.067L222.778 81.5334L221.664 84.9902C221.08 86.8023 221.821 88.0499 223.389 88.5556ZM228.592 90.3004C230.389 90.8797 232.125 90.3465 232.9 88.8816L231.514 88.4348C231.076 89.1677 230.051 89.4258 229 89.087C227.599 88.6354 226.944 87.3819 227.274 85.9416L233.289 87.8809L233.481 87.3376C234.149 85.2666 233.061 83.2179 231.066 82.5748C228.934 81.8875 226.734 83.0274 226.042 85.1746C225.33 87.3827 226.445 89.6081 228.592 90.3004ZM227.684 84.8801C228.336 83.7959 229.445 83.3801 230.633 83.7631C231.79 84.1362 232.418 85.2128 232.161 86.3235L227.684 84.8801ZM236.297 96.0625C238.444 96.7548 240.445 95.971 241.118 93.8847L243.43 86.7123L242.029 86.2606L241.553 87.7377C241.334 86.5407 240.556 85.6174 239.246 85.1951C237.236 84.5471 235.097 85.7067 234.42 87.8082C233.742 89.9096 234.796 92.1155 236.806 92.7635C238.116 93.1857 239.287 92.8908 240.169 92.0321L239.697 93.494C239.28 94.7884 237.97 95.3073 236.63 94.8752C235.442 94.4923 234.634 93.6097 234.883 92.6813L233.497 92.2346C232.965 94.198 234.729 95.5569 236.297 96.0625ZM235.79 88.25C236.237 86.8643 237.697 86.1415 239.113 86.598C240.575 87.0694 241.318 88.4687 240.861 89.8849C240.4 91.3163 238.98 92.0185 237.518 91.5472C236.101 91.0906 235.343 89.6358 235.79 88.25ZM242.908 97.74L244.416 98.226L251.934 89.4539L250.427 88.9678L246.416 93.7941L245.995 87.5391L244.488 87.0531L245.175 95.1927L242.908 97.74Z" fill="url(#paint8_linear_994_19638)"/>
<rect x="128.473" y="29.6332" width="194.162" height="41.8591" rx="20.9296" transform="rotate(17.8693 128.473 29.6332)" stroke="#525252"/>
<path d="M81.4269 128.542V139.742H82.9789V131.47L88.7869 139.742H90.1469V128.542H88.6109V136.83L82.8189 128.542H81.4269ZM100.155 131.934H98.6826V133.534C98.1066 132.414 97.0826 131.774 95.7066 131.774C93.5946 131.774 91.9146 133.582 91.9146 135.838C91.9146 138.094 93.5946 139.902 95.7066 139.902C97.0826 139.902 98.1066 139.262 98.6826 138.142V139.742H100.155V131.934ZM93.3546 135.838C93.3546 134.35 94.5226 133.182 96.0106 133.182C97.5466 133.182 98.6826 134.302 98.6826 135.838C98.6826 137.374 97.5466 138.494 96.0106 138.494C94.5226 138.494 93.3546 137.326 93.3546 135.838ZM114.462 135.022C114.462 133.022 113.198 131.774 111.278 131.774C110.174 131.774 109.15 132.35 108.702 133.31C108.238 132.27 107.374 131.774 106.142 131.774C105.246 131.774 104.238 132.126 103.678 133.166V131.934H102.206V139.742H103.678V135.326H103.694C103.694 133.774 104.702 133.182 105.646 133.182C106.862 133.182 107.598 133.998 107.598 135.326V139.742H109.07V135.326C109.07 133.806 110.078 133.182 111.054 133.182C112.254 133.182 112.99 133.998 112.99 135.326V139.742H114.462V135.022ZM120.102 139.902C121.99 139.902 123.478 138.862 123.766 137.23H122.31C122.118 138.062 121.222 138.622 120.118 138.622C118.646 138.622 117.638 137.63 117.51 136.158H123.83L123.846 135.582C123.846 133.406 122.182 131.79 120.086 131.79C117.846 131.79 116.102 133.55 116.102 135.806C116.102 138.126 117.846 139.902 120.102 139.902ZM117.574 135.022C117.862 133.79 118.79 133.054 120.038 133.054C121.254 133.054 122.182 133.886 122.278 135.022H117.574ZM132.87 128.542H129.286V139.742H132.87C136.006 139.742 138.422 137.326 138.422 134.094C138.422 130.894 136.006 128.542 132.87 128.542ZM130.838 138.27V130.014H132.966C135.206 130.014 136.838 131.726 136.838 134.094C136.838 136.494 135.19 138.27 132.966 138.27H130.838ZM143.571 139.902C145.459 139.902 146.947 138.862 147.235 137.23H145.779C145.587 138.062 144.691 138.622 143.587 138.622C142.115 138.622 141.107 137.63 140.979 136.158H147.299L147.315 135.582C147.315 133.406 145.651 131.79 143.555 131.79C141.315 131.79 139.571 133.55 139.571 135.806C139.571 138.126 141.315 139.902 143.571 139.902ZM141.043 135.022C141.331 133.79 142.259 133.054 143.507 133.054C144.723 133.054 145.651 133.886 145.747 135.022H141.043ZM151.692 139.902C153.388 139.902 154.668 138.878 154.668 137.486C154.668 134.254 150.028 135.822 150.028 133.966C150.028 133.39 150.604 133.022 151.42 133.022C152.316 133.022 152.956 133.502 153.052 134.126H154.54C154.348 132.622 153.004 131.774 151.452 131.774C149.708 131.774 148.588 132.75 148.588 134.078C148.588 137.054 153.228 135.582 153.228 137.518C153.228 138.174 152.604 138.622 151.628 138.622C150.636 138.622 149.916 138.11 149.82 137.342H148.412C148.572 138.926 149.868 139.902 151.692 139.902ZM156.284 131.934V139.742H157.772V131.934H156.284ZM156.044 129.422C156.044 129.966 156.492 130.414 157.036 130.414C157.58 130.414 158.028 129.966 158.028 129.422C158.028 128.894 157.58 128.43 157.036 128.43C156.492 128.43 156.044 128.894 156.044 129.422ZM163.719 143.022C165.975 143.022 167.639 141.662 167.639 139.47V131.934H166.167V133.486C165.591 132.414 164.567 131.774 163.191 131.774C161.079 131.774 159.399 133.534 159.399 135.742C159.399 137.95 161.079 139.726 163.191 139.726C164.567 139.726 165.591 139.086 166.167 137.998V139.534C166.167 140.894 165.079 141.79 163.671 141.79C162.423 141.79 161.383 141.198 161.335 140.238H159.879C159.975 142.27 162.071 143.022 163.719 143.022ZM160.839 135.742C160.839 134.286 162.007 133.15 163.495 133.15C165.031 133.15 166.167 134.254 166.167 135.742C166.167 137.246 165.031 138.35 163.495 138.35C162.007 138.35 160.839 137.198 160.839 135.742ZM171.162 131.934H169.69V139.742H171.162V135.438H171.178C171.178 134.078 172.042 133.182 173.354 133.182C174.634 133.182 175.466 134.078 175.466 135.438V139.742H176.954V135.278C176.954 133.118 175.69 131.774 173.69 131.774C172.554 131.774 171.658 132.35 171.162 133.342V131.934Z" fill="url(#paint9_linear_994_19638)"/>
<path d="M76.3261 112.883H220.21C231.769 112.883 241.14 122.253 241.14 133.812C241.14 145.371 231.769 154.742 220.21 154.742H76.3261C64.767 154.742 55.3965 145.371 55.3965 133.812C55.3965 122.253 64.767 112.883 76.3261 112.883Z" stroke="#525252"/>
<defs>
<linearGradient id="paint0_linear_994_19638" x1="181.336" y1="224.403" x2="184.374" y2="235.384" gradientUnits="userSpaceOnUse">
<stop stop-color="#BABABA"/>
<stop offset="0.616435" stop-color="white" stop-opacity="0"/>
</linearGradient>
<linearGradient id="paint1_linear_994_19638" x1="136.674" y1="194.863" x2="136.674" y2="206.257" gradientUnits="userSpaceOnUse">
<stop stop-color="#BABABA"/>
<stop offset="0.616435" stop-color="white" stop-opacity="0"/>
</linearGradient>
<linearGradient id="paint2_linear_994_19638" x1="347.937" y1="264.902" x2="347.937" y2="276.316" gradientUnits="userSpaceOnUse">
<stop stop-color="#BABABA"/>
<stop offset="0.616435" stop-color="white" stop-opacity="0"/>
</linearGradient>
<linearGradient id="paint3_linear_994_19638" x1="342.333" y1="159.4" x2="340.28" y2="170.607" gradientUnits="userSpaceOnUse">
<stop stop-color="#BABABA"/>
<stop offset="0.616435" stop-color="white" stop-opacity="0"/>
</linearGradient>
<linearGradient id="paint4_linear_994_19638" x1="266.51" y1="157.358" x2="269.131" y2="167.141" gradientUnits="userSpaceOnUse">
<stop stop-color="#BABABA"/>
<stop offset="0.616435" stop-color="white" stop-opacity="0"/>
</linearGradient>
<linearGradient id="paint5_linear_994_19638" x1="431.351" y1="161.47" x2="425.592" y2="169.801" gradientUnits="userSpaceOnUse">
<stop stop-color="#BABABA"/>
<stop offset="0.616435" stop-color="white" stop-opacity="0"/>
</linearGradient>
<linearGradient id="paint6_linear_994_19638" x1="76.3174" y1="86.4755" x2="83.882" y2="93.2097" gradientUnits="userSpaceOnUse">
<stop stop-color="#BABABA"/>
<stop offset="0.616435" stop-color="white" stop-opacity="0"/>
</linearGradient>
<linearGradient id="paint7_linear_994_19638" x1="364.871" y1="210.609" x2="364.871" y2="220.737" gradientUnits="userSpaceOnUse">
<stop stop-color="#BABABA"/>
<stop offset="0.616435" stop-color="white" stop-opacity="0"/>
</linearGradient>
<linearGradient id="paint8_linear_994_19638" x1="198.654" y1="76.3795" x2="195.547" y2="86.0188" gradientUnits="userSpaceOnUse">
<stop stop-color="#BABABA"/>
<stop offset="0.616435" stop-color="white" stop-opacity="0"/>
</linearGradient>
<linearGradient id="paint9_linear_994_19638" x1="128.884" y1="135.839" x2="128.884" y2="145.967" gradientUnits="userSpaceOnUse">
<stop stop-color="#BABABA"/>
<stop offset="0.616435" stop-color="white" stop-opacity="0"/>
</linearGradient>
</defs>
</svg>
