<svg width="645" height="692" viewBox="0 0 645 692" fill="none" xmlns="http://www.w3.org/2000/svg">
<line x1="44.2063" y1="230.051" x2="524.013" y2="105.388" stroke="#C0A7E2" stroke-dasharray="12 12"/>
<line x1="155.821" y1="421.396" x2="531.259" y2="322.1" stroke="#C0A7E2" stroke-dasharray="12 12"/>
<line x1="212.541" y1="513.184" x2="96.0356" y2="106.008" stroke="#C0A7E2" stroke-dasharray="12 12"/>
<path d="M586.235 62.8379L586.226 62.8286L586.217 62.8189L534.002 3.71053C532.199 1.66915 529.606 0.5 526.883 0.5H114.08H9.99994C4.75323 0.5 0.499939 4.7533 0.499939 10V122.603V458.038C0.499939 460.274 1.28906 462.439 2.72827 464.151L54.8323 526.128L112.653 583.608C113.227 584.179 114.005 584.5 114.816 584.5H634.736C639.983 584.5 644.236 580.247 644.236 575V125.895C644.236 123.409 643.261 121.021 641.52 119.246L586.235 62.8379Z" stroke="url(#paint0_linear_1019_19293)"/>
<path d="M356.96 255.176C355.101 253.899 352.804 252.877 350.836 252.877C348.612 252.877 343.363 253.826 343.363 261.272V263.133H354.955V273.645H343.363V314.452H331.551V273.682H322.62V263.133H331.551V259.812C331.551 248.241 340.628 242 349.195 242C353.57 242 357.944 243.277 361.954 245.759L356.96 255.176Z" fill="#C0A7E2"/>
<path fill-rule="evenodd" clip-rule="evenodd" d="M294.988 262.513C280.552 262.513 270.09 273.719 270.09 288.72C270.09 303.722 281.208 315 295.899 315C303.81 315 311.465 311.825 316.496 305.875L308.731 297.809C305.268 301.97 300.893 304.196 295.936 304.196C288.864 304.196 283.359 299.305 282.156 292.151H319.631V288.757C318.975 272.77 309.278 262.513 294.988 262.513ZM282.448 282.844C284.27 277.186 289.228 273.354 294.915 273.354C301.367 273.354 305.596 276.675 306.945 282.844H282.448Z" fill="#C0A7E2"/>
<path d="M244.973 299.232L236.443 271.565C234.547 265.433 232.396 263.9 228.313 263.9C224.23 263.9 222.08 265.433 220.184 271.565L211.654 299.232L202.759 263.133H190L203.16 308.466C204.472 312.919 207.717 315 211.581 315C215.627 315 218.653 312.372 219.929 308.43L228.277 282.405L236.625 308.43C237.901 312.372 240.926 315 244.973 315C248.837 315 252.118 312.919 253.394 308.466L266.554 263.133H253.795L244.973 299.232Z" fill="#C0A7E2"/>
<path d="M446.236 287.406C451.267 284.376 458.776 273.864 459.979 263.097H447.731C447.585 271.309 440.476 279.12 436.539 281.602C432.602 279.12 425.53 271.346 425.348 263.097H413.099C414.302 273.828 421.812 284.376 426.842 287.406C421.812 290.253 412.917 302.48 412.151 314.416H424.072C424.947 305.218 433.149 295.144 436.576 293.246C440.002 295.144 448.205 305.218 449.079 314.416H461C460.162 302.48 451.267 290.253 446.236 287.406Z" fill="#C0A7E2"/>
<path fill-rule="evenodd" clip-rule="evenodd" d="M357.507 288.757C357.507 274.047 368.953 262.513 383.535 262.513C398.117 262.513 409.563 274.047 409.563 288.757C409.563 303.466 398.117 315 383.535 315C368.917 315 357.507 303.466 357.507 288.757ZM369.099 288.757C369.099 297.699 375.187 304.16 383.535 304.16C391.846 304.16 397.861 297.663 397.861 288.757C397.861 279.814 391.846 273.354 383.535 273.354C375.151 273.354 369.099 279.851 369.099 288.757Z" fill="#C0A7E2"/>
<defs>
<linearGradient id="paint0_linear_1019_19293" x1="322.368" y1="0" x2="322.368" y2="585" gradientUnits="userSpaceOnUse">
<stop stop-color="#CCD0BB"/>
<stop offset="1" stop-color="#314232"/>
</linearGradient>
</defs>
</svg>
