<svg width="87" height="24" viewBox="0 0 87 24" fill="none" xmlns="http://www.w3.org/2000/svg">
<path d="M33.7066 6.53906C31.4322 6.53906 29.3656 7.43237 27.8872 9.0541C26.4294 10.6533 25.6267 12.8596 25.6267 15.2666C25.6267 20.2421 29.2271 23.9942 34.002 23.9942C36.6254 23.9942 39.0997 22.8933 40.621 21.0494L40.6886 20.9674L38.1574 18.2857L38.075 18.3873C37.4767 19.1252 36.1521 20.3629 34.002 20.3629C31.7011 20.3629 29.9181 18.7706 29.5271 16.3862H41.7049V15.2666V15.2615C41.4824 9.96284 38.343 6.53906 33.7066 6.53906ZM29.6431 13.3125C30.2271 11.4121 31.8321 10.1462 33.6818 10.1462C35.7712 10.1462 37.1487 11.269 37.5744 13.3125H29.6431ZM49.2477 6.33151V6.94H52.9663V10.4145H49.2477V23.8078H45.4393V10.4145H42.5657V6.94H45.4393V5.85316C45.4393 2.05137 48.3643 0 51.1162 0C52.516 0 53.9384 0.420256 55.1214 1.18331L55.2108 1.24092L53.6025 4.37721C53.0066 3.96429 52.2761 3.61584 51.6437 3.61584C50.9234 3.61584 49.2477 3.88045 49.2477 6.33151ZM82.2803 14.9272C84.0322 15.979 86.687 19.8161 86.9902 23.6796L87 23.8077H83.1762L83.1664 23.7001C82.8884 20.679 80.2628 17.4748 79.1625 16.8457C78.0622 17.4748 75.4365 20.679 75.1584 23.7001L75.1484 23.8077H71.3249L71.3349 23.6796C71.4808 21.8207 72.1788 19.797 73.3008 17.9815C74.1533 16.6016 75.207 15.4341 76.0451 14.9274C74.4315 13.9324 72.0234 10.5147 71.6411 6.98337L71.6366 6.93983H75.5733C75.6221 9.64585 77.8978 12.2019 79.1625 13.0207C80.4272 12.2019 82.7029 9.64585 82.7516 6.93983H86.6884L86.6836 6.98337C86.3018 10.5145 83.8939 13.9319 82.2803 14.9272ZM62.1479 6.53906C57.4095 6.53906 53.6976 10.3739 53.6976 15.2696C53.6976 20.1651 57.4095 24 62.1479 24C66.8862 24 70.5982 20.1651 70.5982 15.2696C70.5982 10.3739 66.8862 6.53906 62.1479 6.53906ZM62.1479 20.384C59.4317 20.384 57.4604 18.2332 57.4604 15.2696C57.4604 12.306 59.4317 10.1549 62.1479 10.1549C64.8455 10.1549 66.8035 12.306 66.8035 15.2696C66.8035 18.2332 64.8455 20.384 62.1479 20.384ZM24.605 6.93983L20.3781 21.8417C19.9615 23.31 18.914 23.9938 17.6723 23.9938C16.372 23.9938 15.397 23.1292 14.9889 21.8309L12.3025 13.2775L9.61601 21.8309C9.20772 23.1292 8.2328 23.9938 6.93271 23.9938C5.69106 23.9938 4.64336 23.31 4.22694 21.8417L0 6.93983H4.09423L6.95524 18.8118L9.69654 9.71756C10.3046 7.70023 10.9932 7.19891 12.3025 7.19891C13.6115 7.19891 14.3001 7.70023 14.9084 9.71756L17.6497 18.8118L20.5108 6.93983H24.605Z" fill="#AAAAAA"/>
</svg>
